<?xml version="1.0" standalone="no"?>
<!DOCTYPE svg PUBLIC "-//W3C//DTD SVG 1.1//EN" "http://www.w3.org/Graphics/SVG/1.1/DTD/svg11.dtd" >
<svg>
<metadata>
Created by FontForge 20090914 at Tue Apr 19 10:05:37 2016
 By www-data
(c) Copyright 2001 by Tom Truong. All Rights Reserved
</metadata>
<defs>
<font id="UVNVanBold" horiz-adv-x="1233" >
  <font-face 
    font-family="UVN Van"
    font-weight="700"
    font-stretch="normal"
    units-per-em="2048"
    panose-1="0 0 7 0 0 0 0 0 0 0"
    ascent="1638"
    descent="-410"
    x-height="1090"
    cap-height="1475"
    bbox="-313 -503.003 2114 2432"
    underline-thickness="209"
    underline-position="-121"
    unicode-range="U+0020-U+F002"
  />
<missing-glyph horiz-adv-x="1024" 
d="M128 0v2432h768v-2432h-768zM256 128h512v2176h-512v-2176z" />
    <glyph glyph-name=".notdef" horiz-adv-x="1024" 
d="M128 0v2432h768v-2432h-768zM256 128h512v2176h-512v-2176z" />
    <glyph glyph-name="space" unicode=" " horiz-adv-x="664" 
 />
    <glyph glyph-name="exclam" unicode="!" horiz-adv-x="606" 
d="M463 662c0 -157.333 -53.333 -236 -160 -236s-160 78.667 -160 236v602c0 155.333 53.333 233 160 233s160 -77.667 160 -233v-602zM125 137c0 50 17.167 92.166 51.5 126.499s76.5 51.5 126.5 51.5c49.333 0 91.333 -17.333 126 -52s52 -76.667 52 -126
s-17.333 -91.666 -52 -126.999s-76.667 -53 -126 -53c-50 0 -92.167 17.5 -126.5 52.5s-51.5 77.5 -51.5 127.5z" />
    <glyph glyph-name="quotedbl" unicode="&#x22;" horiz-adv-x="678" 
d="M406 1438h192v-559h-192v559zM80 1438h192v-559h-192v559z" />
    <glyph glyph-name="numbersign" unicode="#" horiz-adv-x="1575" 
d="M709 848l-88 -244h251l86 244h-249zM709 1464h221l-146 -415h242l148 415h221l-148 -415h283l-74 -201h-280l-84 -242h290l-71 -200h-291l-148 -416h-221l148 416h-244l-149 -416h-220l146 416h-287l76 200h282l86 242h-299l74 201h297z" />
    <glyph glyph-name="dollar" unicode="$" horiz-adv-x="1128" 
d="M471 -39c-97.333 9.33301 -183 29 -257 59c-108.667 44 -163 102.333 -163 175c0 46.667 16 83.667 48 111c29.333 25.333 68 38 116 38c23.333 0 75 -12.333 155 -37s146.333 -37 199 -37c45.333 0 84 13.833 116 41.5s48 63.834 48 108.501s-16 81.667 -48 111
c-30 27.333 -98.667 57.333 -206 90c-134 40.667 -230 85 -288 133c-82 67.333 -123 160.666 -123 279.999s38.333 219.666 115 300.999c72 76.667 168 127.334 288 152.001v102c0 74 27.333 111 82 111s82 -37 82 -111v-94c87.333 -6.66699 162 -23.667 224 -51
c89.333 -39.333 134 -94 134 -164c0 -94 -49.667 -141 -149 -141c-29.333 0 -72.5 8.5 -129.5 25.5s-100.5 25.5 -130.5 25.5c-44 0 -80.667 -9.66699 -110 -29c-34.667 -22 -52 -54 -52 -96c0 -58.667 64.667 -108.667 194 -150c150 -48 258.333 -98.333 325 -151
c97.333 -78 146 -182.333 146 -313s-43 -241 -129 -331c-84 -86.667 -191.667 -137.667 -323 -153v-135c0 -75.333 -27.333 -113 -82 -113s-82 37.667 -82 113v129z" />
    <glyph glyph-name="percent" unicode="%" horiz-adv-x="1432" 
d="M346 -35c-33.333 0 -60.8311 11.5 -82.498 34.5s-32.5 51.167 -32.5 84.5c0 34.667 10.333 70 31 106l676 1180c44 76.667 91.667 115 143 115c33.333 0 61.166 -10.833 83.499 -32.5s33.5 -49.167 33.5 -82.5c0 -31.333 -11.667 -67.333 -35 -108l-674 -1180
c-44.667 -78 -92.334 -117 -143.001 -117zM993.002 307c0 -29.333 10.168 -54.666 30.501 -75.999s45.166 -32 74.499 -32s54 10.667 74 32s30 46.666 30 75.999c0 30 -9.83301 55.667 -29.5 77s-44.5 32 -74.5 32s-55 -10.667 -75 -32s-30 -47 -30 -77zM784.003 307
c0 90 30.001 166.833 90.001 230.5s134.667 95.5 224 95.5c88.667 0 163 -32 223 -96s90 -140.667 90 -230s-29.667 -165.333 -89 -228c-60.667 -64.667 -135.334 -97 -224.001 -97c-90 0 -165 32 -225 96c-59.333 62 -89 138.333 -89 229zM229.004 1149
c0 -29.333 10.168 -54.833 30.501 -76.5s45.166 -32.5 74.499 -32.5s54.333 10.833 75 32.5s31 47.167 31 76.5c0 30 -10.167 55.5 -30.5 76.5s-45.5 31.5 -75.5 31.5s-55 -10.5 -75 -31.5s-30 -46.5 -30 -76.5zM20.0049 1149c0 90 30 166.833 90 230.5
s134.667 95.5 224 95.5c88.667 0 163 -32 223 -96s90 -140.667 90 -230s-30 -166 -90 -230s-134.333 -96 -223 -96c-90 0 -164.833 31.667 -224.5 95s-89.5 140.333 -89.5 231z" />
    <glyph glyph-name="ampersand" unicode="&#x26;" horiz-adv-x="1403" 
d="M655 965c108 44 161.999 102.667 161.999 176c0 34.667 -15.333 64.667 -46 90c-29.333 23.333 -61.666 35 -96.999 35s-66 -10.667 -92 -32c-27.333 -23.333 -41 -52.333 -41 -87c0 -52 38 -112.667 114 -182zM818.999 334l-268 307c-120 -55.333 -180 -131 -180 -227
c0 -57.333 18.167 -103.5 54.5 -138.5s83.5 -52.5 141.5 -52.5c84.667 0 168.667 37 252 111zM988.999 121c-118.667 -109.333 -272.335 -164.001 -461.002 -164.001c-136.667 0 -251 40.667 -343 122c-96 84.667 -144 194.334 -144 329.001
c0 189.333 112 338.666 336 447.999c-92.667 99.333 -139 199 -139 299c0 108 44.667 193.667 134 257c78.667 56.667 174.334 85 287.001 85c114.667 0 211.667 -30 291 -90c87.333 -66 131 -154.667 131 -266c0 -149.333 -82.333 -273.666 -247 -372.999l198 -236
c51.333 63.333 86 104 104 122c50.667 50 95.334 75 134.001 75c36 0 65.833 -13.667 89.5 -41s35.5 -59.333 35.5 -96c0 -63.333 -61.667 -152 -185 -266c84.667 -98 127 -170.333 127 -217c0 -40 -13.167 -73.333 -39.5 -100s-59.5 -40 -99.5 -40
c-53.333 0 -123 50.667 -209 152z" />
    <glyph glyph-name="quotesingle" unicode="'" horiz-adv-x="352" 
d="M80 1438h192v-559h-192v559z" />
    <glyph glyph-name="parenleft" unicode="(" horiz-adv-x="664" 
d="M422 666c0 -171.333 24.5 -343.335 73.5 -516.002s73.5 -261.667 73.5 -267c0 -84.667 -42.333 -127 -127 -127c-31.333 0 -60 11.667 -86 35c-36.667 34 -73.667 108 -111 222c-27.333 82.667 -48.666 165.667 -63.999 249c-25.333 132 -38 266.667 -38 404
c0 126 11 250.667 33 374c15.333 85.333 36.666 172 63.999 260c37.333 117.333 74.333 195 111 233c26.667 28 57 42 91 42c84.667 0 127 -42.333 127 -127c0 -5.33301 -24.5 -94.666 -73.5 -267.999s-73.5 -344.666 -73.5 -513.999z" />
    <glyph glyph-name="parenright" unicode=")" horiz-adv-x="664" 
d="M242 666c0 170 -24.668 341.5 -74.001 514.5s-74 262.167 -74 267.5c0 84.667 42.333 127 127 127c32 0 61 -11.667 87 -35c69.333 -63.333 127.666 -219.666 174.999 -468.999c24.667 -133.333 37 -268.333 37 -405c0 -124.667 -11 -248.334 -33 -371.001
c-15.333 -84.667 -36.666 -172 -63.999 -262c-37.333 -118.667 -73.666 -196.667 -108.999 -234c-28 -28.667 -59 -43 -93 -43c-84.667 0 -127 42.333 -127 127c0 6.66699 24.667 96.667 74 270s74 344.333 74 513z" />
    <glyph glyph-name="asterisk" unicode="*" horiz-adv-x="1024" 
d="M432 968l-82.998 -66c-36.667 -26.667 -68.334 -40 -95.001 -40c-26 0 -48.167 10.5 -66.5 31.5s-27.5 44.833 -27.5 71.5c0 48 64.667 95 194 141c-129.333 45.333 -194 92.333 -194 141c0 26.667 9.16699 50.5 27.5 71.5s40.5 31.5 66.5 31.5
c25.333 0 56.666 -13 93.999 -39l84 -65c-0.666992 8 -4.66699 31.333 -12 70c-5.33301 28.667 -8 52 -8 70c0 74 33.333 111 100 111c68 0 102 -36 102 -108c0 -18.667 -3 -42.667 -9 -72c-7.33301 -38 -11.666 -61.667 -12.999 -71l83 65c37.333 26 69 39 95 39
s48.167 -10.5 66.5 -31.5s27.5 -44.833 27.5 -71.5c0 -38 -24 -70 -72 -96c-17.333 -9.33301 -58 -24.333 -122 -45c64 -21.333 104.667 -36.666 122 -45.999c48 -25.333 72 -57 72 -95c0 -26.667 -9.16699 -50.5 -27.5 -71.5s-40.5 -31.5 -66.5 -31.5
c-24.667 0 -56 13.333 -94 40l-84 66c1.33301 -8.66699 5.66602 -32.334 12.999 -71.001c6 -29.333 9 -53.333 9 -72c0 -73.333 -34 -110 -102 -110c-66.667 0 -100 36.667 -100 110c0 18.667 2.66699 42.667 8 72c7.33301 40 11.333 63.667 12 71z" />
    <glyph glyph-name="plus" unicode="+" horiz-adv-x="1706" 
d="M752 1221h202v-510h498v-199h-498v-512h-202v512h-498v199h498v510z" />
    <glyph glyph-name="comma" unicode="," horiz-adv-x="473" 
d="M63 -307c-36.667 0 -68.332 12.332 -94.999 36.999s-40 55.334 -40 92.001c0 28 11 62 33 102l162 295c41.333 75.333 89 113 143 113c37.333 0 69.166 -12 95.499 -36s39.5 -54.333 39.5 -91c0 -31.333 -10.667 -66.333 -32 -105l-162 -295
c-41.333 -74.667 -89.333 -112 -144 -112z" />
    <glyph glyph-name="hyphen" unicode="-" horiz-adv-x="877" 
d="M229 428c-106 0 -159 47 -159 141c0 93.333 53.667 140 161 140h416c106.667 0 160 -47.333 160 -142c0 -92.667 -54 -139 -162 -139h-416z" />
    <glyph glyph-name="hyphen" unicode="&#x2010;" horiz-adv-x="877" 
d="M229 428c-106 0 -159 47 -159 141c0 93.333 53.667 140 161 140h416c106.667 0 160 -47.333 160 -142c0 -92.667 -54 -139 -162 -139h-416z" />
    <glyph glyph-name="period" unicode="." horiz-adv-x="473" 
d="M51 172c0 52 18.167 95.998 54.5 131.998s80.5 54 132.5 54c51.333 0 94.833 -18.167 130.5 -54.5s53.5 -80.166 53.5 -131.499c0 -52 -17.667 -96 -53 -132s-79 -54 -131 -54c-52.667 0 -97 17.833 -133 53.5s-54 79.834 -54 132.501z" />
    <glyph glyph-name="slash" unicode="/" horiz-adv-x="758" 
d="M43 -47c-37.333 0 -69.166 12.3301 -95.499 36.9971s-39.5 55.334 -39.5 92.001c0 28.667 9.66699 61.334 29 98.001l636 1202c42 79.333 90 119 144 119c37.333 0 69.166 -12 95.499 -36s39.5 -54.333 39.5 -91c0 -27.333 -10.333 -60.666 -31 -99.999l-635 -1202
c-42 -79.333 -89.667 -119 -143 -119z" />
    <glyph glyph-name="zero" unicode="0" horiz-adv-x="1327" 
d="M666 1192c-98 0 -169.668 -56.333 -215.001 -169c-32 -80.667 -48 -178.667 -48 -294c0 -116 16 -214.333 48 -295c45.333 -113.333 117 -170 215 -170s169.333 56.667 214 170c32 80.667 48 179 48 295c0 114.667 -16 212.667 -48 294
c-45.333 112.667 -116.666 169 -213.999 169zM56.999 727c0 214 46.333 390 139 528c108 161.333 264 242 468 242s360.333 -80.333 469 -241c92.667 -138.667 139 -315 139 -529s-46.333 -390.333 -139 -529c-108.667 -160.667 -265 -241 -469 -241s-360 80.667 -468 242
c-92.667 138 -139 314 -139 528z" />
    <glyph glyph-name="one" unicode="1" horiz-adv-x="735" 
d="M563 221c0 -156.667 -56 -235.001 -168 -235.001s-168 78.333 -168 235v928c-169.333 0 -254 51.333 -254 154c0 102 78.667 153 236 153h166c72.667 0 123.667 -22 153 -66c23.333 -35.333 35 -91.666 35 -168.999v-1000z" />
    <glyph glyph-name="two" unicode="2" horiz-adv-x="1071" 
d="M1030 154c0 -102.667 -78.333 -153.999 -235 -153.999h-588c-132.667 0 -199 51.333 -199 154c0 41.333 54.667 124 164 248l305 344c109.333 134.667 164 235.667 164 303c0 38.667 -11.333 71.5 -34 98.5s-53 40.5 -91 40.5c-32.667 0 -62.667 -12.667 -90 -38
c-22.667 -20.667 -44.667 -57.334 -66 -110.001c-24 -60 -42.667 -98.667 -56 -116c-26.667 -36 -62.334 -54 -107.001 -54c-50 0 -89.833 15.833 -119.5 47.5s-44.5 72.5 -44.5 122.5c0 40.667 9.33301 86.334 28 137.001c36.667 97.333 97.167 175 181.5 233
s178.833 87 283.5 87c133.333 0 243.333 -38.333 330 -115c91.333 -80 137 -185.667 137 -317c0 -94.667 -32.667 -193.834 -98 -297.501s-200.666 -257.167 -405.999 -460.5h306c156.667 0 235 -51 235 -153z" />
    <glyph glyph-name="three" unicode="3" horiz-adv-x="1110" 
d="M788 801c161.333 -84 242.001 -208.335 242.001 -373.002c0 -140.667 -52.333 -255.667 -157 -345c-98.667 -84 -219.667 -126 -363 -126c-60 0 -117.333 9.33301 -172 28c-81.333 28 -155.666 76 -222.999 144c-76.667 77.333 -115 154.333 -115 231
c0 46 13.667 83.833 41 113.5s63.666 44.5 108.999 44.5c53.333 0 107 -37.333 161 -112c67.333 -93.333 135 -140 203 -140c51.333 0 93.666 18.667 126.999 56c32.667 35.333 49 79 49 131c0 59.333 -21.667 102.333 -65 129c-27.333 16.667 -76 31 -146 43
c-49.333 8.66699 -84 22.667 -104 42c-23.333 22 -35 57 -35 105c0 50.667 15.333 87.334 46 110.001c16 10.667 50.333 23.334 103 38.001c48.667 14 83.667 31.667 105 53c24.667 24.667 37 56 37 94c0 83.333 -39.667 125 -119 125c-42 0 -96.5 -30.333 -163.5 -91
s-121.833 -91 -164.5 -91c-38 0 -70.333 13.667 -97 41s-40 60 -40 98c0 86 48 165.5 144 238.5s205 109.5 327 109.5c120 0 221.667 -35.667 305 -107c87.333 -75.333 131 -172 131 -290c0 -119.333 -55.333 -219 -166 -299z" />
    <glyph glyph-name="four" unicode="4" horiz-adv-x="1276" 
d="M379 606h342v557zM1024 313c0 -10.667 0.333008 -27.832 1 -51.499s1 -41.834 1 -54.501c0 -69.333 -9 -121 -27 -155c-25.333 -46.667 -71 -70 -137 -70c-94 0 -141 62.667 -141 188v143h-514c-134 0 -201 43 -201 129c0 45.333 26 109 78 191l434 686
c66.667 105.333 148.667 158 246 158c90 0 157.667 -35 203 -105c38 -58.667 57 -135.667 57 -231v-535h49c50 0 91 -10.333 123 -31c38 -24.667 57 -60.667 57 -108c0 -64 -24 -107.333 -72 -130c-32.667 -16 -85 -24 -157 -24z" />
    <glyph glyph-name="five" unicode="5" horiz-adv-x="1053" 
d="M412 975c50.667 12 97.665 18 140.998 18c131.333 0 238.333 -48.333 321 -145c78 -91.333 117 -204 117 -338c0 -161.333 -51.5 -293.833 -154.5 -397.5s-235.167 -155.5 -396.5 -155.5c-126 0 -235 29.5 -327 88.5s-138 126.5 -138 202.5
c0 41.333 12.833 76.166 38.5 104.499s58.834 42.5 99.501 42.5c24.667 0 72.834 -20.833 144.501 -62.5s131.167 -62.5 178.5 -62.5c59.333 0 108.666 22 147.999 66s59 96 59 156s-15.333 108.333 -46 145c-32.667 39.333 -78.667 59 -138 59
c-28 0 -68.833 -8.5 -122.5 -25.5s-94.167 -25.5 -121.5 -25.5c-86 0 -129 47.667 -129 143c0 21.333 3.33301 59 10 113l47 379c8.66699 70.667 29.334 118.334 62.001 143.001c29.333 22 81 33 155 33h404c142 0 213 -51 213 -153c0 -101.333 -67 -152 -201 -152h-342z
" />
    <glyph glyph-name="six" unicode="6" horiz-adv-x="1147" 
d="M383 467c0 -54 18 -101.333 54 -142s80.667 -61 134 -61c54 0 99.333 20.667 136 62c35.333 39.333 53 86.333 53 141c0 54 -18 101 -54 141s-81 60 -135 60c-53.333 0 -98 -20 -134 -60s-54 -87 -54 -141zM570 930c54.667 6.66699 93.335 9.99805 116.002 9.99805
c122.667 0 224 -48.333 304 -145c74.667 -90.667 112 -198.667 112 -324c0 -149.333 -54 -273 -162 -371c-104.667 -95.333 -232.334 -143 -383.001 -143c-151.333 0 -275 50 -371 150c-94 98 -141 223.333 -141 376c0 104 28.667 218.667 86 344
c56 123.333 140.667 255.333 254 396c149.333 185.333 258.666 278 327.999 278c42 0 79 -15.167 111 -45.5s48 -66.166 48 -107.499c0 -39.333 -39.667 -103.666 -119 -192.999c-83.333 -93.333 -144.333 -168.333 -183 -225z" />
    <glyph glyph-name="seven" unicode="7" horiz-adv-x="963" 
d="M180 539c-106 0 -159 47.002 -159 141.002c0 93.333 53.667 140 161 140h229l160 331h-376c-70 0 -121 7.33301 -153 22c-47.333 22 -71 63.667 -71 125c0 105.333 66.333 158 199 158h545c160.667 0 241 -60.667 241 -182c0 -34.667 -11.333 -76.334 -34 -125.001
l-153 -329c96 -6.66699 144 -54 144 -142c0 -92.667 -54 -139 -162 -139h-112l-197 -426c-48 -104 -106 -156 -174 -156c-48 0 -88.667 15.167 -122 45.5s-50 69.166 -50 116.499c0 34.667 15 83 45 145l133 275h-94z" />
    <glyph glyph-name="eight" unicode="8" horiz-adv-x="1118" 
d="M408 1057c0 -40.667 15 -76.5 45 -107.5s65.333 -46.5 106 -46.5c42.667 0 78.667 15 108 45s44 66.333 44 109s-14.667 79.167 -44 109.5s-65.333 45.5 -108 45.5c-41.333 0 -76.833 -15.333 -106.5 -46s-44.5 -67 -44.5 -109zM362 463
c0 -56.667 18.833 -105.667 56.5 -147s84.5 -62 140.5 -62c56.667 0 104 21 142 63c36.667 40 55 88.667 55 146s-18.667 106.833 -56 148.5s-84.333 62.5 -141 62.5c-56 0 -102.833 -21 -140.5 -63s-56.5 -91.333 -56.5 -148zM225 797
c-88.667 78 -133.002 174.668 -133.002 290.001c0 124 48 224.667 144 302c88.667 72 196.334 108 323.001 108s234.334 -36 323.001 -108c96 -77.333 144 -178 144 -302c0 -115.333 -44.333 -212 -133 -290c129.333 -84.667 194 -206.334 194 -365.001
c0 -143.333 -53 -259.666 -159 -348.999c-100.667 -84 -223.667 -126 -369 -126s-268.333 42 -369 126c-106 89.333 -159 205.666 -159 348.999c0 160 64.667 281.667 194 365z" />
    <glyph glyph-name="nine" unicode="9" horiz-adv-x="1147" 
d="M578 528c-55.333 -6.66699 -90.999 -10.002 -106.999 -10.002c-124.667 0 -227.667 46.333 -309 139c-78 88 -117 195.333 -117 322c0 151.333 53.333 276.333 160 375c104 96.667 232.333 145 385 145c152 0 275 -49.167 369 -147.5s141 -223.833 141 -376.5
c0 -104.667 -28.667 -219.667 -86 -345s-142 -257.666 -254 -396.999c-149.333 -185.333 -258 -278 -326 -278c-42 0 -79.167 15.5 -111.5 46.5s-48.5 67.5 -48.5 109.5c0 38.667 40 103 120 193c83.333 92.667 144.666 167.334 183.999 224.001zM764.001 990.998
c0 54.667 -18 101.833 -54 141.5s-81 59.5 -135 59.5c-53.333 0 -98 -20 -134 -60s-54 -87 -54 -141c0 -54.667 17.833 -101.667 53.5 -141s80.5 -59 134.5 -59s99 19.833 135 59.5s54 86.5 54 140.5z" />
    <glyph glyph-name="colon" unicode=":" horiz-adv-x="473" 
d="M51 793c0 51.333 18.167 94.833 54.5 130.5s80.5 53.5 132.5 53.5c51.333 0 94.833 -17.833 130.5 -53.5s53.5 -79.167 53.5 -130.5c0 -52 -17.667 -96.167 -53 -132.5s-79 -54.5 -131 -54.5c-52.667 0 -97 18 -133 54s-54 80.333 -54 133zM51 172
c0 52 18.167 95.998 54.5 131.998s80.5 54 132.5 54c51.333 0 94.833 -18.167 130.5 -54.5s53.5 -80.166 53.5 -131.499c0 -52 -17.667 -96 -53 -132s-79 -54 -131 -54c-52.667 0 -97 17.833 -133 53.5s-54 79.834 -54 132.501z" />
    <glyph glyph-name="semicolon" unicode=";" horiz-adv-x="473" 
d="M63 -307c-36.667 0 -68.332 12.332 -94.999 36.999s-40 55.334 -40 92.001c0 28 11 62 33 102l162 295c41.333 75.333 89 113 143 113c37.333 0 69.166 -12 95.499 -36s39.5 -54.333 39.5 -91c0 -31.333 -10.667 -66.333 -32 -105l-162 -295
c-41.333 -74.667 -89.333 -112 -144 -112zM51.002 792.999c0 51.333 18.167 94.833 54.5 130.5s80.5 53.5 132.5 53.5c51.333 0 94.833 -17.833 130.5 -53.5s53.5 -79.167 53.5 -130.5c0 -52 -17.667 -96.167 -53 -132.5s-79 -54.5 -131 -54.5c-52.667 0 -97 18 -133 54
s-54 80.333 -54 133z" />
    <glyph glyph-name="less" unicode="&#x3c;" horiz-adv-x="1706" 
d="M1442 1194v-219l-893 -365l893 -364v-219l-1178 485v199z" />
    <glyph glyph-name="equal" unicode="=" horiz-adv-x="1706" 
d="M254 496h1198v-199h-1198v199zM254 926h1198v-199h-1198v199z" />
    <glyph glyph-name="greater" unicode="&#x3e;" horiz-adv-x="1706" 
d="M264 1194l1178 -483v-199l-1178 -485v219l895 364l-895 365v219z" />
    <glyph glyph-name="question" unicode="?" horiz-adv-x="1042" 
d="M315 584l0.000976562 129.002c0 38 5.33301 66.667 16 86c14 25.333 49 45.666 105 60.999c71.333 19.333 117 35.666 137 48.999c45.333 29.333 68 76 68 140c0 38 -14.167 70 -42.5 96s-61.833 39 -100.5 39c-64 0 -129.5 -34.833 -196.5 -104.5
s-119.833 -104.5 -158.5 -104.5c-40.667 0 -73.334 15 -98.001 45c-23.333 28 -35 62.667 -35 104c0 93.333 48.333 177.833 145 253.5s211 113.5 343 113.5c136.667 0 251.667 -41.667 345 -125c97.333 -86.667 146 -197.334 146 -332.001
c0 -111.333 -32.167 -205.666 -96.5 -282.999s-151.5 -126.333 -261.5 -147c0 -138 -53.333 -207 -160 -207c-104 0 -156 62.333 -156 187zM293.001 137.002c0 50 17.332 92.166 51.999 126.499s77.334 51.5 128.001 51.5c49.333 0 91.333 -17.333 126 -52
s52 -76.667 52 -126s-17.333 -91.666 -52 -126.999s-76.667 -53 -126 -53c-50 0 -92.5 17.5 -127.5 52.5s-52.5 77.5 -52.5 127.5z" />
    <glyph glyph-name="at" unicode="@" horiz-adv-x="2048" 
d="M1167 272c-71.333 -108.667 -170.334 -163.001 -297.001 -163.001c-215.333 0 -323 113.333 -323 340c0 150 42.333 279 127 387c91.333 117.333 210 176 356 176c106.667 0 185.334 -43.667 236.001 -131l53 98h178l-147 -598c-4.66699 -18.667 -7 -32.334 -7 -41.001
c0 -46.667 31.667 -70 95 -70c52.667 0 106.334 25.333 161.001 76c116.667 108.667 175 249.334 175 422.001c0 174 -69 311.667 -207 413c-124 90.667 -276.333 136 -457 136c-94 0 -181.333 -11.333 -262 -34c-172 -48 -310.667 -142.167 -416 -282.5
s-158 -299.833 -158 -478.5c0 -215.333 74.333 -383.666 223 -504.999c138 -112.667 317 -169 537 -169c220.667 0 422 63.667 604 191l82 -117c-204.667 -154 -432 -231 -682 -231c-266.667 0 -487.667 70 -663 210c-190 152 -285 358.333 -285 619
c0 190 50.5 362.667 151.5 518s238.167 272 411.5 350c138.667 62 293 93 463 93c232.667 0 427.667 -60 585 -180c172.667 -132.667 259 -311.667 259 -537c0 -110 -21.667 -211.333 -65 -304c-49.333 -104.667 -118.333 -188.667 -207 -252c-94 -68 -196 -102 -306 -102
c-140.667 0 -212.334 55.333 -215.001 166zM1217 699.999c-18 110.667 -76.335 166 -175.002 166c-75.333 0 -141.166 -41.167 -197.499 -123.5s-84.5 -181.833 -84.5 -298.5c0 -125.333 52.667 -188 158 -188c55.333 0 105.833 20.833 151.5 62.5s76.834 96.5 93.501 164.5
z" />
    <glyph glyph-name="A" unicode="A" horiz-adv-x="1280" 
d="M367 274l-50 -147.001c-34 -100 -87 -150 -159 -150c-46 0 -83.833 15.167 -113.5 45.5s-44.5 68.5 -44.5 114.5c-0 35.333 5.33301 67.333 16 96l379 1029c52.667 143.333 137.334 215 254.001 215c117.333 0 198.666 -64.333 243.999 -193l369 -1046
c14.667 -41.333 22 -76.333 22 -105c0 -47.333 -15.5 -85.166 -46.5 -113.499s-70.167 -42.5 -117.5 -42.5c-83.333 0 -141.333 54 -174 162l-41 135h-538zM461 579.999h348l-168 540z" />
    <glyph glyph-name="B" unicode="B" horiz-adv-x="1262" 
d="M461 889h139c46 0 84.333 11.667 115 35c32.667 26 49 61.333 49 106c0 46.667 -16.667 83 -50 109c-30.667 23.333 -70 35 -118 35h-135v-285zM461 285h166c150 0 225 54.667 225 164c0 108.667 -77 163 -231 163h-160v-327zM354 0c-83.333 0 -141 13.668 -173 41.001
c-34.667 30 -52 86 -52 168v1014c0 86 16.667 146.333 50 181s93 52 179 52h273c130.667 0 235.667 -27 315 -81c92.667 -62.667 139 -156.334 139 -281.001c0 -139.333 -60 -235 -180 -287c196.667 -48 295 -171 295 -369c0 -147.333 -51 -259.333 -153 -336
c-91.333 -68 -213 -102 -365 -102h-328z" />
    <glyph glyph-name="C" unicode="C" 
d="M770 -43c-221.333 0 -396.999 73.6631 -526.999 220.996c-124 141.333 -186 324.333 -186 549c0 218.667 64.333 400.334 193 545.001c133.333 150 308 225 524 225c124 0 227.667 -23.5 311 -70.5s125 -101.167 125 -162.5c0 -39.333 -13.667 -74.166 -41 -104.499
s-60.666 -45.5 -99.999 -45.5c-24 0 -69.5 9.5 -136.5 28.5s-119.167 28.5 -156.5 28.5c-119.333 0 -211 -47.333 -275 -142c-55.333 -81.333 -83 -184.666 -83 -309.999s29.333 -227.666 88 -306.999c65.333 -88.667 158.666 -133 279.999 -133c50 0 109.333 12.5 178 37.5
s112.667 37.5 132 37.5c36 0 67.167 -15 93.5 -45s39.5 -63.333 39.5 -100c0 -68 -43.833 -127 -131.5 -177s-196.834 -75 -327.501 -75z" />
    <glyph glyph-name="D" unicode="D" horiz-adv-x="1427" 
d="M461 307h151c264 0 396 146 396 438c0 268 -134 402 -402 402h-145v-840zM625 1456c91.333 0 173.333 -8.33301 246 -25c155.333 -36.667 278.333 -121 369 -253c85.333 -124.667 128 -269.667 128 -435c0 -226 -61.667 -405.333 -185 -538
c-126.667 -136.667 -302 -205 -526 -205h-303c-83.333 0 -141 13.667 -173 41c-34.667 30 -52 86 -52 168v1014c0 86 16.667 146.333 50 181s93 52 179 52h267z" />
    <glyph glyph-name="E" unicode="E" horiz-adv-x="1034" 
d="M731 1456c157.333 0 236 -52 236 -156c0 -102 -78.667 -153 -236 -153h-270v-260h233c157.333 0 236 -51.333 236 -154c0 -102 -78.667 -153 -236 -153h-233v-273h280c157.333 0 236 -51 236 -153c0 -102.667 -78.667 -154 -236 -154h-387c-83.333 0 -141 13.667 -173 41
c-34.667 30 -52 86 -52 168v1014c0 86.667 16.667 147.167 50 181.5s93 51.5 179 51.5h373z" />
    <glyph glyph-name="F" unicode="F" horiz-adv-x="999" 
d="M731 1456c157.333 0 236 -52 236 -156c0 -102 -78.667 -153 -236 -153h-270v-260h233c157.333 0 236 -51.333 236 -154c0 -102 -78.667 -153 -236 -153h-233v-363c0 -156.667 -55.333 -235 -166 -235s-166 78.333 -166 235v1006c0 86.667 16.667 147.167 50 181.5
s93 51.5 179 51.5h373z" />
    <glyph glyph-name="G" unicode="G" horiz-adv-x="1479" 
d="M1075 567c-8.66699 0 -23.999 -0.332031 -45.999 -0.999023h-51c-168.667 0 -253 51.667 -253 155c0 104 77.667 156 233 156h244c80.667 0 139.5 -17 176.5 -51s55.5 -91 55.5 -171c0 -206.667 -61.333 -374 -184 -502c-125.333 -130.667 -290.666 -196 -495.999 -196
c-214.667 0 -386.334 76.333 -515.001 229c-121.333 143.333 -182 324.333 -182 543c0 231.333 64.333 416.666 193 555.999c132 142.667 313 214 543 214c150 0 276.833 -30.833 380.5 -92.5s155.5 -131.834 155.5 -210.501c0 -40 -13.667 -76 -41 -108
s-60.666 -48 -99.999 -48c-18 0 -73.333 23.667 -166 71s-172.667 71 -240 71c-122.667 0 -216.334 -45.333 -281.001 -136c-56.667 -80 -85 -183.667 -85 -311s28 -232.666 84 -315.999c65.333 -96.667 158.666 -145 279.999 -145c88.667 0 159.5 26.5 212.5 79.5
s80.5 124.167 82.5 213.5z" />
    <glyph glyph-name="H" unicode="H" horiz-adv-x="1532" 
d="M461 588v-371c0 -156.667 -55.333 -235 -166 -235s-166 78.333 -166 235v1022c0 157.333 55.333 236 166 236s166 -78.667 166 -236v-344h610v344c0 157.333 55.333 236 166 236s166 -78.667 166 -236v-1022c0 -156.667 -55.333 -235 -166 -235s-166 78.333 -166 235v371
h-610z" />
    <glyph glyph-name="I" unicode="I" horiz-adv-x="606" 
d="M469 217c0 -156.667 -55.333 -235 -166 -235s-166 78.333 -166 235v1022c0 157.333 55.333 236 166 236s166 -78.667 166 -236v-1022z" />
    <glyph glyph-name="J" unicode="J" horiz-adv-x="918" 
d="M625 1475c110.667 0 166.002 -78.666 166.002 -235.999v-795c0 -322 -142 -483 -426 -483c-89.333 0 -170.333 17.667 -243 53c-90.667 44.667 -136 107 -136 187c0 45.333 14.167 82.166 42.5 110.499s65.166 42.5 110.499 42.5c26.667 0 63.667 -12.167 111 -36.5
s80.666 -36.5 99.999 -36.5c50 0 82.667 35.333 98 106c7.33301 32 11 86.667 11 164v688c0 157.333 55.333 236 166 236z" />
    <glyph glyph-name="K" unicode="K" horiz-adv-x="1262" 
d="M1055 1470c40.667 0 75.6689 -14.998 105.002 -44.998s44 -65.333 44 -106c0 -50.667 -28 -105.334 -84 -164.001l-358 -373l444 -483c56 -60.667 84 -115.334 84 -164.001c0 -40 -15.333 -75.5 -46 -106.5s-66.334 -46.5 -107.001 -46.5c-49.333 0 -109 38.667 -179 116
l-497 549v-430c0 -156.667 -55.333 -235 -166 -235s-166 78.333 -166 235v1022c0 157.333 55.333 236 166 236s166 -78.667 166 -236v-360l422 477c67.333 76 124.666 114 171.999 114z" />
    <glyph glyph-name="L" unicode="L" horiz-adv-x="944" 
d="M129 1239c0 157.333 55.333 236 166 236s166 -78.667 166 -236v-932h280c157.333 0 236 -51 236 -153c0 -102.667 -78.667 -154 -236 -154h-387c-83.333 0 -141 13.667 -173 41c-34.667 30 -52 86 -52 168v1030z" />
    <glyph glyph-name="M" unicode="M" horiz-adv-x="1767" 
d="M446 1475c121.333 0 198.666 -65.6641 231.999 -196.997l221 -870l207 872c30.667 130 106.334 195 227.001 195c74 0 130 -22.333 168 -67c31.333 -36.667 53.333 -94.334 66 -173.001l162 -1002c5.33301 -32.667 8 -59 8 -79c0 -52.667 -15 -94.834 -45 -126.501
s-71 -47.5 -123 -47.5c-94 0 -148.667 64.667 -164 194l-105 870c-66 -284.667 -106.333 -456 -121 -514c-69.333 -282 -119 -445.667 -149 -491c-26 -39.333 -72.333 -59 -139 -59c-103.333 0 -168.333 55.667 -195 167l-215 897l-114 -849
c-19.333 -143.333 -77.333 -215 -174 -215c-50.667 0 -90.667 16.667 -120 50c-28 31.333 -42 72.666 -42 123.999c0 22 4 55.333 12 100l178 993c13.333 74.667 35 129.667 65 165c36 42 89.333 63 160 63z" />
    <glyph glyph-name="N" unicode="N" horiz-adv-x="1532" 
d="M295 -18c-110.667 0 -166.001 78.333 -166.001 235v1034c0 148 51.333 222 154 222c63.333 0 122 -35.667 176 -107l612 -809v682c0 157.333 55.333 236 166 236s166 -78.667 166 -236v-1059c0 -138 -50.667 -207 -152 -207c-65.333 0 -128.666 40.333 -189.999 121
l-600 793v-670c0 -156.667 -55.333 -235 -166 -235z" />
    <glyph glyph-name="O" unicode="O" horiz-adv-x="1546" 
d="M418 723c0 -123.333 27.333 -225.666 82 -306.999c64 -94.667 154.667 -142 272 -142s208 47.333 272 142c54.667 81.333 82 183.666 82 306.999c0 126 -26.667 230.333 -80 313c-62.667 97.333 -154 146 -274 146s-211.333 -48.667 -274 -146
c-53.333 -82.667 -80 -187 -80 -313zM57 727c0 224 62.334 406.667 187.001 548c131.333 148 307.333 222 528 222c221.333 0 397.666 -74 528.999 -222c125.333 -141.333 188 -324 188 -548c0 -224.667 -62.667 -407.667 -188 -549c-130.667 -147.333 -307 -221 -529 -221
s-398 73.667 -528 221c-124.667 141.333 -187 324.333 -187 549z" />
    <glyph glyph-name="P" unicode="P" horiz-adv-x="1241" 
d="M295 -18c-110.667 0 -166 78.333 -166 235v1006c0 86.667 16.667 147.167 50 181.5s93 51.5 179 51.5h299c159.333 0 287 -42 383 -126c100 -88.667 150 -211.667 150 -369c0 -156.667 -45 -278.167 -135 -364.5s-213.667 -129.5 -371 -129.5h-223v-250
c0 -156.667 -55.333 -235 -166 -235zM461 768h143c151.333 0 227 64.333 227 193c0 126.667 -75.667 190 -227 190h-143v-383z" />
    <glyph glyph-name="Q" unicode="Q" horiz-adv-x="1546" 
d="M883 295c-61.333 53.333 -92 103.667 -92 151c0 38 11.833 70.167 35.5 96.5s54.167 39.5 91.5 39.5c44 0 99 -32.333 165 -97c28.667 76.667 43 156 43 238c0 126 -26.667 230.333 -80 313c-62.667 97.333 -154 146 -274 146s-211.333 -48.667 -274 -146
c-53.333 -82.667 -80 -187 -80 -313c0 -124.667 27.667 -227.667 83 -309c64 -93.333 155.667 -140 275 -140c36 0 71.667 7 107 21zM1133 47.001c-98 -60 -218.33 -90.001 -360.997 -90.001c-222 0 -398 73.667 -528 221c-124.667 141.333 -187 324.333 -187 549
c0 223.333 62.333 406 187 548c131.333 148 307.333 222 528 222c221.333 0 397.666 -74 528.999 -222c125.333 -141.333 188 -324 188 -548c0 -173.333 -44.333 -329.666 -133 -468.999c73.333 -67.333 110.666 -102 111.999 -104c41.333 -45.333 62 -90 62 -134
c0 -38.667 -13.833 -72.167 -41.5 -100.5s-60.834 -42.5 -99.501 -42.5c-42 0 -88.667 20.667 -140 62z" />
    <glyph glyph-name="R" unicode="R" horiz-adv-x="1223" 
d="M461 575l-0.00195312 -358c0 -156.667 -55.333 -235 -166 -235s-166 78.333 -166 235v1006c0 86.667 16.667 147.167 50 181.5s93 51.5 179 51.5h258c158.667 0 287.334 -35.333 386.001 -106c112.667 -80.667 169 -197 169 -349c0 -106.667 -32 -194.667 -96 -264
c-61.333 -68 -145.333 -111 -252 -129l262 -291c66 -73.333 99 -136.666 99 -189.999c0 -44.667 -15.167 -81.834 -45.5 -111.501s-67.833 -44.5 -112.5 -44.5c-55.333 0 -114.666 39.667 -177.999 119zM460.998 797h153c140.667 0 211 60 211 180c0 116 -69 174 -207 174
h-157v-354z" />
    <glyph glyph-name="S" unicode="S" horiz-adv-x="1128" 
d="M1087 451c0 -155.333 -56.668 -277.668 -170.001 -367.001c-104 -82 -235.667 -123 -395 -123c-131.333 0 -242.666 23.5 -333.999 70.5s-137 101.5 -137 163.5c0 47.333 16 84.333 48 111c29.333 25.333 68 38 116 38c23.333 0 75 -12.333 155 -37s146.333 -37 199 -37
c45.333 0 84 13.833 116 41.5s48 63.834 48 108.501s-16 81.667 -48 111c-29.333 27.333 -98 57.333 -206 90c-134 40.667 -230 85 -288 133c-82 67.333 -123 160.666 -123 279.999c0 144 53 258.667 159 344c98 78 221 117 369 117c90 0 172 -14.333 246 -43
c100.667 -39.333 151 -96.666 151 -171.999c0 -94 -49.667 -141 -149 -141c-29.333 0 -72.5 8.5 -129.5 25.5s-100.5 25.5 -130.5 25.5c-44 0 -80.667 -9.66699 -110 -29c-34.667 -22 -52 -54 -52 -96c0 -58.667 64.667 -108.667 194 -150c150 -48 258.333 -98.333 325 -151
c97.333 -78 146 -182.333 146 -313z" />
    <glyph glyph-name="T" unicode="T" horiz-adv-x="967" 
d="M317 1147c-8.66699 0 -23.999 -0.333008 -45.999 -1s-39.333 -1 -52 -1c-173.333 0 -260 51.667 -260 155c0 104 78.667 156 236 156h577c157.333 0 236 -52 236 -156c0 -103.333 -87 -155 -261 -155c-13.333 0 -30.833 0.333008 -52.5 1s-36.834 1 -45.501 1v-930
c0 -156.667 -55.333 -235 -166 -235s-166 78.333 -166 235v930z" />
    <glyph glyph-name="U" unicode="U" horiz-adv-x="1507" 
d="M129 625l-0.000976562 614.001c0 157.333 55.333 236 166 236s166 -78.667 166 -236v-577c0 -258.667 97.667 -388 293 -388s293 129.333 293 388v577c0 157.333 55 236 165 236c110.667 0 166 -78.667 166 -236v-614c0 -205.333 -52 -366.333 -156 -483
c-109.333 -123.333 -265.333 -185 -468 -185c-203.333 0 -359.666 61.333 -468.999 184c-104 117.333 -156 278.666 -156 483.999z" />
    <glyph glyph-name="V" unicode="V" horiz-adv-x="1180" 
d="M-27 1305c0 48.667 16.5 88.333 49.5 119s73.833 46 122.5 46c66 0 116.667 -47.667 152 -143l307 -827l285 815c18 51.333 36.333 87.666 55 108.999c26.667 30.667 63 46 109 46c107.333 0 161 -51 161 -153c0 -39.333 -7.33301 -77.666 -22 -114.999l-430 -1093
c-36 -92 -92 -138 -168 -138c-72 0 -124.667 41.667 -158 125l-444 1114c-12.667 32 -19 63.667 -19 95z" />
    <glyph glyph-name="W" unicode="W" horiz-adv-x="1872" 
d="M487 -18c-68.667 0 -121.332 20.335 -157.999 61.002c-29.333 32.667 -52.333 85.334 -69 158.001l-242 1053c-2.66699 11.333 -4 35.666 -4 72.999c0 47.333 16.333 84.666 49 111.999c31.333 25.333 71 38 119 38c88.667 0 142 -48.667 160 -146l174 -925l242 929
c24 93.333 85.333 140 184 140c95.333 0 155.333 -48 180 -144l238 -925l174 903c21.333 110.667 77.333 166 168 166c46.667 0 85.667 -14.167 117 -42.5s47 -65.5 47 -111.5c0 -30.667 -4.33301 -63.334 -13 -98.001l-254 -1022c-19.333 -78.667 -42 -132.667 -68 -162
c-34 -38 -87.667 -57 -161 -57c-114.667 0 -188.334 62 -221.001 186l-217 831l-205 -813c-34 -136 -114 -204 -240 -204z" />
    <glyph glyph-name="X" unicode="X" horiz-adv-x="1186" 
d="M121 -18c-38 0 -72.5 14.667 -103.5 44s-46.5 63 -46.5 101c0 43.333 24.667 99.333 74 168l354 493l-266 373c-49.333 69.333 -74 124 -74 164c0 44.667 15.667 80.834 47 108.501s69.666 41.5 114.999 41.5c52.667 0 109.334 -42.333 170.001 -127l205 -287l209 291
c60 83.333 118.667 125 176 125c36.667 0 70 -14.833 100 -44.5s45 -62.834 45 -99.501c0 -44 -24.333 -99.667 -73 -167l-269 -373l355 -500c50 -70.667 75 -126.667 75 -168c0 -38.667 -15.333 -72.167 -46 -100.5s-65.667 -42.5 -105 -42.5
c-61.333 0 -121.333 41.333 -180 124l-295 414l-293 -411c-60.667 -84.667 -118.667 -127 -174 -127z" />
    <glyph glyph-name="Y" unicode="Y" horiz-adv-x="1057" 
d="M969 1477c36.667 0 70 -14.832 100 -44.499s45 -62.834 45 -99.501c0 -40 -25.333 -96 -76 -168l-336 -479v-469c0 -156.667 -55 -235 -165 -235c-110.667 0 -166 78.333 -166 235v469l-336 475c-49.333 70 -74 126 -74 168c0 42.667 16.333 78 49 106
c30.667 26.667 67.667 40 111 40c54 0 110.667 -42.333 170 -127l248 -355l252 359c58.667 83.333 118 125 178 125z" />
    <glyph glyph-name="Z" unicode="Z" horiz-adv-x="1090" 
d="M1122 154c0 -102.667 -78.333 -154 -235 -154h-666c-155.333 -0 -233 55.333 -233 166c0 52.667 30.667 119.667 92 201l594 788h-428c-157.333 0 -236 50 -236 150c0 100.667 78.667 151 236 151h563c190 0 285 -54 285 -162c0 -48 -32.333 -115.667 -97 -203l-579 -784
h469c156.667 0 235 -51 235 -153z" />
    <glyph glyph-name="bracketleft" unicode="[" horiz-adv-x="664" 
d="M496 1540c104.667 0 157 -36 157 -108c0 -74.667 -59.333 -112 -178 -112h-42c-17.333 0.666992 -29.333 1 -36 1v-1405c85.333 0 138.333 -2.33301 159 -7c64.667 -13.333 97 -48 97 -104c0 -72 -53 -108 -159 -108h-148c-83.333 0 -141.333 13.667 -174 41
c-35.333 30 -53 86 -53 168v1401c0 86.667 16.667 147.167 50 181.5s93 51.5 179 51.5h148z" />
    <glyph glyph-name="backslash" unicode="\" horiz-adv-x="758" 
d="M-92 1374c0 36.667 13.168 67.001 39.501 91.001s58.166 36 95.499 36c53.333 0 101 -39.667 143 -119l635 -1202c20.667 -39.333 31 -72 31 -98c0 -36.667 -13.5 -67.334 -40.5 -92.001s-59.167 -37 -96.5 -37c-54 0 -102 39.667 -144 119l-634 1202
c-19.333 36.667 -29 70 -29 100z" />
    <glyph glyph-name="bracketright" unicode="]" horiz-adv-x="664" 
d="M168 1540h147c86 0 145.833 -17.167 179.5 -51.5s50.5 -94.833 50.5 -181.5v-1401c0 -82 -17.333 -138 -52 -168c-32 -27.333 -90 -41 -174 -41h-149c-106.667 0 -160 36 -160 108c0 56 32.333 90.667 97 104c20.667 4.66699 73.667 7 159 7v1405
c-6.66699 0 -18.667 -0.333008 -36 -1h-40c-120 0 -180 37.333 -180 112c0 72 52.667 108 158 108z" />
    <glyph glyph-name="asciicircum" unicode="^" horiz-adv-x="2048" 
d="M897 1460h252l481 -561h-235l-371 371l-373 -371h-235z" />
    <glyph glyph-name="underscore" unicode="_" horiz-adv-x="1024" 
d="M0 -279h1024v-204h-1024v204z" />
    <glyph glyph-name="grave" unicode="`" horiz-adv-x="1024" 
d="M242 1528c0 37.333 12.168 67.833 36.501 91.5s55.166 35.5 92.499 35.5c45.333 0 84 -22 116 -66l150 -205c23.333 -32 35 -62 35 -90c0 -74.667 -37 -112 -111 -112c-35.333 0 -72 21 -110 63l-156 172c-35.333 38.667 -53 75.667 -53 111z" />
    <glyph glyph-name="a" unicode="a" 
d="M807 98c-66.667 -82 -156.667 -123 -270 -123c-148 0 -268.667 59.333 -362 178c-85.333 109.333 -128 240 -128 392c0 152.667 45 284 135 394c96 118 218.333 177 367 177c108.667 0 194.667 -38.333 258 -115c37.333 68.667 88.666 103 153.999 103
c106 0 159 -78 159 -234v-649c0 -156.667 -53 -235 -159 -235c-69.333 0 -120.666 37.333 -153.999 112zM381 549c0 -71.333 16.333 -131.334 49 -180.001c38 -56 91.333 -84 160 -84c67.333 0 120 28.333 158 85c32.667 49.333 49 109 49 179
c0 68.667 -17 127.334 -51 176.001c-38 54.667 -90 82 -156 82c-67.333 0 -120 -27 -158 -81c-34 -48 -51 -107 -51 -177z" />
    <glyph glyph-name="b" unicode="b" 
d="M428 551c0 -72.667 16.666 -134 49.999 -184c38.667 -57.333 93 -86 163 -86c68.667 0 122.667 29 162 87c34 50 51 111 51 183c0 73.333 -16.667 135.333 -50 186c-39.333 58.667 -93.666 88 -162.999 88c-70 0 -124.333 -29.333 -163 -88
c-33.333 -50.667 -50 -112.667 -50 -186zM433.999 1032c70.667 61.333 155.332 92.001 253.999 92.001c150 0 272 -60.333 366 -181c86.667 -110.667 130 -243.334 130 -398.001c0 -156 -49 -289.167 -147 -399.5s-214.333 -165.5 -349 -165.5
c-109.333 0 -196.666 36.667 -261.999 110c-40 -69.333 -91.333 -104 -154 -104c-107.333 0 -161 78.333 -161 235v1106c0 157.333 53.667 236 161 236c108 0 162 -78.667 162 -236v-295z" />
    <glyph glyph-name="c" unicode="c" horiz-adv-x="973" 
d="M47 545c0 169.333 50.501 307.166 151.501 413.499s235.5 159.5 403.5 159.5c86 0 162 -13.667 228 -41c88.667 -36.667 133 -92 133 -166c0 -39.333 -12.5 -72 -37.5 -98s-57.167 -39 -96.5 -39c-20 0 -55.667 8.16699 -107 24.5s-91.333 24.5 -120 24.5
c-72 0 -128.333 -28.333 -169 -85c-36 -49.333 -54 -111.666 -54 -186.999c0 -79.333 19 -143.333 57 -192c41.333 -53.333 100.666 -80 177.999 -80c29.333 0 69.5 8.16699 120.5 24.5s84.833 24.5 101.5 24.5c37.333 0 67.5 -13.833 90.5 -41.5s34.5 -60.5 34.5 -98.5
c0 -58.667 -36 -109.167 -108 -151.5s-162.333 -63.5 -271 -63.5c-164 0 -295 55 -393 165c-94.667 105.333 -142 241 -142 407z" />
    <glyph glyph-name="d" unicode="d" 
d="M379 551c0 -72 16.998 -133 50.998 -183c39.333 -58 93.333 -87 162 -87s122.334 29 161.001 87c33.333 50 50 111 50 183c0 73.333 -16.333 135.333 -49 186c-38 58.667 -92 88 -162 88c-69.333 0 -123.666 -29.333 -162.999 -88c-33.333 -50.667 -50 -112.667 -50 -186
zM806.998 90c-68 -73.333 -155.333 -110 -262 -110c-135.333 0 -252.166 55.833 -350.499 167.5s-147.5 247.5 -147.5 407.5c0 151.333 44.667 282 134 392c95.333 118 216.666 177 363.999 177c97.333 0 182 -30.667 254 -92v295c0 157.333 54 236 162 236
c106 0 159 -78.667 159 -236v-1106c0 -156.667 -53 -235 -159 -235c-64.667 0 -116 34.667 -154 104z" />
    <glyph glyph-name="e" unicode="e" horiz-adv-x="1147" 
d="M375 666l426.002 0.00195312c-4 55.333 -26 101.166 -66 137.499s-87.667 54.5 -143 54.5c-56.667 0 -104.334 -17.833 -143.001 -53.5s-63.334 -81.834 -74.001 -138.501zM379.002 455.002c15.333 -128.667 96.6689 -192.999 244.002 -192.999
c53.333 0 119.833 17.5 199.5 52.5s126.5 52.5 140.5 52.5c37.333 0 68.166 -11.5 92.499 -34.5s36.5 -53.167 36.5 -90.5c0 -68.667 -48 -131 -144 -187s-210 -84 -342 -84c-162 0 -295.667 54.667 -401 164s-158 245.333 -158 408c0 161.333 49.667 297 149 407
c103.333 113.333 234.666 170 393.999 170c150 0 275.167 -51.333 375.5 -154s150.5 -229.334 150.5 -380.001c0 -54 -14.667 -90.667 -44 -110c-22 -14 -60.667 -21 -116 -21h-577z" />
    <glyph glyph-name="f" unicode="f" horiz-adv-x="719" 
d="M504 1075c168 0 252 -47.667 252 -143c0 -61.333 -29.333 -102 -88 -122c-33.333 -11.333 -88 -17 -164 -17v-572c0 -156.667 -55.333 -235 -166 -235c-108 0 -162 78.333 -162 235v572c-129.333 0 -194 46.333 -194 139c0 88 64.667 136 194 144c0 6 -0.333008 15 -1 27
s-1 21 -1 27c0 126 24 226 72 300c57.333 88.667 145.333 133 264 133c58.667 0 107 -12 145 -36c45.333 -28.667 68 -70.667 68 -126c0 -46 -15.333 -79.333 -46 -100c-16.667 -12 -47 -22.333 -91 -31c-38 -7.33301 -61.167 -16.833 -69.5 -28.5
s-12.5 -67.167 -12.5 -166.5z" />
    <glyph glyph-name="g" unicode="g" horiz-adv-x="1223" 
d="M807 135c-70 -100.667 -167.667 -151.002 -293 -151.002c-130.667 0 -241.167 53.667 -331.5 161s-135.5 240.666 -135.5 399.999c0 152.667 45 284 135 394c96 118 218.333 177 367 177c108.667 0 194.667 -38.333 258 -115c37.333 68.667 85 103 143 103
c108 0 162 -78 162 -234v-649c0 -120.667 -5.66699 -214 -17 -280c-24.667 -135.333 -89 -238.666 -193 -309.999c-94.667 -65.333 -213.667 -98 -357 -98c-106 0 -202.667 15 -290 45c-122 42 -183 105.667 -183 191c0 40.667 13 74.334 39 101.001s59.333 40 100 40
c18 0 64.5 -14.333 139.5 -43s143.833 -43 206.5 -43c168 0 252 90.667 252 272c0 4.66699 -0.333008 11.334 -1 20.001s-1 15 -1 19zM381 544.998c0 -72 16.666 -133.333 49.999 -184c38.667 -58 92.334 -87 161.001 -87s122.667 29 162 87c34 50.667 51 112 51 184
c0 70.667 -17.333 130.667 -52 180c-39.333 56 -93 84 -161 84s-121.333 -28 -160 -84c-34 -49.333 -51 -109.333 -51 -180z" />
    <glyph glyph-name="h" unicode="h" horiz-adv-x="1206" 
d="M434 1008c65.333 68 157.668 102 277.001 102c262 0 393 -142 393 -426v-463c0 -156.667 -54 -235 -162 -235s-162 78.333 -162 235v365c0 76.667 -9.33301 133.667 -28 171c-26.667 52.667 -75.334 79 -146.001 79c-114.667 0 -172 -82 -172 -246v-369
c0 -156.667 -54 -235 -162 -235c-107.333 0 -161 78.333 -161 235v1106c0 157.333 53.667 236 161 236c108 0 162 -78.667 162 -236v-319z" />
    <glyph glyph-name="i" unicode="i" horiz-adv-x="563" 
d="M96 1376c0 52 18.167 96.166 54.5 132.499s80.5 54.5 132.5 54.5c51.333 0 94.833 -18.333 130.5 -55s53.5 -80.667 53.5 -132c0 -52 -17.667 -96 -53 -132s-79 -54 -131 -54c-52.667 0 -97 17.833 -133 53.5s-54 79.834 -54 132.501zM442 220.999
c0 -156.667 -53 -235 -159 -235c-108 0 -162 78.333 -162 235v649c0 156 54 234 162 234c106 0 159 -78 159 -234v-649z" />
    <glyph glyph-name="j" unicode="j" horiz-adv-x="563" 
d="M96 1376c0 52 18.167 96.166 54.5 132.499s80.5 54.5 132.5 54.5c51.333 0 94.833 -18.333 130.5 -55s53.5 -80.667 53.5 -132c0 -52 -17.667 -96 -53 -132s-79 -54 -131 -54c-52.667 0 -97 17.833 -133 53.5s-54 79.834 -54 132.501zM442 -215.001
c0 -157.333 -53 -236 -159 -236c-108 0 -162 78.667 -162 236v1085c0 156 54 234 162 234c106 0 159 -78 159 -234v-1085z" />
    <glyph glyph-name="k" unicode="k" horiz-adv-x="1053" 
d="M434 733l275.001 285c56.667 58.667 111.667 88 165 88c36.667 0 68.5 -11.833 95.5 -35.5s40.5 -53.5 40.5 -89.5c0 -53.333 -27.333 -105.333 -82 -156l-217 -200l301 -355c42 -49.333 63 -101 63 -155c0 -39.333 -15.667 -72 -47 -98
c-28.667 -23.333 -63.334 -35 -104.001 -35c-62 0 -118 33.333 -168 100l-322 430v-291c0 -159.333 -54 -239 -162 -239c-107.333 0 -161 79.667 -161 239v1106c0 157.333 53.667 236 161 236c108 0 162 -78.667 162 -236v-594z" />
    <glyph glyph-name="l" unicode="l" horiz-adv-x="563" 
d="M121 1327c0 157.333 54 236 162 236c106 0 159 -78.667 159 -236v-1106c0 -156.667 -53 -235 -159 -235c-108 0 -162 78.333 -162 235v1106z" />
    <glyph glyph-name="m" unicode="m" horiz-adv-x="1798" 
d="M111 221l0.00292969 649c0 158.667 53.667 238 161 238c63.333 0 114.666 -35.667 153.999 -107c64.667 71.333 150.667 107 258 107c137.333 0 244.666 -50.667 321.999 -152c91.333 101.333 199.666 152 324.999 152c122.667 0 215.667 -41 279 -123
c57.333 -74 86 -174.333 86 -301v-463c0 -156.667 -54 -235 -162 -235c-106.667 0 -160 78.333 -160 235v365c0 163.333 -49 245 -147 245c-108 0 -162 -80.333 -162 -241v-369c0 -156.667 -54 -235 -162 -235s-162 78.333 -162 235v365c0 163.333 -48.333 245 -145 245
c-108 0 -162 -80.333 -162 -241v-369c0 -156.667 -54 -235 -162 -235c-107.333 0 -161 78.333 -161 235z" />
    <glyph glyph-name="n" unicode="n" horiz-adv-x="1206" 
d="M111 221l0.000976562 649c0 156 53.667 234 161 234c64.667 0 116 -34.333 154 -103c66 72.667 161 109 285 109c262 0 393 -142 393 -426v-463c0 -156.667 -54 -235 -162 -235s-162 78.333 -162 235v365c0 76.667 -9.33301 133.667 -28 171
c-26.667 52.667 -75.334 79 -146.001 79c-114.667 0 -172 -82 -172 -246v-369c0 -156.667 -54 -235 -162 -235c-107.333 0 -161 78.333 -161 235z" />
    <glyph glyph-name="o" unicode="o" horiz-adv-x="1188" 
d="M381 549c0 -74 16.667 -136.333 50 -187c38 -58.667 92.333 -88 163 -88c70 0 124.333 29.333 163 88c33.333 50.667 50 113 50 187c0 71.333 -17.333 132.333 -52 183c-39.333 58 -93 87 -161 87c-69.333 0 -123.333 -28.667 -162 -86c-34 -50.667 -51 -112 -51 -184z
M47 545c0 164.667 49.667 300.999 149 408.999c102 112 234.667 168 398 168c164 0 296.667 -55.667 398 -167c98 -108 147 -244.667 147 -410s-49 -302 -147 -410c-101.333 -112 -234 -168 -398 -168c-163.333 0 -296 56 -398 168
c-99.333 108.667 -149 245.334 -149 410.001z" />
    <glyph glyph-name="p" unicode="p" 
d="M428 541c0 -74 16.667 -136.333 50 -187c38 -58.667 92.333 -88 163 -88c70 0 124.333 29.333 163 88c33.333 50.667 50 113 50 187c0 71.333 -17.333 132.333 -52 183c-39.333 58 -93 87 -161 87c-68.667 0 -122.667 -29 -162 -87c-34 -50 -51 -111 -51 -183zM272 -451
c-107.333 0 -160.999 78.667 -160.999 236v1085c0 156 53.667 234 161 234c64.667 0 116 -34.333 154 -103c67.333 74 156 111 266 111c148.667 0 269.667 -58.667 363 -176c86 -108.667 129 -239 129 -391c0 -161.333 -48.5 -298.333 -145.5 -411
s-213.833 -169 -350.5 -169c-94.667 0 -179.334 31.333 -254.001 94v-274c0 -157.333 -54 -236 -162 -236z" />
    <glyph glyph-name="q" unicode="q" 
d="M803 541c0 72 -16.666 133 -49.999 183c-38.667 58 -92.334 87 -161.001 87s-122.667 -29 -162 -87c-34 -50.667 -51 -111.667 -51 -183c0 -74 16.667 -136.333 50 -187c38.667 -58.667 93 -88 163 -88c70.667 0 125 29.333 163 88c32 50 48 112.333 48 187zM799.001 59
c-73.333 -62.667 -158.667 -94 -256 -94c-136.667 0 -253.5 56.333 -350.5 169s-145.5 249.667 -145.5 411c0 152 43.333 282.333 130 391c94 117.333 215.333 176 364 176c110 0 198.667 -37 266 -111c38 68.667 89.333 103 154 103c106 0 159 -78 159 -234v-1085
c0 -157.333 -53 -236 -159 -236c-108 0 -162 78.667 -162 236v274z" />
    <glyph glyph-name="r" unicode="r" horiz-adv-x="778" 
d="M111 221v649c0 156 53.667 234 161 234c64.667 0 116 -34.333 154 -103c67.333 72.667 140.333 109 219 109c44.667 0 83.167 -15.667 115.5 -47s48.5 -69 48.5 -113c0 -46 -26 -84.333 -78 -115c-13.333 -8 -66 -30.667 -158 -68c-63.333 -26 -103 -53 -119 -81
c-13.333 -24 -20 -67 -20 -129v-336c0 -156.667 -54 -235 -162 -235c-107.333 0 -161 78.333 -161 235z" />
    <glyph glyph-name="s" unicode="s" horiz-adv-x="891" 
d="M420 -31c-93.333 0 -177.667 17 -253 51c-98 44 -147 107 -147 189c0 38 10.667 71 32 99c24 30.667 54.333 46 91 46c34.667 0 84.5 -15.667 149.5 -47s114.833 -47 149.5 -47c60 0 90 22 90 66c0 33.333 -51.833 70 -155.5 110s-178.5 79.333 -224.5 118
c-68.667 57.333 -103 130.666 -103 219.999c0 106.667 41.667 192.667 125 258c76.667 60 169.667 90 279 90c106 0 195.5 -22.5 268.5 -67.5s109.5 -97.5 109.5 -157.5c0 -38 -12.667 -70 -38 -96s-57 -39 -95 -39c-27.333 0 -70 13 -128 39s-102 39 -132 39
c-48.667 0 -73 -18.667 -73 -56c0 -27.333 42.333 -58.666 127 -93.999c116.667 -47.333 195.667 -86.333 237 -117c84.667 -62.667 127 -141 127 -235c0 -114 -45.333 -205.333 -136 -274c-82.667 -63.333 -182.667 -95 -300 -95z" />
    <glyph glyph-name="t" unicode="t" horiz-adv-x="682" 
d="M176 793c-129.333 0 -194 46.334 -194 139.001c0 88 64.667 136 194 144c0 10 -0.333008 27.667 -1 53s-1 45.333 -1 60c0 175.333 54.667 263 164 263c108 0 162 -87.667 162 -263c0 -14.667 -0.333008 -34.834 -1 -60.501s-1 -43.5 -1 -53.5
c154 0 231 -47.667 231 -143c0 -92.667 -77 -139 -231 -139v-572c0 -156.667 -53.333 -235 -160 -235c-108 0 -162 78.333 -162 235v572z" />
    <glyph glyph-name="u" unicode="u" horiz-adv-x="1186" 
d="M104 440l0.00195312 430c0 156 54 234 162 234c106.667 0 160 -78 160 -234v-364c0 -73.333 9 -127.333 27 -162c25.333 -49.333 71.666 -74 138.999 -74s113.666 24.667 138.999 74c18 34.667 27 88.667 27 162v364c0 156 54 234 162 234c106 0 159 -78 159 -234v-430
c0 -155.333 -42.167 -273 -126.5 -353s-204.5 -120 -360.5 -120c-156.667 0 -276.667 39.667 -360 119c-85.333 80.667 -128 198.667 -128 354z" />
    <glyph glyph-name="v" unicode="v" horiz-adv-x="948" 
d="M-8 944c0 45.333 14.6699 83.332 44.0029 113.999s66.333 46 111 46c77.333 0 132.666 -52.667 165.999 -158l176 -561l175 582c26.667 88.667 77 133 151 133c46.667 0 83.667 -14.667 111 -44s41 -67.333 41 -114c0 -27.333 -8.33301 -62.666 -25 -105.999l-272 -705
c-20.667 -53.333 -42.334 -91.333 -65.001 -114c-30 -29.333 -70 -44 -120 -44c-52.667 0 -94.667 16 -126 48c-22.667 23.333 -45.334 63.333 -68.001 120l-281 715c-12 30.667 -18 60 -18 88z" />
    <glyph glyph-name="w" unicode="w" horiz-adv-x="1550" 
d="M1403 1100c46 0 82.6641 -14.668 109.997 -44.001s41 -67.333 41 -114c0 -25.333 -8 -60.666 -24 -105.999l-248 -705c-37.333 -105.333 -98.666 -158 -183.999 -158c-101.333 0 -166.333 56 -195 168l-133 514l-125 -524c-25.333 -105.333 -86.666 -158 -183.999 -158
c-90 0 -155 56 -195 168l-256 716c-12 33.333 -18 62.333 -18 87c0 45.333 14.667 83.333 44 114s66.333 46 111 46c80 0 135.333 -52.667 166 -158l170 -590l138 592c22.667 97.333 72.334 146 149.001 146c84 0 138.667 -50 164 -150l147 -579l170 602
c25.333 88.667 76 133 152 133z" />
    <glyph glyph-name="x" unicode="x" horiz-adv-x="1010" 
d="M514 344l-228.999 -273.999c-46.667 -56 -93.334 -84 -140.001 -84c-42.667 0 -79.167 15.667 -109.5 47s-45.5 68.666 -45.5 111.999c0 46 22.333 93.333 67 142l269 295l-226 229c-40.667 41.333 -61 85 -61 131c0 42 14.833 79.5 44.5 112.5s65.167 49.5 106.5 49.5
c50 0 94.667 -22.667 134 -68l196 -227l180 221c41.333 50.667 85 76 131 76c44.667 0 83.5 -15.5 116.5 -46.5s49.5 -68.833 49.5 -113.5c0 -42 -23.667 -88.333 -71 -139l-213 -227l252 -285c50 -56.667 75 -110 75 -160c0 -40.667 -14.333 -75.667 -43 -105
s-63.334 -44 -104.001 -44c-51.333 0 -100.666 28 -147.999 84z" />
    <glyph glyph-name="y" unicode="y" horiz-adv-x="985" 
d="M846 1104c48 0 86.332 -13.6689 114.999 -41.002s43 -65 43 -113c0 -32 -9 -69.333 -27 -112l-492 -1168c-36.667 -87.333 -83.667 -131 -141 -131c-48.667 0 -87.5 13.833 -116.5 41.5s-43.5 65.834 -43.5 114.501c0 34 9 70.667 27 110l133 289l-326 760
c-10.667 24.667 -16 54.667 -16 90c0 45.333 14.833 83.333 44.5 114s66.834 46 111.501 46s80.667 -15.667 108 -47c18 -21.333 36.667 -57.666 56 -108.999l182 -487l198 514c33.333 86 81.333 129 144 129z" />
    <glyph glyph-name="z" unicode="z" horiz-adv-x="915" 
d="M950 147c0 -98 -68.3311 -147 -204.998 -147h-587c-52.667 -0 -90.334 4.33301 -113.001 13c-38 14.667 -57 43.667 -57 87c0 39.333 16.333 80.333 49 123l442 574h-278c-135.333 0 -203 49 -203 147c0 97.333 68.333 146 205 146h518
c63.333 0 106.666 -3.33301 129.999 -10c48.667 -13.333 73 -43 73 -89c0 -37.333 -22 -84.333 -66 -141l-430 -551h320c134.667 0 202 -50.667 202 -152z" />
    <glyph glyph-name="braceleft" unicode="{" horiz-adv-x="1024" 
d="M883 1477l0.000976562 -209.002c-4.66699 0 -12.334 0.333008 -23.001 1s-18.667 1 -24 1c-74 0 -122.667 -17.333 -146 -52c-17.333 -25.333 -26 -75 -26 -149v-240c0 -90.667 -12.667 -156.667 -38 -198c-29.333 -48 -85.666 -81.667 -168.999 -101
c83.333 -19.333 139.666 -52.666 168.999 -99.999c25.333 -40.667 38 -106.334 38 -197.001v-241c0 -82 11.667 -135.667 35 -161c18.667 -20 47.667 -31.667 87 -35c4 -0.666992 36.333 -1 97 -1v-209c-8 0 -20.5 -0.333008 -37.5 -1s-29.833 -1 -38.5 -1
c-202 0 -322.333 46.667 -361 140c-16 38 -24 104.667 -24 200v252c0 91.333 -17 156.333 -51 195c-24 26.667 -57 43.334 -99 50.001c-20 3.33301 -58 5 -114 5v209c4.66699 0 11.5 -0.333008 20.5 -1s15.833 -1 20.5 -1c84 0 143.333 22 178 66
c30 38.667 45 101.334 45 188.001v250c0 96 8 163 24 201c38 94 158.333 141 361 141c8.66699 0 21.5 -0.333008 38.5 -1s29.5 -1 37.5 -1z" />
    <glyph glyph-name="bar" unicode="|" horiz-adv-x="1024" 
d="M410 1565h206v-2048h-206v2048z" />
    <glyph glyph-name="braceright" unicode="}" horiz-adv-x="1024" 
d="M143 1477l79 -0.000976562c201.333 0 321 -47 359 -141c15.333 -39.333 23 -105.666 23 -198.999v-252c0 -91.333 17 -156 51 -194c24 -27.333 57 -44.333 99 -51c20 -3.33301 58 -5 114 -5v-209c-100.667 0 -169 -16.333 -205 -49
c-39.333 -34.667 -59 -101.667 -59 -201v-252c0 -96 -7.66699 -163 -23 -201c-38.667 -92.667 -159.334 -139 -362.001 -139c-8.66699 0 -21.5 0.333008 -38.5 1s-29.5 1 -37.5 1v209c4.66699 0 12.334 -0.333008 23.001 -1s18.667 -1 24 -1c73.333 0 121.666 17 144.999 51
c18 25.333 27 74.666 27 147.999v239c0 91.333 12.333 157.333 37 198c29.333 48.667 86 82.334 170 101.001c-83.333 19.333 -139.666 53 -168.999 101c-25.333 41.333 -38 107.333 -38 198v242c0 81.333 -11.667 135 -35 161c-18.667 19.333 -47.667 31 -87 35
c-4.66699 0.666992 -37 1 -97 1v209z" />
    <glyph glyph-name="asciitilde" unicode="~" horiz-adv-x="1706" 
d="M1530 803l0.000976562 -221c-134.667 -92 -261 -138 -379 -138c-62 0 -147 18.667 -255 56c-144.667 50 -255.667 75 -333 75c-110 0 -238.333 -52.333 -385 -157v221c141.333 95.333 270.333 143 387 143c57.333 0 155.666 -19.667 294.999 -59l145 -47
c57.333 -18 107.333 -27 150 -27c108.667 0 233.667 51.333 375 154z" />
    <glyph glyph-name="euro" horiz-adv-x="1327" 
d="M838 -43c-343.333 0 -549.665 174.668 -618.998 524.001c-76.667 0 -119.667 0.666992 -129 2c-58.667 8.66699 -88 34 -88 76c0 41.333 26 66.333 78 75c11.333 2 52.333 3 123 3c-2 15.333 -3 70.666 -3 165.999c-62.667 0 -101.334 1.33301 -116.001 4
c-49.333 9.33301 -74 33.333 -74 72c0 42 27.333 67.667 82 77c9.33301 1.33301 51.666 2 126.999 2c32 168.667 98.667 299.667 200 393c106.667 97.333 244 146 412 146c123.333 0 228.666 -23.5 315.999 -70.5s131 -101.167 131 -162.5
c0 -39.333 -13.667 -74.166 -41 -104.499s-60.666 -45.5 -99.999 -45.5c-21.333 0 -67.833 10.333 -139.5 31s-129.167 31 -172.5 31c-136.667 0 -222 -72.667 -256 -218h498c74 0 111 -26.333 111 -79c0 -50.667 -37 -76 -111 -76h-518c-1.33301 -22.667 -2 -50.667 -2 -84
c0 -34.667 0.666992 -62 2 -82h450c74 0 111 -26 111 -78s-37 -78 -111 -78h-430c38.667 -143.333 129.667 -215 273 -215c44.667 0 104.167 13.667 178.5 41s121.833 41 142.5 41c36.667 0 68 -14 94 -42s39 -60.333 39 -97c0 -68.667 -43.833 -127.834 -131.5 -177.501
s-196.5 -74.5 -326.5 -74.5z" />
    <glyph glyph-name="nonbreakingspace" unicode="&#xa0;" horiz-adv-x="1327" 
 />
    <glyph glyph-name="exclamdown" unicode="&#xa1;" horiz-adv-x="606" 
d="M481 1319c0 -49.333 -17.332 -91.667 -51.999 -127s-76.667 -53 -126 -53c-50 0 -92.5 17.5 -127.5 52.5s-52.5 77.5 -52.5 127.5c0 49.333 17.667 91.333 53 126s77.666 52 126.999 52c50 0 92.167 -17.167 126.5 -51.5s51.5 -76.5 51.5 -126.5zM143.001 794.999
c0 156.667 53.333 235 160 235c105.333 0 158 -78.333 158 -235v-602c0 -157.333 -52.667 -236 -158 -236c-106.667 0 -160 78.667 -160 236v602z" />
    <glyph glyph-name="cent" unicode="&#xa2;" horiz-adv-x="973" 
d="M506 6c-144.667 16 -258.667 77.998 -342 185.998c-78 102 -117 227.667 -117 377c0 146.667 40 272.334 120 377.001c84 110.667 197 175.667 339 195c0 76 0.666992 117.667 2 125c9.33301 50 36 75 80 75c53.333 0 80 -37.333 80 -112v-86
c196.667 -23.333 295 -91.666 295 -204.999c0 -39.333 -12.5 -72 -37.5 -98s-57.167 -39 -96.5 -39c-20 0 -55.667 8.16699 -107 24.5s-91.333 24.5 -120 24.5c-72 0 -128.333 -28 -169 -84c-36 -50 -54 -112.667 -54 -188c0 -79.333 18.667 -143.333 56 -192
c42 -54 101.667 -81 179 -81c29.333 0 69.5 8.16699 120.5 24.5s84.833 24.5 101.5 24.5c38 0 68.333 -13.5 91 -40.5s34 -59.833 34 -98.5c0 -60 -35.333 -110.333 -106 -151c-52 -30 -114.333 -51.333 -187 -64v-209c0 -75.333 -26.667 -113 -80 -113
c-54.667 0 -82 37 -82 111v217z" />
    <glyph glyph-name="sterling" unicode="&#xa3;" horiz-adv-x="1266" 
d="M1292 154c0 -102.667 -78.335 -153.999 -235.002 -153.999h-576c-124 0 -206 12.333 -246 37c-42 25.333 -63 67.666 -63 126.999c0 43.333 21.333 95.666 64 156.999c49.333 70.667 78 120.334 86 149.001s12 64.667 12 108c-91.333 0 -154.666 5.33301 -189.999 16
c-70 21.333 -105 67 -105 137c0 102.667 77 154 231 154c-22.667 69.333 -34 132 -34 188c0 132 53 237.667 159 317c96 72.667 212 109 348 109c152 0 280.833 -38 386.5 -114s158.5 -163 158.5 -261c0 -42 -13.5 -78.667 -40.5 -110s-61.167 -47 -102.5 -47
s-80.333 20.333 -117 61l-100 113c-47.333 40.667 -104.666 61 -171.999 61c-47.333 0 -89 -13.333 -125 -40c-40 -29.333 -60 -67 -60 -113c0 -38 12.333 -92.667 37 -164c8 0 22.667 0.333008 44 1h49c173.333 0 260 -51.667 260 -155c0 -72 -37.333 -118.333 -112 -139
c-34.667 -9.33301 -100.667 -14 -198 -14c0 -106 -29.333 -196.333 -88 -271h494c156.667 0 235 -51 235 -153z" />
    <glyph glyph-name="currency" unicode="&#xa4;" horiz-adv-x="1327" 
d="M838 -43c-343.333 0 -549.665 174.668 -618.998 524.001c-76.667 0 -119.667 0.666992 -129 2c-58.667 8.66699 -88 34 -88 76c0 41.333 26 66.333 78 75c11.333 2 52.333 3 123 3c-2 15.333 -3 70.666 -3 165.999c-62.667 0 -101.334 1.33301 -116.001 4
c-49.333 9.33301 -74 33.333 -74 72c0 42 27.333 67.667 82 77c9.33301 1.33301 51.666 2 126.999 2c32 168.667 98.667 299.667 200 393c106.667 97.333 244 146 412 146c123.333 0 228.666 -23.5 315.999 -70.5s131 -101.167 131 -162.5
c0 -39.333 -13.667 -74.166 -41 -104.499s-60.666 -45.5 -99.999 -45.5c-21.333 0 -67.833 10.333 -139.5 31s-129.167 31 -172.5 31c-136.667 0 -222 -72.667 -256 -218h498c74 0 111 -26.333 111 -79c0 -50.667 -37 -76 -111 -76h-518c-1.33301 -22.667 -2 -50.667 -2 -84
c0 -34.667 0.666992 -62 2 -82h450c74 0 111 -26 111 -78s-37 -78 -111 -78h-430c38.667 -143.333 129.667 -215 273 -215c44.667 0 104.167 13.667 178.5 41s121.833 41 142.5 41c36.667 0 68 -14 94 -42s39 -60.333 39 -97c0 -68.667 -43.833 -127.834 -131.5 -177.501
s-196.5 -74.5 -326.5 -74.5z" />
    <glyph glyph-name="yen" unicode="&#xa5;" horiz-adv-x="1057" 
d="M961 1470c37.333 0 69.833 -13.5 97.5 -40.5s41.5 -59.167 41.5 -96.5c0 -40 -25.333 -96 -76 -168l-262 -374h156c80 0 120 -24.667 120 -74c0 -52 -40 -78 -120 -78h-230v-428c0 -152.667 -50.333 -229 -151 -229c-101.333 0 -152 76.333 -152 229v428h-229
c-80.667 0 -121 25.333 -121 76s40.333 76 121 76h153l-260 370c-49.333 70 -74 126 -74 168c0 38 14.5 71.5 43.5 100.5s62.5 43.5 100.5 43.5c61.333 0 118 -41.667 170 -125l258 -412l252 416c47.333 78.667 101.333 118 162 118z" />
    <glyph glyph-name="brokenbar" unicode="&#xa6;" horiz-adv-x="1024" 
d="M410 408h206v-758h-206v758zM410 1432h206v-758h-206v758z" />
    <glyph glyph-name="section" unicode="&#xa7;" horiz-adv-x="1071" 
d="M698 358c60 32.667 90 79.333 90 140c0 62 -133 152.667 -399 272c-58.667 -36.667 -88 -83 -88 -139c0 -54 132.333 -145 397 -273zM207 902.999c-67.333 64.667 -101.003 141.33 -101.003 229.997c0 114.667 42 205.334 126 272.001c76.667 61.333 174 92 292 92
c130 0 236.667 -30 320 -90s125 -133 125 -219c0 -39.333 -12.167 -72.333 -36.5 -99s-55.833 -40 -94.5 -40c-37.333 0 -69.666 18.333 -96.999 55l-73 101c-34.667 36.667 -80 55 -136 55c-35.333 0 -66 -8 -92 -24c-30 -19.333 -45 -45.666 -45 -78.999
s39.667 -73.666 119 -120.999c20 -12 74.667 -40 164 -84c156.667 -77.333 260.334 -145 311.001 -203c52 -60 78 -131.333 78 -214c0 -136 -61.333 -240 -184 -312c66.667 -66.667 100 -145 100 -235c0 -115.333 -44.667 -205.666 -134 -270.999
c-80.667 -58.667 -180.667 -88 -300 -88c-128 0 -234.5 30.333 -319.5 91s-127.5 133.667 -127.5 219c0 38.667 12.333 71.5 37 98.5s56 40.5 94 40.5c38.667 0 71 -18 97 -54l73 -101c36 -36 84.667 -54 146 -54c95.333 0 143 34 143 102c0 34.667 -39 75 -117 121
c-15.333 8.66699 -69.666 36 -162.999 82c-157.333 77.333 -262 145.833 -314 205.5s-78 131.167 -78 214.5c0 64 17 123.667 51 179s79.333 98.666 136 129.999z" />
    <glyph glyph-name="dieresis" unicode="&#xa8;" horiz-adv-x="1024" 
d="M479 1376c0 -109.333 -47.667 -164 -143 -164c-46.667 0 -82.667 16 -108 48c-23.333 30 -35 68.667 -35 116c0 48 11.667 87 35 117c25.333 32.667 61.333 49 108 49c95.333 0 143 -55.333 143 -166zM831 1376c0 -109.333 -47.667 -164 -143 -164
c-46.667 0 -82.667 16 -108 48c-23.333 30 -35 68.667 -35 116s11.667 86 35 116c26 33.333 62 50 108 50c95.333 0 143 -55.333 143 -166z" />
    <glyph glyph-name="copyright" unicode="&#xa9;" horiz-adv-x="1706" 
d="M1212 897l-188.005 0.000976562c-11.333 98 -68.666 147 -171.999 147c-71.333 0 -123.666 -36 -156.999 -108c-25.333 -53.333 -38 -120.333 -38 -201c0 -200.667 67.667 -301 203 -301c100.667 0 157.334 53.667 170.001 161l193 1
c-5.33301 -98 -44.333 -174.667 -117 -230c-67.333 -51.333 -151.333 -77 -252 -77c-128.667 0 -228.667 41.667 -300 125c-67.333 78.667 -101 183.667 -101 315s33.667 237.666 101 318.999c72.667 88 173.334 132 302.001 132c94.667 0 174.667 -23 240 -69
c72.667 -52 111.334 -123.333 116.001 -214zM853.995 1356c-172.667 0 -319.333 -60.333 -440 -181s-181 -267.334 -181 -440.001c0 -170.667 60.833 -316.667 182.5 -438s267.834 -182 438.501 -182c172 0 318.5 60.333 439.5 181s181.5 267 181.5 439
c0 172.667 -60.333 319.334 -181 440.001s-267.334 181 -440.001 181zM851.996 1479c208 0 384.168 -72.334 528.501 -217.001s216.5 -321 216.5 -529c0 -101.333 -18 -196 -54 -284c-56 -135.333 -148.5 -245.666 -277.5 -330.999s-266.833 -128 -413.5 -128
c-202 0 -376 73.333 -522 220s-219 321 -219 523c0 205.333 72.167 381 216.5 527s319.166 219 524.499 219z" />
    <glyph glyph-name="ordfeminine" unicode="&#xaa;" horiz-adv-x="926" 
d="M606 770c-49.333 -57.333 -117.001 -86 -203.001 -86c-108 0 -197 39.667 -267 119c-67.333 76 -101 168.667 -101 278c0 110 35 203.667 105 281c72.667 80.667 163.334 121 272.001 121c81.333 0 146 -27.333 194 -82c27.333 48 65.666 72 114.999 72
c79.333 0 119 -54 119 -162v-455c0 -110.667 -39.667 -166 -119 -166c-53.333 0 -91.666 26.667 -114.999 80zM286.999 1085c0 -50.667 12.668 -93.333 38.001 -128c28.667 -38.667 67.667 -58 117 -58c50 0 89 19 117 57c26 34.667 39 77.667 39 129
c0 50.667 -13 92.667 -39 126c-28.667 36.667 -67.667 55 -117 55c-48.667 0 -87.334 -18.333 -116.001 -55c-26 -34 -39 -76 -39 -126z" />
    <glyph glyph-name="guillemotleft" unicode="&#xab;" horiz-adv-x="1034" 
d="M737 539l175.999 -128.999c44 -32 66 -71 66 -117c0 -79.333 -28 -119 -84 -119c-36.667 0 -102.667 36 -198 108c-116.667 88 -175 173.667 -175 257c0 47.333 10.833 89 32.5 125s73.834 84.333 156.501 145c87.333 64 150 96 188 96c53.333 0 80 -39.667 80 -119
c0 -44.667 -22 -83.334 -66 -116.001zM261.999 539.001l176.999 -129.998c44.667 -32.667 67 -71.334 67 -116.001c0 -79.333 -28 -119 -84 -119c-26 0 -89 33.333 -189 100c-124 82.667 -186 171 -186 265c0 47.333 10.667 88.666 32 123.999c22 38 74.333 87 157 147
c86.667 63.333 149.334 95 188.001 95c54.667 0 82 -39.667 82 -119c0 -44 -22.333 -82.667 -67 -116z" />
    <glyph glyph-name="logicalnot" unicode="&#xac;" horiz-adv-x="1706" 
d="M254 864h1198v-502h-199v306h-999v196z" />
    <glyph glyph-name="sfthyphen" unicode="&#xad;" horiz-adv-x="877" 
d="M229 428c-106 0 -159 47 -159 141c0 93.333 53.667 140 161 140h416c106.667 0 160 -47.333 160 -142c0 -92.667 -54 -139 -162 -139h-416z" />
    <glyph glyph-name="registered" unicode="&#xae;" horiz-adv-x="1706" 
d="M745 1034v-239h99c113.333 0 170 38.667 170 116c0 82 -60 123 -180 123h-89zM545 1161h323c235.333 0 353 -79 353 -237c0 -116 -60.333 -189 -181 -219l185 -369h-224l-157 338h-99v-338h-200v825zM854 1356c-171.333 0 -317.667 -60.668 -439 -182.001
s-182 -267.666 -182 -438.999c0 -169.333 60.833 -315.333 182.5 -438s267.167 -184 436.5 -184c168 0 313.833 59.833 437.5 179.5s185.5 263.167 185.5 430.5c0 176.667 -59 326 -177 448c-120 123.333 -268 185 -444 185zM851.999 1479
c207.333 0 383.332 -72.5 527.999 -217.5s217 -321.167 217 -528.5c0 -206 -72.667 -381.333 -218 -526s-321 -217 -527 -217c-203.333 0 -377.666 73 -522.999 219s-218 320.667 -218 524c0 206.667 72 382.667 216 528s319 218 525 218z" />
    <glyph glyph-name="macron" unicode="&#xaf;" horiz-adv-x="1024" 
d="M315 1249c-88.667 0 -133 42.332 -133 126.999c0 38.667 12.5 69.834 37.5 93.501s56.833 35.5 95.5 35.5h394c88.667 0 133 -42.333 133 -127c0 -38 -12.667 -69 -38 -93s-57 -36 -95 -36h-394z" />
    <glyph glyph-name="macron" unicode="&#x2c9;" horiz-adv-x="1024" 
d="M315 1249c-88.667 0 -133 42.332 -133 126.999c0 38.667 12.5 69.834 37.5 93.501s56.833 35.5 95.5 35.5h394c88.667 0 133 -42.333 133 -127c0 -38 -12.667 -69 -38 -93s-57 -36 -95 -36h-394z" />
    <glyph glyph-name="degree" unicode="&#xb0;" horiz-adv-x="674" 
d="M338 1335c-48.667 0 -90.167 -16.833 -124.5 -50.5s-51.5 -74.834 -51.5 -123.501c0 -49.333 17 -91 51 -125s75.667 -51 125 -51c48 0 89 17.167 123 51.5s51 75.833 51 124.5s-17 89.834 -51 123.501s-75 50.5 -123 50.5zM338 1464
c84.667 0 156.332 -29.667 214.999 -89s88 -131.333 88 -216s-29.667 -156.334 -89 -215.001s-131.333 -88 -216 -88s-156 29.333 -214 88s-87 130.334 -87 215.001s29.333 156.667 88 216s130.334 89 215.001 89z" />
    <glyph glyph-name="plusminus" unicode="&#xb1;" horiz-adv-x="1706" 
d="M254 197h1198v-199h-1198v199zM752 1223h202v-326h498v-199h-498v-325h-202v325h-498v199h498v326z" />
    <glyph glyph-name="twosuperior" unicode="&#xb2;" horiz-adv-x="707" 
d="M680 674c0 -61.333 -51.998 -92 -155.998 -92h-387c-87.333 0 -131 30.667 -131 92c0 26.667 69.667 110.334 209 251.001s209 235.667 209 285c0 56 -28 84 -84 84c-40.667 0 -75.334 -31.667 -104.001 -95s-64.334 -95 -107.001 -95c-70.667 0 -106 34 -106 102
c0 50 18.667 99 56 147c34.667 44 76.667 77 126 99c44 19.333 91.667 29 143 29c84 0 154.667 -22 212 -66c63.333 -48 95 -112.667 95 -194c0 -73.333 -41 -157.333 -123 -252c-36.667 -42.667 -106 -110.334 -208 -203.001h200c104 0 156 -30.667 156 -92z" />
    <glyph glyph-name="threesuperior" unicode="&#xb3;" horiz-adv-x="733" 
d="M520 1063c106.667 -51.333 160.001 -126.335 160.001 -225.002c0 -88 -36.333 -158.333 -109 -211c-66 -48 -144.333 -72 -235 -72c-38.667 0 -75.667 5.66699 -111 17c-53.333 16.667 -102 45 -146 85c-52.667 46.667 -79 94 -79 142c0 28 9.33301 50.667 28 68
s42 26 70 26c34 0 72.833 -25.333 116.5 -76s85.5 -76 125.5 -76c32.667 0 60 10.667 82 32s33 48.333 33 81c0 42 -20 70 -60 84l-110 25c-40 13.333 -60 40.333 -60 81c0 44 31.833 74.333 95.5 91s95.5 46 95.5 88c0 48.667 -26 73 -78 73c-28 0 -64.167 -18 -108.5 -54
s-80.5 -54 -108.5 -54c-24.667 0 -45.834 8 -63.501 24s-26.5 36 -26.5 60c0 51.333 31.667 99 95 143s135.333 66 216 66c76 0 141.667 -20.667 197 -62c61.333 -45.333 92 -104.666 92 -177.999c0 -69.333 -37 -128.666 -111 -177.999z" />
    <glyph glyph-name="acute" unicode="&#xb4;" horiz-adv-x="1024" 
d="M457 1182c-74 0 -110.999 37.332 -110.999 111.999c0 28 11.667 58 35 90l149 205c32 44 71 66 117 66c35.333 0 65.666 -11.667 90.999 -35s38 -52.666 38 -87.999c0 -38 -17.667 -76.333 -53 -115l-156 -172c-38 -42 -74.667 -63 -110 -63z" />
    <glyph glyph-name="mu" unicode="&#xb5;" horiz-adv-x="1249" 
d="M205 1092l289.001 -0.000976562l-76 -435c-20.667 -118 -31 -207.333 -31 -268c0 -122.667 56.667 -184 170 -184c80.667 0 142 44.667 184 134c23.333 48.667 44.666 128.334 63.999 239.001l90 514h289l-193 -1092h-268l18 117c-54 -100 -125.667 -150 -215 -150
c-87.333 0 -158.333 40.333 -213 121l-90 -526h-286z" />
    <glyph glyph-name="mu" unicode="&#x3bc;" horiz-adv-x="1249" 
d="M205 1092l289.001 -0.000976562l-76 -435c-20.667 -118 -31 -207.333 -31 -268c0 -122.667 56.667 -184 170 -184c80.667 0 142 44.667 184 134c23.333 48.667 44.666 128.334 63.999 239.001l90 514h289l-193 -1092h-268l18 117c-54 -100 -125.667 -150 -215 -150
c-87.333 0 -158.333 40.333 -213 121l-90 -526h-286z" />
    <glyph glyph-name="paragraph" unicode="&#xb6;" horiz-adv-x="1024" 
d="M983 1479l0.000976562 -111.001h-113v-1368h-151v1368h-158v-1368h-153v784c-106.667 4 -193.334 35.667 -260.001 95c-71.333 62.667 -107 146.334 -107 251.001c0 110.667 38.333 197.667 115 261c71.333 58.667 163.333 88 276 88h551z" />
    <glyph glyph-name="ch270" unicode="&#xb7;" horiz-adv-x="664" 
d="M145 727c0 52 18.167 96 54.5 132s80.5 54 132.5 54s96 -18 132 -54s54 -80 54 -132c0 -51.333 -18 -94.833 -54 -130.5s-80 -53.5 -132 -53.5c-52.667 0 -97 17.5 -133 52.5s-54 78.833 -54 131.5z" />
    <glyph glyph-name="ch270" unicode="&#x2219;" horiz-adv-x="664" 
d="M145 727c0 52 18.167 96 54.5 132s80.5 54 132.5 54s96 -18 132 -54s54 -80 54 -132c0 -51.333 -18 -94.833 -54 -130.5s-80 -53.5 -132 -53.5c-52.667 0 -97 17.5 -133 52.5s-54 78.833 -54 131.5z" />
    <glyph glyph-name="cedilla" unicode="&#xb8;" horiz-adv-x="1024" 
d="M537 49c67.333 0 124.665 -18 171.998 -54c52.667 -39.333 79 -91.666 79 -156.999c0 -82.667 -42.667 -145.334 -128 -188.001c-67.333 -34 -146.666 -51 -237.999 -51c-67.333 0 -124.666 9.66699 -171.999 29c-65.333 26.667 -98 68.667 -98 126
c0 64 39.333 96 118 96c14.667 0 36.5 -1.66699 65.5 -5s50.833 -5 65.5 -5c63.333 0 95 21.333 95 64c0 16.667 -12.667 37.667 -38 63s-38 42.333 -38 51c0 20.667 39 31 117 31z" />
    <glyph glyph-name="onesuperior" unicode="&#xb9;" horiz-adv-x="485" 
d="M373 715c0 -94.667 -37.667 -142 -113 -142c-73.333 0 -110 47.333 -110 142v557c-112 0 -168 30.667 -168 92s51.667 92 155 92h111c83.333 0 125 -47 125 -141v-600z" />
    <glyph glyph-name="ordmasculine" unicode="&#xba;" horiz-adv-x="891" 
d="M287 1085c0 -53.333 13.001 -97.665 39.001 -132.998c28.667 -39.333 68.667 -59 120 -59s91.666 19.667 120.999 59c26 35.333 39 79.666 39 132.999c0 51.333 -13.667 94.666 -41 129.999c-29.333 39.333 -69 59 -119 59c-50.667 0 -90.667 -19.333 -120 -58
c-26 -35.333 -39 -79 -39 -131zM35.001 1081c0 119.333 38.667 216.833 116 292.5s175.666 113.5 294.999 113.5s217.166 -37.833 293.499 -113.5s114.5 -173.167 114.5 -292.5s-38.167 -216.333 -114.5 -291s-174.166 -112 -293.499 -112s-217.666 37.5 -294.999 112.5
s-116 171.833 -116 290.5z" />
    <glyph glyph-name="guillemotright" unicode="&#xbb;" horiz-adv-x="1034" 
d="M768 541l-174 129c-45.333 33.333 -68 72 -68 116c0 79.333 28 119 84 119c25.333 0 88 -33.333 188 -100c45.333 -30 86 -68 122 -114c43.333 -54.667 65 -104.667 65 -150c0 -46.667 -10.333 -87.667 -31 -123c-24 -39.333 -76.667 -89 -158 -149
c-86 -63.333 -149.333 -95 -190 -95c-53.333 0 -80 39.667 -80 119c0 44 22.667 83 68 117zM295 541l-177.001 128.998c-44.667 32.667 -67 71.334 -67 116.001c0 79.333 28 119 84 119c26.667 0 90 -33.333 190 -100c123.333 -82 185 -170 185 -264
c0 -47.333 -10.333 -88.666 -31 -123.999c-23.333 -39.333 -75.666 -89 -156.999 -149c-86 -62.667 -149 -94 -189 -94c-54.667 0 -82 39.667 -82 119c0 44 22.667 83 68 117z" />
    <glyph glyph-name="onequarter" unicode="&#xbc;" horiz-adv-x="1610" 
d="M1044 340h216v311zM1450 176c0 -68.667 -2.33301 -110.332 -7 -124.999c-12 -40.667 -43.667 -61 -95 -61c-46 0 -74 21.667 -84 65c-2.66699 11.333 -4 51.666 -4 120.999h-324c-84.667 0 -127 24 -127 72c0 24.667 16.333 60 49 106l272 385
c41.333 58.667 93.333 88 156 88c109.333 0 164 -62.667 164 -188v-299c96.667 0 145 -26 145 -78c0 -57.333 -48.333 -86 -145 -86zM266 -34.998c-33.333 0 -61 11.501 -83 34.501s-33 51.167 -33 84.5s10.667 68.666 32 105.999l676 1180c44 76.667 91.667 115 143 115
c34 0 62 -10.667 84 -32s33 -49 33 -83c0 -31.333 -11.667 -67.333 -35 -108l-673 -1180c-44.667 -78 -92.667 -117 -144 -117zM354 764.003c0 -87.333 -34.667 -131 -104 -131c-71.333 0 -107 43.667 -107 131v520c-106 0 -159 28.667 -159 86s49 86 147 86h105
c78.667 0 118 -43.667 118 -131v-561z" />
    <glyph glyph-name="onehalf" unicode="&#xbd;" horiz-adv-x="1481" 
d="M1454 86c0 -57.333 -49.668 -85.999 -149.001 -85.999h-369c-83.333 0 -125 28.667 -125 86c0 23.333 66.167 101 198.5 233s198.5 221.667 198.5 269c0 52 -26 78 -78 78c-40 0 -73.667 -29.833 -101 -89.5s-61 -89.5 -101 -89.5c-68.667 0 -103 31.667 -103 95
c0 23.333 6 49 18 77c24 56 64 100.333 120 133c52.667 30.667 110.667 46 174 46c80 0 147.333 -20 202 -60c62 -44.667 93 -105.334 93 -182.001c0 -68 -39.667 -146.333 -119 -235c-33.333 -38 -99.666 -101 -198.999 -189h191c99.333 0 149 -28.667 149 -86z
M265.999 -34.999c-33.333 0 -61 11.501 -83 34.501s-33 51.167 -33 84.5s10.667 68.666 32 105.999l676 1180c44 76.667 91.667 115 143 115c34 0 62 -10.667 84 -32s33 -49 33 -83c0 -31.333 -11.667 -67.333 -35 -108l-673 -1180c-44.667 -78 -92.667 -117 -144 -117z
M353.999 764.002c0 -87.333 -34.667 -131 -104 -131c-71.333 0 -107 43.667 -107 131v520c-106 0 -159 28.667 -159 86s49 86 147 86h105c78.667 0 118 -43.667 118 -131v-561z" />
    <glyph glyph-name="threequarters" unicode="&#xbe;" horiz-adv-x="1845" 
d="M1280 340h215v311zM1686 176c0 -69.333 -2.33301 -111.333 -7 -126c-12 -40 -44 -60 -96 -60c-46 0 -74 21.667 -84 65c-2.66699 12 -4 52.333 -4 121h-324c-84.667 0 -127 24 -127 72c0 24 16.667 59.667 50 107l272 384c41.333 58.667 93.333 88 156 88
c109.333 0 164 -62.667 164 -188v-299c96.667 0 145 -26 145 -78c0 -57.333 -48.333 -86 -145 -86zM502 -35c-33.333 0 -61.165 11.5 -83.498 34.5s-33.5 51.167 -33.5 84.5c0 32 11 67.333 33 106l676 1180c44 76.667 91.667 115 143 115
c33.333 0 61.166 -10.833 83.499 -32.5s33.5 -49.167 33.5 -82.5c0 -31.333 -11.667 -67.333 -35 -108l-674 -1180c-44.667 -78 -92.334 -117 -143.001 -117zM498.001 1090c100.667 -48 150.998 -117.668 150.998 -209.001c0 -82.667 -35 -148.667 -105 -198
c-62 -44.667 -136 -67 -222 -67c-37.333 0 -73.333 5.33301 -108 16c-49.333 15.333 -95.666 41.666 -138.999 78.999c-50 44 -75 88.333 -75 133c0 26 9.16699 47.167 27.5 63.5s40.5 24.5 66.5 24.5c30.667 0 66.834 -23.5 108.501 -70.5s82.167 -70.5 121.5 -70.5
c30 0 55.833 9.83301 77.5 29.5s32.5 44.5 32.5 74.5c0 40 -19 66.333 -57 79c-34.667 8 -69.667 15.667 -105 23c-38 12 -57 37.333 -57 76c0 40.667 30.333 68.834 91 84.501s91 42.834 91 81.501c0 46.667 -24.333 70 -73 70c-28.667 0 -63.334 -17.167 -104.001 -51.5
s-75 -51.5 -103 -51.5c-22.667 0 -43 7.33301 -61 22s-27 33.334 -27 56.001c0 48 30.333 92.5 91 133.5s129.334 61.5 206.001 61.5c72.667 0 135 -18.333 187 -55c59.333 -42 89 -97.667 89 -167c0 -66.667 -34.667 -122.334 -104 -167.001z" />
    <glyph glyph-name="questiondown" unicode="&#xbf;" horiz-adv-x="1042" 
d="M729 864l-0.000976562 -127.001c0 -39.333 -5 -68.333 -15 -87c-14.667 -27.333 -57.667 -50 -129 -68c-75.333 -18.667 -126.666 -45.667 -153.999 -81c-20 -26.667 -30 -57.667 -30 -93c0 -42.667 14.5 -77.334 43.5 -104.001s65.167 -40 108.5 -40
c57.333 0 119.833 34.833 187.5 104.5s121.167 104.5 160.5 104.5c40 0 72.333 -15 97 -45c22.667 -28 34 -62.667 34 -104c0 -93.333 -47.833 -177.833 -143.5 -253.5s-209.5 -113.5 -341.5 -113.5c-136.667 0 -252 41.667 -346 125
c-97.333 86.667 -146 197.334 -146 332.001c0 112 32.333 206.833 97 284.5s152 126.834 262 147.501c0 138 53 207 159 207c104 0 156 -63 156 -189zM749.999 1313c0 -50 -17.5 -92.499 -52.5 -127.499s-77.167 -52.5 -126.5 -52.5s-91.333 17.667 -126 53
s-52 77.666 -52 126.999s17.333 91.333 52 126s76.667 52 126 52c50 0 92.333 -17.167 127 -51.5s52 -76.5 52 -126.5z" />
    <glyph glyph-name="Agrave" unicode="&#xc0;" horiz-adv-x="1280" 
d="M367 274l-50 -147.001c-34 -100 -87 -150 -159 -150c-46 0 -83.833 15.167 -113.5 45.5s-44.5 68.5 -44.5 114.5c-0 35.333 5.33301 67.333 16 96l379 1029c52.667 143.333 137.334 215 254.001 215c117.333 0 198.666 -64.333 243.999 -193l369 -1046
c14.667 -41.333 22 -76.333 22 -105c0 -47.333 -15.5 -85.166 -46.5 -113.499s-70.167 -42.5 -117.5 -42.5c-83.333 0 -141.333 54 -174 162l-41 135h-538zM461 579.999h348l-168 540zM371 1899c0 37.333 12.168 67.833 36.501 91.5s55.166 35.5 92.499 35.5
c45.333 0 84 -22 116 -66l150 -205c23.333 -32 35 -62 35 -90c0 -74.667 -37 -112 -111 -112c-35.333 0 -72 21 -110 63l-156 172c-35.333 38.667 -53 75.667 -53 111z" />
    <glyph glyph-name="Aacute" unicode="&#xc1;" horiz-adv-x="1280" 
d="M367 274l-50 -147.001c-34 -100 -87 -150 -159 -150c-46 0 -83.833 15.167 -113.5 45.5s-44.5 68.5 -44.5 114.5c-0 35.333 5.33301 67.333 16 96l379 1029c52.667 143.333 137.334 215 254.001 215c117.333 0 198.666 -64.333 243.999 -193l369 -1046
c14.667 -41.333 22 -76.333 22 -105c0 -47.333 -15.5 -85.166 -46.5 -113.499s-70.167 -42.5 -117.5 -42.5c-83.333 0 -141.333 54 -174 162l-41 135h-538zM461 579.999h348l-168 540zM586 1553c-74 0 -110.999 37.332 -110.999 111.999c0 28 11.667 58 35 90l149 205
c32 44 71 66 117 66c35.333 0 65.666 -11.667 90.999 -35s38 -52.666 38 -87.999c0 -38 -17.667 -76.333 -53 -115l-156 -172c-38 -42 -74.667 -63 -110 -63z" />
    <glyph glyph-name="Acircumflex" unicode="&#xc2;" horiz-adv-x="1280" 
d="M367 274l-50 -147.001c-34 -100 -87 -150 -159 -150c-46 0 -83.833 15.167 -113.5 45.5s-44.5 68.5 -44.5 114.5c-0 35.333 5.33301 67.333 16 96l379 1029c52.667 143.333 137.334 215 254.001 215c117.333 0 198.666 -64.333 243.999 -193l369 -1046
c14.667 -41.333 22 -76.333 22 -105c0 -47.333 -15.5 -85.166 -46.5 -113.499s-70.167 -42.5 -117.5 -42.5c-83.333 0 -141.333 54 -174 162l-41 135h-538zM461 579.999h348l-168 540zM651 1658l-178 -108c-34 -20.667 -65.333 -31 -94 -31c-64.667 0 -97 35 -97 105
c0 41.333 20.667 78 62 110l223 174c28 22 56 33 84 33s56 -11 84 -33l223 -174c41.333 -32 62 -68.667 62 -110c0 -70 -32.333 -105 -97 -105c-28.667 0 -60 10.333 -94 31z" />
    <glyph glyph-name="Atilde" unicode="&#xc3;" horiz-adv-x="1280" 
d="M367 274l-50 -147.001c-34 -100 -87 -150 -159 -150c-46 0 -83.833 15.167 -113.5 45.5s-44.5 68.5 -44.5 114.5c-0 35.333 5.33301 67.333 16 96l379 1029c52.667 143.333 137.334 215 254.001 215c117.333 0 198.666 -64.333 243.999 -193l369 -1046
c14.667 -41.333 22 -76.333 22 -105c0 -47.333 -15.5 -85.166 -46.5 -113.499s-70.167 -42.5 -117.5 -42.5c-83.333 0 -141.333 54 -174 162l-41 135h-538zM461 579.999h348l-168 540zM569 1639c-18 0 -41.167 -5.83301 -69.5 -17.5s-48.166 -17.5 -59.499 -17.5
c-60 0 -90 36 -90 108c0 50 16.167 92.333 48.5 127s73.5 52 123.5 52c22 0 53.667 -6.5 95 -19.5s72.666 -19.5 93.999 -19.5c18 0 41.333 6.16699 70 18.5s49 18.5 61 18.5c60 0 90 -37 90 -111c0 -49.333 -16.333 -91.333 -49 -126s-73.667 -52 -123 -52
c-22 0 -53.833 6.5 -95.5 19.5s-73.5 19.5 -95.5 19.5z" />
    <glyph glyph-name="Adieresis" unicode="&#xc4;" horiz-adv-x="1280" 
d="M367 274l-50 -147.001c-34 -100 -87 -150 -159 -150c-46 0 -83.833 15.167 -113.5 45.5s-44.5 68.5 -44.5 114.5c-0 35.333 5.33301 67.333 16 96l379 1029c52.667 143.333 137.334 215 254.001 215c117.333 0 198.666 -64.333 243.999 -193l369 -1046
c14.667 -41.333 22 -76.333 22 -105c0 -47.333 -15.5 -85.166 -46.5 -113.499s-70.167 -42.5 -117.5 -42.5c-83.333 0 -141.333 54 -174 162l-41 135h-538zM461 579.999h348l-168 540zM608 1747c0 -109.333 -47.667 -164 -143 -164c-46.667 0 -82.667 16 -108 48
c-23.333 30 -35 68.667 -35 116c0 48 11.667 87 35 117c25.333 32.667 61.333 49 108 49c95.333 0 143 -55.333 143 -166zM960 1747c0 -109.333 -47.667 -164 -143 -164c-46.667 0 -82.667 16 -108 48c-23.333 30 -35 68.667 -35 116s11.667 86 35 116
c26 33.333 62 50 108 50c95.333 0 143 -55.333 143 -166z" />
    <glyph glyph-name="Aring" unicode="&#xc5;" horiz-adv-x="1280" 
d="M567 1741c0 -22.667 7.66699 -42 23 -58s34.333 -24 57 -24s42 8 58 24s24 35.333 24 58s-8 41.667 -24 57s-35.333 23 -58 23s-41.667 -7.66699 -57 -23s-23 -34.333 -23 -57zM432 1741c0 59.333 21 110.333 63 153s92.667 64 152 64c60 0 111.167 -21.167 153.5 -63.5
s63.5 -93.5 63.5 -153.5s-21.167 -111.167 -63.5 -153.5s-93.5 -63.5 -153.5 -63.5s-110.833 21.167 -152.5 63.5s-62.5 93.5 -62.5 153.5zM367 274l-50 -147.001c-34 -100 -87 -150 -159 -150c-46 0 -83.833 15.167 -113.5 45.5s-44.5 68.5 -44.5 114.5
c-0 35.333 5.33301 67.333 16 96l379 1029c52.667 143.333 137.334 215 254.001 215c117.333 0 198.666 -64.333 243.999 -193l369 -1046c14.667 -41.333 22 -76.333 22 -105c0 -47.333 -15.5 -85.166 -46.5 -113.499s-70.167 -42.5 -117.5 -42.5
c-83.333 0 -141.333 54 -174 162l-41 135h-538zM461 579.999h348l-168 540z" />
    <glyph glyph-name="AE" unicode="&#xc6;" horiz-adv-x="1720" 
d="M1061 0c-102.667 0 -168.333 22.334 -197 67.001c-20 31.333 -30 102.666 -30 213.999h-469l-82 -164c-44.667 -90 -98.667 -135 -162 -135c-44.667 0 -81.5 15 -110.5 45s-43.5 67.333 -43.5 112c0 40.667 9 77 27 109l551 985c44 78 84.333 132.333 121 163
c48.667 40 112 60 190 60h561c157.333 0 236 -52 236 -156c0 -102 -78.667 -153 -236 -153h-270v-260h235c156 0 234 -51.333 234 -154c0 -102 -78 -153 -234 -153h-235v-273h280c157.333 0 236 -51 236 -153c0 -102.667 -78.667 -154 -236 -154h-366zM836.001 1186
l-314 -606h314v606z" />
    <glyph glyph-name="Ccedilla" unicode="&#xc7;" 
d="M770 -43c-221.333 0 -396.999 73.6631 -526.999 220.996c-124 141.333 -186 324.333 -186 549c0 218.667 64.333 400.334 193 545.001c133.333 150 308 225 524 225c124 0 227.667 -23.5 311 -70.5s125 -101.167 125 -162.5c0 -39.333 -13.667 -74.166 -41 -104.499
s-60.666 -45.5 -99.999 -45.5c-24 0 -69.5 9.5 -136.5 28.5s-119.167 28.5 -156.5 28.5c-119.333 0 -211 -47.333 -275 -142c-55.333 -81.333 -83 -184.666 -83 -309.999s29.333 -227.666 88 -306.999c65.333 -88.667 158.666 -133 279.999 -133c50 0 109.333 12.5 178 37.5
s112.667 37.5 132 37.5c36 0 67.167 -15 93.5 -45s39.5 -63.333 39.5 -100c0 -68 -43.833 -127 -131.5 -177s-196.834 -75 -327.501 -75zM754.001 48.9961c67.333 0 124.665 -18 171.998 -54c52.667 -39.333 79 -91.666 79 -156.999
c0 -82.667 -42.667 -145.334 -128 -188.001c-67.333 -34 -146.666 -51 -237.999 -51c-67.333 0 -124.666 9.66699 -171.999 29c-65.333 26.667 -98 68.667 -98 126c0 64 39.333 96 118 96c14.667 0 36.5 -1.66699 65.5 -5s50.833 -5 65.5 -5c63.333 0 95 21.333 95 64
c0 16.667 -12.667 37.667 -38 63s-38 42.333 -38 51c0 20.667 39 31 117 31z" />
    <glyph glyph-name="Egrave" unicode="&#xc8;" horiz-adv-x="1034" 
d="M731 1456c157.333 0 236 -52 236 -156c0 -102 -78.667 -153 -236 -153h-270v-260h233c157.333 0 236 -51.333 236 -154c0 -102 -78.667 -153 -236 -153h-233v-273h280c157.333 0 236 -51 236 -153c0 -102.667 -78.667 -154 -236 -154h-387c-83.333 0 -141 13.667 -173 41
c-34.667 30 -52 86 -52 168v1014c0 86.667 16.667 147.167 50 181.5s93 51.5 179 51.5h373zM248 1899c0 37.333 12.168 67.833 36.501 91.5s55.166 35.5 92.499 35.5c45.333 0 84 -22 116 -66l150 -205c23.333 -32 35 -62 35 -90c0 -74.667 -37 -112 -111 -112
c-35.333 0 -72 21 -110 63l-156 172c-35.333 38.667 -53 75.667 -53 111z" />
    <glyph glyph-name="Eacute" unicode="&#xc9;" horiz-adv-x="1034" 
d="M731 1456c157.333 0 236 -52 236 -156c0 -102 -78.667 -153 -236 -153h-270v-260h233c157.333 0 236 -51.333 236 -154c0 -102 -78.667 -153 -236 -153h-233v-273h280c157.333 0 236 -51 236 -153c0 -102.667 -78.667 -154 -236 -154h-387c-83.333 0 -141 13.667 -173 41
c-34.667 30 -52 86 -52 168v1014c0 86.667 16.667 147.167 50 181.5s93 51.5 179 51.5h373zM463 1553c-74 0 -110.999 37.332 -110.999 111.999c0 28 11.667 58 35 90l149 205c32 44 71 66 117 66c35.333 0 65.666 -11.667 90.999 -35s38 -52.666 38 -87.999
c0 -38 -17.667 -76.333 -53 -115l-156 -172c-38 -42 -74.667 -63 -110 -63z" />
    <glyph glyph-name="Ecircumflex" unicode="&#xca;" horiz-adv-x="1034" 
d="M731 1456c157.333 0 236 -52 236 -156c0 -102 -78.667 -153 -236 -153h-270v-260h233c157.333 0 236 -51.333 236 -154c0 -102 -78.667 -153 -236 -153h-233v-273h280c157.333 0 236 -51 236 -153c0 -102.667 -78.667 -154 -236 -154h-387c-83.333 0 -141 13.667 -173 41
c-34.667 30 -52 86 -52 168v1014c0 86.667 16.667 147.167 50 181.5s93 51.5 179 51.5h373zM531 1658l-178 -108c-34 -20.667 -65.333 -31 -94 -31c-64.667 0 -97 35 -97 105c0 41.333 20.667 78 62 110l223 174c28 22 56 33 84 33s56 -11 84 -33l223 -174
c41.333 -32 62 -68.667 62 -110c0 -70 -32.333 -105 -97 -105c-28.667 0 -60 10.333 -94 31z" />
    <glyph glyph-name="Edieresis" unicode="&#xcb;" horiz-adv-x="1034" 
d="M731 1456c157.333 0 236 -52 236 -156c0 -102 -78.667 -153 -236 -153h-270v-260h233c157.333 0 236 -51.333 236 -154c0 -102 -78.667 -153 -236 -153h-233v-273h280c157.333 0 236 -51 236 -153c0 -102.667 -78.667 -154 -236 -154h-387c-83.333 0 -141 13.667 -173 41
c-34.667 30 -52 86 -52 168v1014c0 86.667 16.667 147.167 50 181.5s93 51.5 179 51.5h373zM485 1747c0 -109.333 -47.667 -164 -143 -164c-46.667 0 -82.667 16 -108 48c-23.333 30 -35 68.667 -35 116c0 48 11.667 87 35 117c25.333 32.667 61.333 49 108 49
c95.333 0 143 -55.333 143 -166zM837 1747c0 -109.333 -47.667 -164 -143 -164c-46.667 0 -82.667 16 -108 48c-23.333 30 -35 68.667 -35 116s11.667 86 35 116c26 33.333 62 50 108 50c95.333 0 143 -55.333 143 -166z" />
    <glyph glyph-name="Igrave" unicode="&#xcc;" horiz-adv-x="606" 
d="M469 217c0 -156.667 -55.333 -235 -166 -235s-166 78.333 -166 235v1022c0 157.333 55.333 236 166 236s166 -78.667 166 -236v-1022zM33 1899c0 37.333 12.168 67.833 36.501 91.5s55.166 35.5 92.499 35.5c45.333 0 84 -22 116 -66l150 -205c23.333 -32 35 -62 35 -90
c0 -74.667 -37 -112 -111 -112c-35.333 0 -72 21 -110 63l-156 172c-35.333 38.667 -53 75.667 -53 111z" />
    <glyph glyph-name="Iacute" unicode="&#xcd;" horiz-adv-x="606" 
d="M469 217c0 -156.667 -55.333 -235 -166 -235s-166 78.333 -166 235v1022c0 157.333 55.333 236 166 236s166 -78.667 166 -236v-1022zM248 1553c-74 0 -110.999 37.332 -110.999 111.999c0 28 11.667 58 35 90l149 205c32 44 71 66 117 66
c35.333 0 65.666 -11.667 90.999 -35s38 -52.666 38 -87.999c0 -38 -17.667 -76.333 -53 -115l-156 -172c-38 -42 -74.667 -63 -110 -63z" />
    <glyph glyph-name="Icircumflex" unicode="&#xce;" horiz-adv-x="606" 
d="M469 217c0 -156.667 -55.333 -235 -166 -235s-166 78.333 -166 235v1022c0 157.333 55.333 236 166 236s166 -78.667 166 -236v-1022zM303 1708l-178 -108c-34 -20.667 -65.333 -31 -94 -31c-64.667 0 -97 35 -97 105c0 41.333 20.667 78 62 110l223 174
c28 22 56 33 84 33s56 -11 84 -33l223 -174c41.333 -32 62 -68.667 62 -110c0 -70 -32.333 -105 -97 -105c-28.667 0 -60 10.333 -94 31z" />
    <glyph glyph-name="Idieresis" unicode="&#xcf;" horiz-adv-x="606" 
d="M469 217c0 -156.667 -55.333 -235 -166 -235s-166 78.333 -166 235v1022c0 157.333 55.333 236 166 236s166 -78.667 166 -236v-1022zM270 1747c0 -109.333 -47.667 -164 -143 -164c-46.667 0 -82.667 16 -108 48c-23.333 30 -35 68.667 -35 116c0 48 11.667 87 35 117
c25.333 32.667 61.333 49 108 49c95.333 0 143 -55.333 143 -166zM622 1747c0 -109.333 -47.667 -164 -143 -164c-46.667 0 -82.667 16 -108 48c-23.333 30 -35 68.667 -35 116s11.667 86 35 116c26 33.333 62 50 108 50c95.333 0 143 -55.333 143 -166z" />
    <glyph glyph-name="Eth" unicode="&#xd0;" horiz-adv-x="1522" 
d="M555 307h151.999c264.667 0 397 146 397 438c0 268 -134 402 -402 402h-147v-301c6.66699 0 19.334 0.333008 38.001 1h44c132.667 0 199 -40 199 -120c0 -79.333 -64.333 -119 -193 -119c-11.333 0 -27 0.333008 -47 1s-33.667 1 -41 1v-303zM720.999 1456
c90 0 171.667 -8.33301 245 -25c155.333 -37.333 278.333 -122 369 -254c86 -124.667 129 -269.334 129 -434.001c0 -225.333 -62 -404.666 -186 -537.999c-127.333 -136.667 -302.666 -205 -525.999 -205h-301c-84 0 -142.333 13.667 -175 41
c-35.333 30.667 -53 86.667 -53 168v399c-130.667 0 -196 40.333 -196 121c0 50 22 83.667 66 101c27.333 10.667 70.666 16 129.999 16v377c0 86 17.167 146.333 51.5 181s94.5 52 180.5 52h266z" />
    <glyph glyph-name="Ntilde" unicode="&#xd1;" horiz-adv-x="1532" 
d="M295 -18c-110.667 0 -166.001 78.333 -166.001 235v1034c0 148 51.333 222 154 222c63.333 0 122 -35.667 176 -107l612 -809v682c0 157.333 55.333 236 166 236s166 -78.667 166 -236v-1059c0 -138 -50.667 -207 -152 -207c-65.333 0 -128.666 40.333 -189.999 121
l-600 793v-670c0 -156.667 -55.333 -235 -166 -235zM707.999 1639c-18 0 -41.167 -5.83301 -69.5 -17.5s-48.166 -17.5 -59.499 -17.5c-60 0 -90 36 -90 108c0 50 16.167 92.333 48.5 127s73.5 52 123.5 52c22 0 53.667 -6.5 95 -19.5s72.666 -19.5 93.999 -19.5
c18 0 41.333 6.16699 70 18.5s49 18.5 61 18.5c60 0 90 -37 90 -111c0 -49.333 -16.333 -91.333 -49 -126s-73.667 -52 -123 -52c-22 0 -53.833 6.5 -95.5 19.5s-73.5 19.5 -95.5 19.5z" />
    <glyph glyph-name="Ograve" unicode="&#xd2;" horiz-adv-x="1546" 
d="M418 723c0 -123.333 27.333 -225.666 82 -306.999c64 -94.667 154.667 -142 272 -142s208 47.333 272 142c54.667 81.333 82 183.666 82 306.999c0 126 -26.667 230.333 -80 313c-62.667 97.333 -154 146 -274 146s-211.333 -48.667 -274 -146
c-53.333 -82.667 -80 -187 -80 -313zM57 727c0 224 62.334 406.667 187.001 548c131.333 148 307.333 222 528 222c221.333 0 397.666 -74 528.999 -222c125.333 -141.333 188 -324 188 -548c0 -224.667 -62.667 -407.667 -188 -549c-130.667 -147.333 -307 -221 -529 -221
s-398 73.667 -528 221c-124.667 141.333 -187 324.333 -187 549zM504.001 1899c0 37.333 12.168 67.833 36.501 91.5s55.166 35.5 92.499 35.5c45.333 0 84 -22 116 -66l150 -205c23.333 -32 35 -62 35 -90c0 -74.667 -37 -112 -111 -112c-35.333 0 -72 21 -110 63l-156 172
c-35.333 38.667 -53 75.667 -53 111z" />
    <glyph glyph-name="Oacute" unicode="&#xd3;" horiz-adv-x="1546" 
d="M418 723c0 -123.333 27.333 -225.666 82 -306.999c64 -94.667 154.667 -142 272 -142s208 47.333 272 142c54.667 81.333 82 183.666 82 306.999c0 126 -26.667 230.333 -80 313c-62.667 97.333 -154 146 -274 146s-211.333 -48.667 -274 -146
c-53.333 -82.667 -80 -187 -80 -313zM57 727c0 224 62.334 406.667 187.001 548c131.333 148 307.333 222 528 222c221.333 0 397.666 -74 528.999 -222c125.333 -141.333 188 -324 188 -548c0 -224.667 -62.667 -407.667 -188 -549c-130.667 -147.333 -307 -221 -529 -221
s-398 73.667 -528 221c-124.667 141.333 -187 324.333 -187 549zM719.001 1553c-74 0 -110.999 37.332 -110.999 111.999c0 28 11.667 58 35 90l149 205c32 44 71 66 117 66c35.333 0 65.666 -11.667 90.999 -35s38 -52.666 38 -87.999c0 -38 -17.667 -76.333 -53 -115
l-156 -172c-38 -42 -74.667 -63 -110 -63z" />
    <glyph glyph-name="Ocircumflex" unicode="&#xd4;" horiz-adv-x="1546" 
d="M418 723c0 -123.333 27.333 -225.666 82 -306.999c64 -94.667 154.667 -142 272 -142s208 47.333 272 142c54.667 81.333 82 183.666 82 306.999c0 126 -26.667 230.333 -80 313c-62.667 97.333 -154 146 -274 146s-211.333 -48.667 -274 -146
c-53.333 -82.667 -80 -187 -80 -313zM57 727c0 224 62.334 406.667 187.001 548c131.333 148 307.333 222 528 222c221.333 0 397.666 -74 528.999 -222c125.333 -141.333 188 -324 188 -548c0 -224.667 -62.667 -407.667 -188 -549c-130.667 -147.333 -307 -221 -529 -221
s-398 73.667 -528 221c-124.667 141.333 -187 324.333 -187 549zM771.001 1658l-178 -108c-34 -20.667 -65.333 -31 -94 -31c-64.667 0 -97 35 -97 105c0 41.333 20.667 78 62 110l223 174c28 22 56 33 84 33s56 -11 84 -33l223 -174c41.333 -32 62 -68.667 62 -110
c0 -70 -32.333 -105 -97 -105c-28.667 0 -60 10.333 -94 31z" />
    <glyph glyph-name="Otilde" unicode="&#xd5;" horiz-adv-x="1546" 
d="M418 723c0 -123.333 27.333 -225.666 82 -306.999c64 -94.667 154.667 -142 272 -142s208 47.333 272 142c54.667 81.333 82 183.666 82 306.999c0 126 -26.667 230.333 -80 313c-62.667 97.333 -154 146 -274 146s-211.333 -48.667 -274 -146
c-53.333 -82.667 -80 -187 -80 -313zM57 727c0 224 62.334 406.667 187.001 548c131.333 148 307.333 222 528 222c221.333 0 397.666 -74 528.999 -222c125.333 -141.333 188 -324 188 -548c0 -224.667 -62.667 -407.667 -188 -549c-130.667 -147.333 -307 -221 -529 -221
s-398 73.667 -528 221c-124.667 141.333 -187 324.333 -187 549zM702.001 1639c-18 0 -41.167 -5.83301 -69.5 -17.5s-48.166 -17.5 -59.499 -17.5c-60 0 -90 36 -90 108c0 50 16.167 92.333 48.5 127s73.5 52 123.5 52c22 0 53.667 -6.5 95 -19.5
s72.666 -19.5 93.999 -19.5c18 0 41.333 6.16699 70 18.5s49 18.5 61 18.5c60 0 90 -37 90 -111c0 -49.333 -16.333 -91.333 -49 -126s-73.667 -52 -123 -52c-22 0 -53.833 6.5 -95.5 19.5s-73.5 19.5 -95.5 19.5z" />
    <glyph glyph-name="Odieresis" unicode="&#xd6;" horiz-adv-x="1546" 
d="M418 723c0 -123.333 27.333 -225.666 82 -306.999c64 -94.667 154.667 -142 272 -142s208 47.333 272 142c54.667 81.333 82 183.666 82 306.999c0 126 -26.667 230.333 -80 313c-62.667 97.333 -154 146 -274 146s-211.333 -48.667 -274 -146
c-53.333 -82.667 -80 -187 -80 -313zM57 727c0 224 62.334 406.667 187.001 548c131.333 148 307.333 222 528 222c221.333 0 397.666 -74 528.999 -222c125.333 -141.333 188 -324 188 -548c0 -224.667 -62.667 -407.667 -188 -549c-130.667 -147.333 -307 -221 -529 -221
s-398 73.667 -528 221c-124.667 141.333 -187 324.333 -187 549zM741.001 1747c0 -109.333 -47.667 -164 -143 -164c-46.667 0 -82.667 16 -108 48c-23.333 30 -35 68.667 -35 116c0 48 11.667 87 35 117c25.333 32.667 61.333 49 108 49c95.333 0 143 -55.333 143 -166z
M1093 1747c0 -109.333 -47.667 -164 -143 -164c-46.667 0 -82.667 16 -108 48c-23.333 30 -35 68.667 -35 116s11.667 86 35 116c26 33.333 62 50 108 50c95.333 0 143 -55.333 143 -166z" />
    <glyph glyph-name="multiply" unicode="&#xd7;" horiz-adv-x="1706" 
d="M416 1202l450 -450l451 450l141 -139l-450 -453l450 -450l-141 -140l-451 451l-450 -451l-140 140l451 450l-451 453z" />
    <glyph glyph-name="Oslash" unicode="&#xd8;" horiz-adv-x="1546" 
d="M201 236c-96 132.667 -144 296.333 -144 491c0 224 62.667 406.667 188 548c130.667 148 306.334 222 527.001 222c174.667 0 323 -48.333 445 -145l102 114c42 46.667 77.333 70 106 70c26.667 0 49.167 -8.16699 67.5 -24.5s27.5 -37.5 27.5 -63.5
c0 -28 -17.333 -62 -52 -102l-116 -134c91.333 -142 137 -303.667 137 -485c0 -224 -63 -406.667 -189 -548c-130.667 -148 -306.667 -222 -528 -222c-180 0 -326 46.333 -438 139l-113 -125c-42.667 -47.333 -78.667 -71 -108 -71c-26.667 0 -48.834 8.66699 -66.501 26
s-26.5 39.333 -26.5 66c0 32 16.667 66 50 102zM1096 933.999l-534.999 -585.999c61.333 -49.333 131.666 -74 210.999 -74c117.333 0 208 47.333 272 142c54.667 81.333 82 183.666 82 306.999c0 72.667 -10 143 -30 211zM453.001 512l533.999 592
c-49.333 52 -121 78 -215 78c-119.333 0 -210.666 -48.667 -273.999 -146c-53.333 -82.667 -80 -187 -80 -313c0 -72 11.667 -142.333 35 -211z" />
    <glyph glyph-name="Ugrave" unicode="&#xd9;" horiz-adv-x="1507" 
d="M129 625l-0.000976562 614.001c0 157.333 55.333 236 166 236s166 -78.667 166 -236v-577c0 -258.667 97.667 -388 293 -388s293 129.333 293 388v577c0 157.333 55 236 165 236c110.667 0 166 -78.667 166 -236v-614c0 -205.333 -52 -366.333 -156 -483
c-109.333 -123.333 -265.333 -185 -468 -185c-203.333 0 -359.666 61.333 -468.999 184c-104 117.333 -156 278.666 -156 483.999zM493.999 1899c0 37.333 12.168 67.833 36.501 91.5s55.166 35.5 92.499 35.5c45.333 0 84 -22 116 -66l150 -205c23.333 -32 35 -62 35 -90
c0 -74.667 -37 -112 -111 -112c-35.333 0 -72 21 -110 63l-156 172c-35.333 38.667 -53 75.667 -53 111z" />
    <glyph glyph-name="Uacute" unicode="&#xda;" horiz-adv-x="1507" 
d="M129 625l-0.000976562 614.001c0 157.333 55.333 236 166 236s166 -78.667 166 -236v-577c0 -258.667 97.667 -388 293 -388s293 129.333 293 388v577c0 157.333 55 236 165 236c110.667 0 166 -78.667 166 -236v-614c0 -205.333 -52 -366.333 -156 -483
c-109.333 -123.333 -265.333 -185 -468 -185c-203.333 0 -359.666 61.333 -468.999 184c-104 117.333 -156 278.666 -156 483.999zM698.999 1553c-74 0 -110.999 37.332 -110.999 111.999c0 28 11.667 58 35 90l149 205c32 44 71 66 117 66
c35.333 0 65.666 -11.667 90.999 -35s38 -52.666 38 -87.999c0 -38 -17.667 -76.333 -53 -115l-156 -172c-38 -42 -74.667 -63 -110 -63z" />
    <glyph glyph-name="Ucircumflex" unicode="&#xdb;" horiz-adv-x="1507" 
d="M129 625l-0.000976562 614.001c0 157.333 55.333 236 166 236s166 -78.667 166 -236v-577c0 -258.667 97.667 -388 293 -388s293 129.333 293 388v577c0 157.333 55 236 165 236c110.667 0 166 -78.667 166 -236v-614c0 -205.333 -52 -366.333 -156 -483
c-109.333 -123.333 -265.333 -185 -468 -185c-203.333 0 -359.666 61.333 -468.999 184c-104 117.333 -156 278.666 -156 483.999zM753.999 1708l-178 -108c-34 -20.667 -65.333 -31 -94 -31c-64.667 0 -97 35 -97 105c0 41.333 20.667 78 62 110l223 174c28 22 56 33 84 33
s56 -11 84 -33l223 -174c41.333 -32 62 -68.667 62 -110c0 -70 -32.333 -105 -97 -105c-28.667 0 -60 10.333 -94 31z" />
    <glyph glyph-name="Udieresis" unicode="&#xdc;" horiz-adv-x="1507" 
d="M129 625l-0.000976562 614.001c0 157.333 55.333 236 166 236s166 -78.667 166 -236v-577c0 -258.667 97.667 -388 293 -388s293 129.333 293 388v577c0 157.333 55 236 165 236c110.667 0 166 -78.667 166 -236v-614c0 -205.333 -52 -366.333 -156 -483
c-109.333 -123.333 -265.333 -185 -468 -185c-203.333 0 -359.666 61.333 -468.999 184c-104 117.333 -156 278.666 -156 483.999zM720.999 1747c0 -109.333 -47.667 -164 -143 -164c-46.667 0 -82.667 16 -108 48c-23.333 30 -35 68.667 -35 116c0 48 11.667 87 35 117
c25.333 32.667 61.333 49 108 49c95.333 0 143 -55.333 143 -166zM1073 1747c0 -109.333 -47.667 -164 -143 -164c-46.667 0 -82.667 16 -108 48c-23.333 30 -35 68.667 -35 116s11.667 86 35 116c26 33.333 62 50 108 50c95.333 0 143 -55.333 143 -166z" />
    <glyph glyph-name="Yacute" unicode="&#xdd;" horiz-adv-x="1057" 
d="M969 1477c36.667 0 70 -14.832 100 -44.499s45 -62.834 45 -99.501c0 -40 -25.333 -96 -76 -168l-336 -479v-469c0 -156.667 -55 -235 -165 -235c-110.667 0 -166 78.333 -166 235v469l-336 475c-49.333 70 -74 126 -74 168c0 42.667 16.333 78 49 106
c30.667 26.667 67.667 40 111 40c54 0 110.667 -42.333 170 -127l248 -355l252 359c58.667 83.333 118 125 178 125zM473 1553c-74 0 -110.999 37.332 -110.999 111.999c0 28 11.667 58 35 90l149 205c32 44 71 66 117 66c35.333 0 65.666 -11.667 90.999 -35
s38 -52.666 38 -87.999c0 -38 -17.667 -76.333 -53 -115l-156 -172c-38 -42 -74.667 -63 -110 -63z" />
    <glyph glyph-name="Thorn" unicode="&#xde;" horiz-adv-x="1241" 
d="M461 551h143c151.333 0 227 64 227 192c0 128.667 -75.667 193 -227 193h-143v-385zM129 1241c0 156 55.333 234 166 234s166 -78.667 166 -236h196c160 0 287.667 -42.333 383 -127c100 -88 150 -211 150 -369c0 -156 -45 -277.167 -135 -363.5
s-213.667 -129.5 -371 -129.5h-223c0 -81.333 -8 -141 -24 -179c-24.667 -59.333 -72 -89 -142 -89c-110.667 0 -166 78.333 -166 235v1024z" />
    <glyph glyph-name="germandbls" unicode="&#xdf;" horiz-adv-x="1194" 
d="M272 -14c-107.333 0 -160.999 78.335 -160.999 235.002v823c0 154 42.667 277.333 128 370c88 94.667 208.333 142 361 142c125.333 0 229.666 -37 312.999 -111c87.333 -77.333 131 -178 131 -302c0 -112 -43.667 -204.333 -131 -277c157.333 -68 236 -190.667 236 -368
c0 -144 -43.667 -266.333 -131 -367c-91.333 -105.333 -208 -158 -350 -158c-104 0 -156 50.667 -156 152c0 53.333 27 94.666 81 123.999l149 74c54 36.667 81 90 81 160c0 69.333 -28.333 120.666 -85 153.999l-157 69c-56.667 30 -85 76 -85 138
c0 49.333 20 87.333 60 114l113 60c40 26 60 62.667 60 110c0 40 -12.833 72.333 -38.5 97s-58.5 37 -98.5 37c-53.333 0 -94 -20.667 -122 -62c-24 -35.333 -36 -81 -36 -137v-842c0 -156.667 -54 -235 -162 -235z" />
    <glyph glyph-name="agrave" unicode="&#xe0;" 
d="M807 98c-66.667 -82 -156.667 -123 -270 -123c-148 0 -268.667 59.333 -362 178c-85.333 109.333 -128 240 -128 392c0 152.667 45 284 135 394c96 118 218.333 177 367 177c108.667 0 194.667 -38.333 258 -115c37.333 68.667 88.666 103 153.999 103
c106 0 159 -78 159 -234v-649c0 -156.667 -53 -235 -159 -235c-69.333 0 -120.666 37.333 -153.999 112zM381 549c0 -71.333 16.333 -131.334 49 -180.001c38 -56 91.333 -84 160 -84c67.333 0 120 28.333 158 85c32.667 49.333 49 109 49 179
c0 68.667 -17 127.334 -51 176.001c-38 54.667 -90 82 -156 82c-67.333 0 -120 -27 -158 -81c-34 -48 -51 -107 -51 -177zM346 1528c0 37.333 12.168 67.833 36.501 91.5s55.166 35.5 92.499 35.5c45.333 0 84 -22 116 -66l150 -205c23.333 -32 35 -62 35 -90
c0 -74.667 -37 -112 -111 -112c-35.333 0 -72 21 -110 63l-156 172c-35.333 38.667 -53 75.667 -53 111z" />
    <glyph glyph-name="aacute" unicode="&#xe1;" 
d="M807 98c-66.667 -82 -156.667 -123 -270 -123c-148 0 -268.667 59.333 -362 178c-85.333 109.333 -128 240 -128 392c0 152.667 45 284 135 394c96 118 218.333 177 367 177c108.667 0 194.667 -38.333 258 -115c37.333 68.667 88.666 103 153.999 103
c106 0 159 -78 159 -234v-649c0 -156.667 -53 -235 -159 -235c-69.333 0 -120.666 37.333 -153.999 112zM381 549c0 -71.333 16.333 -131.334 49 -180.001c38 -56 91.333 -84 160 -84c67.333 0 120 28.333 158 85c32.667 49.333 49 109 49 179
c0 68.667 -17 127.334 -51 176.001c-38 54.667 -90 82 -156 82c-67.333 0 -120 -27 -158 -81c-34 -48 -51 -107 -51 -177zM561 1182c-74 0 -110.999 37.332 -110.999 111.999c0 28 11.667 58 35 90l149 205c32 44 71 66 117 66c35.333 0 65.666 -11.667 90.999 -35
s38 -52.666 38 -87.999c0 -38 -17.667 -76.333 -53 -115l-156 -172c-38 -42 -74.667 -63 -110 -63z" />
    <glyph glyph-name="acircumflex" unicode="&#xe2;" 
d="M807 98c-66.667 -82 -156.667 -123 -270 -123c-148 0 -268.667 59.333 -362 178c-85.333 109.333 -128 240 -128 392c0 152.667 45 284 135 394c96 118 218.333 177 367 177c108.667 0 194.667 -38.333 258 -115c37.333 68.667 88.666 103 153.999 103
c106 0 159 -78 159 -234v-649c0 -156.667 -53 -235 -159 -235c-69.333 0 -120.666 37.333 -153.999 112zM381 549c0 -71.333 16.333 -131.334 49 -180.001c38 -56 91.333 -84 160 -84c67.333 0 120 28.333 158 85c32.667 49.333 49 109 49 179
c0 68.667 -17 127.334 -51 176.001c-38 54.667 -90 82 -156 82c-67.333 0 -120 -27 -158 -81c-34 -48 -51 -107 -51 -177zM616 1337l-178 -108c-34 -20.667 -65.333 -31 -94 -31c-64.667 0 -97 35 -97 105c0 41.333 20.667 78 62 110l223 174c28 22 56 33 84 33
s56 -11 84 -33l223 -174c41.333 -32 62 -68.667 62 -110c0 -70 -32.333 -105 -97 -105c-28.667 0 -60 10.333 -94 31z" />
    <glyph glyph-name="atilde" unicode="&#xe3;" 
d="M807 98c-66.667 -82 -156.667 -123 -270 -123c-148 0 -268.667 59.333 -362 178c-85.333 109.333 -128 240 -128 392c0 152.667 45 284 135 394c96 118 218.333 177 367 177c108.667 0 194.667 -38.333 258 -115c37.333 68.667 88.666 103 153.999 103
c106 0 159 -78 159 -234v-649c0 -156.667 -53 -235 -159 -235c-69.333 0 -120.666 37.333 -153.999 112zM381 549c0 -71.333 16.333 -131.334 49 -180.001c38 -56 91.333 -84 160 -84c67.333 0 120 28.333 158 85c32.667 49.333 49 109 49 179
c0 68.667 -17 127.334 -51 176.001c-38 54.667 -90 82 -156 82c-67.333 0 -120 -27 -158 -81c-34 -48 -51 -107 -51 -177zM544 1268c-18 0 -41.167 -5.83301 -69.5 -17.5s-48.166 -17.5 -59.499 -17.5c-60 0 -90 36 -90 108c0 50 16.167 92.333 48.5 127s73.5 52 123.5 52
c22 0 53.667 -6.5 95 -19.5s72.666 -19.5 93.999 -19.5c18 0 41.333 6.16699 70 18.5s49 18.5 61 18.5c60 0 90 -37 90 -111c0 -49.333 -16.333 -91.333 -49 -126s-73.667 -52 -123 -52c-22 0 -53.833 6.5 -95.5 19.5s-73.5 19.5 -95.5 19.5z" />
    <glyph glyph-name="adieresis" unicode="&#xe4;" 
d="M807 98c-66.667 -82 -156.667 -123 -270 -123c-148 0 -268.667 59.333 -362 178c-85.333 109.333 -128 240 -128 392c0 152.667 45 284 135 394c96 118 218.333 177 367 177c108.667 0 194.667 -38.333 258 -115c37.333 68.667 88.666 103 153.999 103
c106 0 159 -78 159 -234v-649c0 -156.667 -53 -235 -159 -235c-69.333 0 -120.666 37.333 -153.999 112zM381 549c0 -71.333 16.333 -131.334 49 -180.001c38 -56 91.333 -84 160 -84c67.333 0 120 28.333 158 85c32.667 49.333 49 109 49 179
c0 68.667 -17 127.334 -51 176.001c-38 54.667 -90 82 -156 82c-67.333 0 -120 -27 -158 -81c-34 -48 -51 -107 -51 -177zM583 1376c0 -109.333 -47.667 -164 -143 -164c-46.667 0 -82.667 16 -108 48c-23.333 30 -35 68.667 -35 116c0 48 11.667 87 35 117
c25.333 32.667 61.333 49 108 49c95.333 0 143 -55.333 143 -166zM935 1376c0 -109.333 -47.667 -164 -143 -164c-46.667 0 -82.667 16 -108 48c-23.333 30 -35 68.667 -35 116s11.667 86 35 116c26 33.333 62 50 108 50c95.333 0 143 -55.333 143 -166z" />
    <glyph glyph-name="aring" unicode="&#xe5;" 
d="M547 1380c0 -22.667 7.66699 -42 23 -58s34.333 -24 57 -24c22 0 41.167 8.16699 57.5 24.5s24.5 35.5 24.5 57.5c0 22.667 -8 41.667 -24 57s-35.333 23 -58 23s-41.667 -7.66699 -57 -23s-23 -34.333 -23 -57zM412 1380c0 59.333 21 110.333 63 153s92.667 64 152 64
c60 0 111.167 -21.167 153.5 -63.5s63.5 -93.5 63.5 -153.5s-21.167 -111.167 -63.5 -153.5s-93.5 -63.5 -153.5 -63.5s-110.833 21.167 -152.5 63.5s-62.5 93.5 -62.5 153.5zM807 98c-66.667 -82 -156.667 -123 -270 -123c-148 0 -268.667 59.333 -362 178
c-85.333 109.333 -128 240 -128 392c0 152.667 45 284 135 394c96 118 218.333 177 367 177c108.667 0 194.667 -38.333 258 -115c37.333 68.667 88.666 103 153.999 103c106 0 159 -78 159 -234v-649c0 -156.667 -53 -235 -159 -235
c-69.333 0 -120.666 37.333 -153.999 112zM381 549c0 -71.333 16.333 -131.334 49 -180.001c38 -56 91.333 -84 160 -84c67.333 0 120 28.333 158 85c32.667 49.333 49 109 49 179c0 68.667 -17 127.334 -51 176.001c-38 54.667 -90 82 -156 82c-67.333 0 -120 -27 -158 -81
c-34 -48 -51 -107 -51 -177z" />
    <glyph glyph-name="ae" unicode="&#xe6;" horiz-adv-x="1876" 
d="M807 98c-66.667 -82 -156.666 -123.001 -269.999 -123.001c-148 0 -268.667 59.333 -362 178c-85.333 108.667 -128 239.334 -128 392.001c0 152 45 283.333 135 394c96 118 218.333 177 367 177c108.667 0 194.667 -38.333 258 -115c36 66 82.333 99 139 99
c54 0 93.667 -28.667 119 -86c74.667 68 167.334 102 278.001 102c140.667 0 259.667 -53.667 357 -161c95.333 -104 143 -227 143 -369c0 -54 -14.667 -90.667 -44 -110c-22 -14 -60.667 -21 -116 -21h-575c15.333 -124.667 96.666 -187 243.999 -187
c60 0 127.333 16.5 202 49.5s120 49.5 136 49.5c38 0 69.333 -11.5 94 -34.5s37 -53.167 37 -90.5c0 -66 -45.5 -127 -136.5 -183s-195.167 -84 -312.5 -84c-130.667 0 -230.334 38.333 -299.001 115c-23.333 -68 -66.333 -102 -129 -102c-58 0 -103.667 36.667 -137 110z
M1102 665.999l426 0.00195312c-4 55.333 -25.5 101.166 -64.5 137.499s-86.5 54.5 -142.5 54.5c-56.667 0 -104.667 -17.833 -144 -53.5s-64.333 -81.834 -75 -138.501zM369.001 549.001c0 -75.333 18.332 -139 54.999 -191c41.333 -60 98 -90 170 -90s128.667 30 170 90
c36.667 52 55 115.667 55 191c0 74 -18.667 136.667 -56 188c-41.333 57.333 -97.666 86 -168.999 86s-128 -28.667 -170 -86c-36.667 -51.333 -55 -114 -55 -188z" />
    <glyph glyph-name="ccedilla" unicode="&#xe7;" horiz-adv-x="973" 
d="M47 545c0 169.333 50.501 307.166 151.501 413.499s235.5 159.5 403.5 159.5c86 0 162 -13.667 228 -41c88.667 -36.667 133 -92 133 -166c0 -39.333 -12.5 -72 -37.5 -98s-57.167 -39 -96.5 -39c-20 0 -55.667 8.16699 -107 24.5s-91.333 24.5 -120 24.5
c-72 0 -128.333 -28.333 -169 -85c-36 -49.333 -54 -111.666 -54 -186.999c0 -79.333 19 -143.333 57 -192c41.333 -53.333 100.666 -80 177.999 -80c29.333 0 69.5 8.16699 120.5 24.5s84.833 24.5 101.5 24.5c37.333 0 67.5 -13.833 90.5 -41.5s34.5 -60.5 34.5 -98.5
c0 -58.667 -36 -109.167 -108 -151.5s-162.333 -63.5 -271 -63.5c-164 0 -295 55 -393 165c-94.667 105.333 -142 241 -142 407zM568.001 49c67.333 0 124.665 -18 171.998 -54c52.667 -39.333 79 -91.666 79 -156.999c0 -82.667 -42.667 -145.334 -128 -188.001
c-67.333 -34 -146.666 -51 -237.999 -51c-67.333 0 -124.666 9.66699 -171.999 29c-65.333 26.667 -98 68.667 -98 126c0 64 39.333 96 118 96c14.667 0 36.5 -1.66699 65.5 -5s50.833 -5 65.5 -5c63.333 0 95 21.333 95 64c0 16.667 -12.667 37.667 -38 63
s-38 42.333 -38 51c0 20.667 39 31 117 31z" />
    <glyph glyph-name="egrave" unicode="&#xe8;" horiz-adv-x="1147" 
d="M375 666l426.002 0.00195312c-4 55.333 -26 101.166 -66 137.499s-87.667 54.5 -143 54.5c-56.667 0 -104.334 -17.833 -143.001 -53.5s-63.334 -81.834 -74.001 -138.501zM379.002 455.002c15.333 -128.667 96.6689 -192.999 244.002 -192.999
c53.333 0 119.833 17.5 199.5 52.5s126.5 52.5 140.5 52.5c37.333 0 68.166 -11.5 92.499 -34.5s36.5 -53.167 36.5 -90.5c0 -68.667 -48 -131 -144 -187s-210 -84 -342 -84c-162 0 -295.667 54.667 -401 164s-158 245.333 -158 408c0 161.333 49.667 297 149 407
c103.333 113.333 234.666 170 393.999 170c150 0 275.167 -51.333 375.5 -154s150.5 -229.334 150.5 -380.001c0 -54 -14.667 -90.667 -44 -110c-22 -14 -60.667 -21 -116 -21h-577zM336.005 1528c0 37.333 12.168 67.833 36.501 91.5s55.166 35.5 92.499 35.5
c45.333 0 84 -22 116 -66l150 -205c23.333 -32 35 -62 35 -90c0 -74.667 -37 -112 -111 -112c-35.333 0 -72 21 -110 63l-156 172c-35.333 38.667 -53 75.667 -53 111z" />
    <glyph glyph-name="eacute" unicode="&#xe9;" horiz-adv-x="1147" 
d="M375 666l426.002 0.00195312c-4 55.333 -26 101.166 -66 137.499s-87.667 54.5 -143 54.5c-56.667 0 -104.334 -17.833 -143.001 -53.5s-63.334 -81.834 -74.001 -138.501zM379.002 455.002c15.333 -128.667 96.6689 -192.999 244.002 -192.999
c53.333 0 119.833 17.5 199.5 52.5s126.5 52.5 140.5 52.5c37.333 0 68.166 -11.5 92.499 -34.5s36.5 -53.167 36.5 -90.5c0 -68.667 -48 -131 -144 -187s-210 -84 -342 -84c-162 0 -295.667 54.667 -401 164s-158 245.333 -158 408c0 161.333 49.667 297 149 407
c103.333 113.333 234.666 170 393.999 170c150 0 275.167 -51.333 375.5 -154s150.5 -229.334 150.5 -380.001c0 -54 -14.667 -90.667 -44 -110c-22 -14 -60.667 -21 -116 -21h-577zM551.005 1182c-74 0 -110.999 37.332 -110.999 111.999c0 28 11.667 58 35 90l149 205
c32 44 71 66 117 66c35.333 0 65.666 -11.667 90.999 -35s38 -52.666 38 -87.999c0 -38 -17.667 -76.333 -53 -115l-156 -172c-38 -42 -74.667 -63 -110 -63z" />
    <glyph glyph-name="ecircumflex" unicode="&#xea;" horiz-adv-x="1147" 
d="M375 666l426.002 0.00195312c-4 55.333 -26 101.166 -66 137.499s-87.667 54.5 -143 54.5c-56.667 0 -104.334 -17.833 -143.001 -53.5s-63.334 -81.834 -74.001 -138.501zM379.002 455.002c15.333 -128.667 96.6689 -192.999 244.002 -192.999
c53.333 0 119.833 17.5 199.5 52.5s126.5 52.5 140.5 52.5c37.333 0 68.166 -11.5 92.499 -34.5s36.5 -53.167 36.5 -90.5c0 -68.667 -48 -131 -144 -187s-210 -84 -342 -84c-162 0 -295.667 54.667 -401 164s-158 245.333 -158 408c0 161.333 49.667 297 149 407
c103.333 113.333 234.666 170 393.999 170c150 0 275.167 -51.333 375.5 -154s150.5 -229.334 150.5 -380.001c0 -54 -14.667 -90.667 -44 -110c-22 -14 -60.667 -21 -116 -21h-577zM606.005 1337l-178 -108c-34 -20.667 -65.333 -31 -94 -31c-64.667 0 -97 35 -97 105
c0 41.333 20.667 78 62 110l223 174c28 22 56 33 84 33s56 -11 84 -33l223 -174c41.333 -32 62 -68.667 62 -110c0 -70 -32.333 -105 -97 -105c-28.667 0 -60 10.333 -94 31z" />
    <glyph glyph-name="edieresis" unicode="&#xeb;" horiz-adv-x="1147" 
d="M375 666l426.002 0.00195312c-4 55.333 -26 101.166 -66 137.499s-87.667 54.5 -143 54.5c-56.667 0 -104.334 -17.833 -143.001 -53.5s-63.334 -81.834 -74.001 -138.501zM379.002 455.002c15.333 -128.667 96.6689 -192.999 244.002 -192.999
c53.333 0 119.833 17.5 199.5 52.5s126.5 52.5 140.5 52.5c37.333 0 68.166 -11.5 92.499 -34.5s36.5 -53.167 36.5 -90.5c0 -68.667 -48 -131 -144 -187s-210 -84 -342 -84c-162 0 -295.667 54.667 -401 164s-158 245.333 -158 408c0 161.333 49.667 297 149 407
c103.333 113.333 234.666 170 393.999 170c150 0 275.167 -51.333 375.5 -154s150.5 -229.334 150.5 -380.001c0 -54 -14.667 -90.667 -44 -110c-22 -14 -60.667 -21 -116 -21h-577zM573.005 1376c0 -109.333 -47.667 -164 -143 -164c-46.667 0 -82.667 16 -108 48
c-23.333 30 -35 68.667 -35 116c0 48 11.667 87 35 117c25.333 32.667 61.333 49 108 49c95.333 0 143 -55.333 143 -166zM925.005 1376c0 -109.333 -47.667 -164 -143 -164c-46.667 0 -82.667 16 -108 48c-23.333 30 -35 68.667 -35 116s11.667 86 35 116
c26 33.333 62 50 108 50c95.333 0 143 -55.333 143 -166z" />
    <glyph glyph-name="igrave" unicode="&#xec;" horiz-adv-x="563" 
d="M442 221c0 -156.667 -53 -235 -159 -235c-108 0 -162 78.333 -162 235v649c0 156 54 234 162 234c106 0 159 -78 159 -234v-649zM13 1528c0 37.333 12.168 67.833 36.501 91.5s55.166 35.5 92.499 35.5c45.333 0 84 -22 116 -66l150 -205c23.333 -32 35 -62 35 -90
c0 -74.667 -37 -112 -111 -112c-35.333 0 -72 21 -110 63l-156 172c-35.333 38.667 -53 75.667 -53 111z" />
    <glyph glyph-name="iacute" unicode="&#xed;" horiz-adv-x="563" 
d="M442 221c0 -156.667 -53 -235 -159 -235c-108 0 -162 78.333 -162 235v649c0 156 54 234 162 234c106 0 159 -78 159 -234v-649zM228 1182c-74 0 -110.999 37.332 -110.999 111.999c0 28 11.667 58 35 90l149 205c32 44 71 66 117 66c35.333 0 65.666 -11.667 90.999 -35
s38 -52.666 38 -87.999c0 -38 -17.667 -76.333 -53 -115l-156 -172c-38 -42 -74.667 -63 -110 -63z" />
    <glyph glyph-name="icircumflex" unicode="&#xee;" horiz-adv-x="563" 
d="M442 221c0 -156.667 -53 -235 -159 -235c-108 0 -162 78.333 -162 235v649c0 156 54 234 162 234c106 0 159 -78 159 -234v-649zM283 1337l-178 -108c-34 -20.667 -65.333 -31 -94 -31c-64.667 0 -97 35 -97 105c0 41.333 20.667 78 62 110l223 174c28 22 56 33 84 33
s56 -11 84 -33l223 -174c41.333 -32 62 -68.667 62 -110c0 -70 -32.333 -105 -97 -105c-28.667 0 -60 10.333 -94 31z" />
    <glyph glyph-name="idieresis" unicode="&#xef;" horiz-adv-x="563" 
d="M442 221c0 -156.667 -53 -235 -159 -235c-108 0 -162 78.333 -162 235v649c0 156 54 234 162 234c106 0 159 -78 159 -234v-649zM250 1376c0 -109.333 -47.667 -164 -143 -164c-46.667 0 -82.667 16 -108 48c-23.333 30 -35 68.667 -35 116c0 48 11.667 87 35 117
c25.333 32.667 61.333 49 108 49c95.333 0 143 -55.333 143 -166zM602 1376c0 -109.333 -47.667 -164 -143 -164c-46.667 0 -82.667 16 -108 48c-23.333 30 -35 68.667 -35 116s11.667 86 35 116c26 33.333 62 50 108 50c95.333 0 143 -55.333 143 -166z" />
    <glyph glyph-name="eth" unicode="&#xf0;" horiz-adv-x="1130" 
d="M567 1040l-93.998 128.998l-158 -92c-14 -8 -29 -12 -45 -12c-28.667 0 -43 16.333 -43 49c0 24 12.333 43 37 57l144 82c-62 84 -93 147 -93 189c0 34 11 63 33 87s50 36 84 36c54 0 128.333 -54.667 223 -164l138 84c13.333 8 27 12 41 12c30 0 45 -16.333 45 -49
c0 -24 -11.667 -43 -35 -57l-121 -72c116 -145.333 199 -264.666 249 -357.999c75.333 -141.333 113 -280 113 -416c0 -165.333 -44.667 -301.333 -134 -408c-95.333 -113.333 -224 -170 -386 -170c-154.667 0 -280.334 53.333 -377.001 160
c-94 102.667 -141 232.334 -141 389.001c0 147.333 44.167 273 132.5 377s193.166 156 314.499 156c16 0 40.333 -3 73 -9zM365.002 517.998c0 -69.333 15.332 -128 45.999 -176c36.667 -56 88 -84 154 -84c66.667 0 118.334 27.667 155.001 83c32 48.667 48 107.667 48 177
c0 68.667 -16.333 127 -49 175c-37.333 55.333 -88.666 83 -153.999 83c-64.667 0 -115.334 -28 -152.001 -84c-32 -48 -48 -106 -48 -174z" />
    <glyph glyph-name="ntilde" unicode="&#xf1;" horiz-adv-x="1206" 
d="M111 221l0.000976562 649c0 156 53.667 234 161 234c64.667 0 116 -34.333 154 -103c66 72.667 161 109 285 109c262 0 393 -142 393 -426v-463c0 -156.667 -54 -235 -162 -235s-162 78.333 -162 235v365c0 76.667 -9.33301 133.667 -28 171
c-26.667 52.667 -75.334 79 -146.001 79c-114.667 0 -172 -82 -172 -246v-369c0 -156.667 -54 -235 -162 -235c-107.333 0 -161 78.333 -161 235zM553.001 1268c-18 0 -41.167 -5.83301 -69.5 -17.5s-48.166 -17.5 -59.499 -17.5c-60 0 -90 36 -90 108
c0 50 16.167 92.333 48.5 127s73.5 52 123.5 52c22 0 53.667 -6.5 95 -19.5s72.666 -19.5 93.999 -19.5c18 0 41.333 6.16699 70 18.5s49 18.5 61 18.5c60 0 90 -37 90 -111c0 -49.333 -16.333 -91.333 -49 -126s-73.667 -52 -123 -52c-22 0 -53.833 6.5 -95.5 19.5
s-73.5 19.5 -95.5 19.5z" />
    <glyph glyph-name="ograve" unicode="&#xf2;" horiz-adv-x="1188" 
d="M381 549c0 -74 16.667 -136.333 50 -187c38 -58.667 92.333 -88 163 -88c70 0 124.333 29.333 163 88c33.333 50.667 50 113 50 187c0 71.333 -17.333 132.333 -52 183c-39.333 58 -93 87 -161 87c-69.333 0 -123.333 -28.667 -162 -86c-34 -50.667 -51 -112 -51 -184z
M47 545c0 164.667 49.667 300.999 149 408.999c102 112 234.667 168 398 168c164 0 296.667 -55.667 398 -167c98 -108 147 -244.667 147 -410s-49 -302 -147 -410c-101.333 -112 -234 -168 -398 -168c-163.333 0 -296 56 -398 168
c-99.333 108.667 -149 245.334 -149 410.001zM324 1528c0 37.333 12.168 67.833 36.501 91.5s55.166 35.5 92.499 35.5c45.333 0 84 -22 116 -66l150 -205c23.333 -32 35 -62 35 -90c0 -74.667 -37 -112 -111 -112c-35.333 0 -72 21 -110 63l-156 172
c-35.333 38.667 -53 75.667 -53 111z" />
    <glyph glyph-name="oacute" unicode="&#xf3;" horiz-adv-x="1188" 
d="M381 549c0 -74 16.667 -136.333 50 -187c38 -58.667 92.333 -88 163 -88c70 0 124.333 29.333 163 88c33.333 50.667 50 113 50 187c0 71.333 -17.333 132.333 -52 183c-39.333 58 -93 87 -161 87c-69.333 0 -123.333 -28.667 -162 -86c-34 -50.667 -51 -112 -51 -184z
M47 545c0 164.667 49.667 300.999 149 408.999c102 112 234.667 168 398 168c164 0 296.667 -55.667 398 -167c98 -108 147 -244.667 147 -410s-49 -302 -147 -410c-101.333 -112 -234 -168 -398 -168c-163.333 0 -296 56 -398 168
c-99.333 108.667 -149 245.334 -149 410.001zM539 1182c-74 0 -110.999 37.332 -110.999 111.999c0 28 11.667 58 35 90l149 205c32 44 71 66 117 66c35.333 0 65.666 -11.667 90.999 -35s38 -52.666 38 -87.999c0 -38 -17.667 -76.333 -53 -115l-156 -172
c-38 -42 -74.667 -63 -110 -63z" />
    <glyph glyph-name="ocircumflex" unicode="&#xf4;" horiz-adv-x="1188" 
d="M381 549c0 -74 16.667 -136.333 50 -187c38 -58.667 92.333 -88 163 -88c70 0 124.333 29.333 163 88c33.333 50.667 50 113 50 187c0 71.333 -17.333 132.333 -52 183c-39.333 58 -93 87 -161 87c-69.333 0 -123.333 -28.667 -162 -86c-34 -50.667 -51 -112 -51 -184z
M47 545c0 164.667 49.667 300.999 149 408.999c102 112 234.667 168 398 168c164 0 296.667 -55.667 398 -167c98 -108 147 -244.667 147 -410s-49 -302 -147 -410c-101.333 -112 -234 -168 -398 -168c-163.333 0 -296 56 -398 168
c-99.333 108.667 -149 245.334 -149 410.001zM594 1337l-178 -108c-34 -20.667 -65.333 -31 -94 -31c-64.667 0 -97 35 -97 105c0 41.333 20.667 78 62 110l223 174c28 22 56 33 84 33s56 -11 84 -33l223 -174c41.333 -32 62 -68.667 62 -110c0 -70 -32.333 -105 -97 -105
c-28.667 0 -60 10.333 -94 31z" />
    <glyph glyph-name="otilde" unicode="&#xf5;" horiz-adv-x="1188" 
d="M381 549c0 -74 16.667 -136.333 50 -187c38 -58.667 92.333 -88 163 -88c70 0 124.333 29.333 163 88c33.333 50.667 50 113 50 187c0 71.333 -17.333 132.333 -52 183c-39.333 58 -93 87 -161 87c-69.333 0 -123.333 -28.667 -162 -86c-34 -50.667 -51 -112 -51 -184z
M47 545c0 164.667 49.667 300.999 149 408.999c102 112 234.667 168 398 168c164 0 296.667 -55.667 398 -167c98 -108 147 -244.667 147 -410s-49 -302 -147 -410c-101.333 -112 -234 -168 -398 -168c-163.333 0 -296 56 -398 168
c-99.333 108.667 -149 245.334 -149 410.001zM522 1268c-18 0 -41.167 -5.83301 -69.5 -17.5s-48.166 -17.5 -59.499 -17.5c-60 0 -90 36 -90 108c0 50 16.167 92.333 48.5 127s73.5 52 123.5 52c22 0 53.667 -6.5 95 -19.5s72.666 -19.5 93.999 -19.5
c18 0 41.333 6.16699 70 18.5s49 18.5 61 18.5c60 0 90 -37 90 -111c0 -49.333 -16.333 -91.333 -49 -126s-73.667 -52 -123 -52c-22 0 -53.833 6.5 -95.5 19.5s-73.5 19.5 -95.5 19.5z" />
    <glyph glyph-name="odieresis" unicode="&#xf6;" horiz-adv-x="1188" 
d="M381 549c0 -74 16.667 -136.333 50 -187c38 -58.667 92.333 -88 163 -88c70 0 124.333 29.333 163 88c33.333 50.667 50 113 50 187c0 71.333 -17.333 132.333 -52 183c-39.333 58 -93 87 -161 87c-69.333 0 -123.333 -28.667 -162 -86c-34 -50.667 -51 -112 -51 -184z
M47 545c0 164.667 49.667 300.999 149 408.999c102 112 234.667 168 398 168c164 0 296.667 -55.667 398 -167c98 -108 147 -244.667 147 -410s-49 -302 -147 -410c-101.333 -112 -234 -168 -398 -168c-163.333 0 -296 56 -398 168
c-99.333 108.667 -149 245.334 -149 410.001zM561 1376c0 -109.333 -47.667 -164 -143 -164c-46.667 0 -82.667 16 -108 48c-23.333 30 -35 68.667 -35 116c0 48 11.667 87 35 117c25.333 32.667 61.333 49 108 49c95.333 0 143 -55.333 143 -166zM913 1376
c0 -109.333 -47.667 -164 -143 -164c-46.667 0 -82.667 16 -108 48c-23.333 30 -35 68.667 -35 116s11.667 86 35 116c26 33.333 62 50 108 50c95.333 0 143 -55.333 143 -166z" />
    <glyph glyph-name="divide" unicode="&#xf7;" horiz-adv-x="1706" 
d="M854 369c41.333 0 77 -15 107 -45s45 -65.667 45 -107s-15 -76.5 -45 -105.5s-65.667 -43.5 -107 -43.5c-42.667 0 -78.667 14.333 -108 43s-44 64 -44 106s14.833 77.833 44.5 107.5s65.5 44.5 107.5 44.5zM254 711h1198v-199h-1198v199zM854 1155
c41.333 0 77 -14.833 107 -44.5s45 -65.167 45 -106.5c0 -42 -14.833 -77.833 -44.5 -107.5s-65.5 -44.5 -107.5 -44.5s-77.833 14.833 -107.5 44.5s-44.5 65.5 -44.5 107.5s14.833 77.667 44.5 107s65.5 44 107.5 44z" />
    <glyph glyph-name="oslash" unicode="&#xf8;" horiz-adv-x="1188" 
d="M154 190c-71.333 107.333 -107.002 225.666 -107.002 354.999c0 164 49.667 300.333 149 409c102.667 112 235.334 168 398.001 168c132.667 0 243.334 -35.333 332.001 -106l92 94c28 28.667 54 43 78 43c20 0 36.833 -7 50.5 -21s20.5 -31 20.5 -51
c0 -24 -13.667 -50.667 -41 -80l-94 -100c71.333 -91.333 107 -210 107 -356c0 -165.333 -49 -302 -147 -410c-101.333 -112 -234 -168 -398 -168c-127.333 0 -239.333 37.667 -336 113l-90 -98c-26 -28.667 -52 -43 -78 -43c-48 0 -72 23.667 -72 71
c0 24.667 13.667 51.334 41 80.001zM808.998 666l-350 -371c40.667 -28.667 84.334 -43 131.001 -43c75.333 0 134.666 32.667 177.999 98c36.667 56 55 123.667 55 203c0 17.333 -4.66699 55 -14 113zM378.998 430l344.001 369.001c-38 27.333 -79 41 -123 41
c-74.667 0 -133.334 -31 -176.001 -93c-38 -54 -57 -120 -57 -198c0 -36.667 4 -76.334 12 -119.001z" />
    <glyph glyph-name="ugrave" unicode="&#xf9;" horiz-adv-x="1186" 
d="M104 440l0.00195312 430c0 156 54 234 162 234c106.667 0 160 -78 160 -234v-364c0 -73.333 9 -127.333 27 -162c25.333 -49.333 71.666 -74 138.999 -74s113.666 24.667 138.999 74c18 34.667 27 88.667 27 162v364c0 156 54 234 162 234c106 0 159 -78 159 -234v-430
c0 -155.333 -42.167 -273 -126.5 -353s-204.5 -120 -360.5 -120c-156.667 0 -276.667 39.667 -360 119c-85.333 80.667 -128 198.667 -128 354zM324.002 1528c0 37.333 12.168 67.833 36.501 91.5s55.166 35.5 92.499 35.5c45.333 0 84 -22 116 -66l150 -205
c23.333 -32 35 -62 35 -90c0 -74.667 -37 -112 -111 -112c-35.333 0 -72 21 -110 63l-156 172c-35.333 38.667 -53 75.667 -53 111z" />
    <glyph glyph-name="uacute" unicode="&#xfa;" horiz-adv-x="1186" 
d="M104 440l0.00195312 430c0 156 54 234 162 234c106.667 0 160 -78 160 -234v-364c0 -73.333 9 -127.333 27 -162c25.333 -49.333 71.666 -74 138.999 -74s113.666 24.667 138.999 74c18 34.667 27 88.667 27 162v364c0 156 54 234 162 234c106 0 159 -78 159 -234v-430
c0 -155.333 -42.167 -273 -126.5 -353s-204.5 -120 -360.5 -120c-156.667 0 -276.667 39.667 -360 119c-85.333 80.667 -128 198.667 -128 354zM539.002 1182c-74 0 -110.999 37.332 -110.999 111.999c0 28 11.667 58 35 90l149 205c32 44 71 66 117 66
c35.333 0 65.666 -11.667 90.999 -35s38 -52.666 38 -87.999c0 -38 -17.667 -76.333 -53 -115l-156 -172c-38 -42 -74.667 -63 -110 -63z" />
    <glyph glyph-name="ucircumflex" unicode="&#xfb;" horiz-adv-x="1186" 
d="M104 440l0.00195312 430c0 156 54 234 162 234c106.667 0 160 -78 160 -234v-364c0 -73.333 9 -127.333 27 -162c25.333 -49.333 71.666 -74 138.999 -74s113.666 24.667 138.999 74c18 34.667 27 88.667 27 162v364c0 156 54 234 162 234c106 0 159 -78 159 -234v-430
c0 -155.333 -42.167 -273 -126.5 -353s-204.5 -120 -360.5 -120c-156.667 0 -276.667 39.667 -360 119c-85.333 80.667 -128 198.667 -128 354zM594.002 1337l-178 -108c-34 -20.667 -65.333 -31 -94 -31c-64.667 0 -97 35 -97 105c0 41.333 20.667 78 62 110l223 174
c28 22 56 33 84 33s56 -11 84 -33l223 -174c41.333 -32 62 -68.667 62 -110c0 -70 -32.333 -105 -97 -105c-28.667 0 -60 10.333 -94 31z" />
    <glyph glyph-name="udieresis" unicode="&#xfc;" horiz-adv-x="1186" 
d="M104 440l0.00195312 430c0 156 54 234 162 234c106.667 0 160 -78 160 -234v-364c0 -73.333 9 -127.333 27 -162c25.333 -49.333 71.666 -74 138.999 -74s113.666 24.667 138.999 74c18 34.667 27 88.667 27 162v364c0 156 54 234 162 234c106 0 159 -78 159 -234v-430
c0 -155.333 -42.167 -273 -126.5 -353s-204.5 -120 -360.5 -120c-156.667 0 -276.667 39.667 -360 119c-85.333 80.667 -128 198.667 -128 354zM561.002 1376c0 -109.333 -47.667 -164 -143 -164c-46.667 0 -82.667 16 -108 48c-23.333 30 -35 68.667 -35 116
c0 48 11.667 87 35 117c25.333 32.667 61.333 49 108 49c95.333 0 143 -55.333 143 -166zM913.002 1376c0 -109.333 -47.667 -164 -143 -164c-46.667 0 -82.667 16 -108 48c-23.333 30 -35 68.667 -35 116s11.667 86 35 116c26 33.333 62 50 108 50
c95.333 0 143 -55.333 143 -166z" />
    <glyph glyph-name="yacute" unicode="&#xfd;" horiz-adv-x="985" 
d="M846 1104c48 0 86.332 -13.6689 114.999 -41.002s43 -65 43 -113c0 -32 -9 -69.333 -27 -112l-492 -1168c-36.667 -87.333 -83.667 -131 -141 -131c-48.667 0 -87.5 13.833 -116.5 41.5s-43.5 65.834 -43.5 114.501c0 34 9 70.667 27 110l133 289l-326 760
c-10.667 24.667 -16 54.667 -16 90c0 45.333 14.833 83.333 44.5 114s66.834 46 111.501 46s80.667 -15.667 108 -47c18 -21.333 36.667 -57.666 56 -108.999l182 -487l198 514c33.333 86 81.333 129 144 129zM438.999 1182c-74 0 -110.999 37.332 -110.999 111.999
c0 28 11.667 58 35 90l149 205c32 44 71 66 117 66c35.333 0 65.666 -11.667 90.999 -35s38 -52.666 38 -87.999c0 -38 -17.667 -76.333 -53 -115l-156 -172c-38 -42 -74.667 -63 -110 -63z" />
    <glyph glyph-name="thorn" unicode="&#xfe;" 
d="M272 -451c-107.333 0 -160.999 78.667 -160.999 236v1544c0 157.333 53.667 236 161 236c108 0 162 -78.667 162 -236v-321c64 69.333 150 104 258 104c148.667 0 269.667 -58.667 363 -176c86 -108.667 129 -239 129 -391c0 -161.333 -48.5 -298.333 -145.5 -411
s-213.833 -169 -350.5 -169c-94.667 0 -179.334 31.333 -254.001 94v-274c0 -157.333 -54 -236 -162 -236zM428.001 541c0 -74 16.667 -136.333 50 -187c38 -58.667 92.333 -88 163 -88c70 0 124.333 29.333 163 88c33.333 50.667 50 113 50 187
c0 71.333 -17.333 132.333 -52 183c-39.333 58 -93 87 -161 87c-68.667 0 -122.667 -29 -162 -87c-34 -50 -51 -111 -51 -183z" />
    <glyph glyph-name="ydieresis" unicode="&#xff;" horiz-adv-x="985" 
d="M846 1104c48 0 86.332 -13.6689 114.999 -41.002s43 -65 43 -113c0 -32 -9 -69.333 -27 -112l-492 -1168c-36.667 -87.333 -83.667 -131 -141 -131c-48.667 0 -87.5 13.833 -116.5 41.5s-43.5 65.834 -43.5 114.501c0 34 9 70.667 27 110l133 289l-326 760
c-10.667 24.667 -16 54.667 -16 90c0 45.333 14.833 83.333 44.5 114s66.834 46 111.501 46s80.667 -15.667 108 -47c18 -21.333 36.667 -57.666 56 -108.999l182 -487l198 514c33.333 86 81.333 129 144 129zM460.999 1376c0 -109.333 -47.667 -164 -143 -164
c-46.667 0 -82.667 16 -108 48c-23.333 30 -35 68.667 -35 116c0 48 11.667 87 35 117c25.333 32.667 61.333 49 108 49c95.333 0 143 -55.333 143 -166zM812.999 1376c0 -109.333 -47.667 -164 -143 -164c-46.667 0 -82.667 16 -108 48c-23.333 30 -35 68.667 -35 116
s11.667 86 35 116c26 33.333 62 50 108 50c95.333 0 143 -55.333 143 -166z" />
    <glyph glyph-name="glyph271" unicode="&#x102;" horiz-adv-x="1280" 
d="M367 274l-50 -147.001c-34 -100 -87 -150 -159 -150c-46 0 -83.833 15.167 -113.5 45.5s-44.5 68.5 -44.5 114.5c-0 35.333 5.33301 67.333 16 96l379 1029c52.667 143.333 137.334 215 254.001 215c117.333 0 198.666 -64.333 243.999 -193l369 -1046
c14.667 -41.333 22 -76.333 22 -105c0 -47.333 -15.5 -85.166 -46.5 -113.499s-70.167 -42.5 -117.5 -42.5c-83.333 0 -141.333 54 -174 162l-41 135h-538zM461 579.999h348l-168 540zM652 1547c-81.333 0 -155.333 21 -222 63c-77.333 48 -116 110.333 -116 187
c0 74.667 35.667 112 107 112c34.667 0 68 -22.167 100 -66.5s75.667 -66.5 131 -66.5c56 0 99.667 22.167 131 66.5s64 66.5 98 66.5c72.667 0 109 -37.333 109 -112c0 -77.333 -38.333 -140 -115 -188c-66.667 -41.333 -141 -62 -223 -62z" />
    <glyph glyph-name="glyph272" unicode="&#x103;" 
d="M807 98c-66.667 -82 -156.667 -123 -270 -123c-148 0 -268.667 59.333 -362 178c-85.333 109.333 -128 240 -128 392c0 152.667 45 284 135 394c96 118 218.333 177 367 177c108.667 0 194.667 -38.333 258 -115c37.333 68.667 88.666 103 153.999 103
c106 0 159 -78 159 -234v-649c0 -156.667 -53 -235 -159 -235c-69.333 0 -120.666 37.333 -153.999 112zM381 549c0 -71.333 16.333 -131.334 49 -180.001c38 -56 91.333 -84 160 -84c67.333 0 120 28.333 158 85c32.667 49.333 49 109 49 179
c0 68.667 -17 127.334 -51 176.001c-38 54.667 -90 82 -156 82c-67.333 0 -120 -27 -158 -81c-34 -48 -51 -107 -51 -177zM622 1223c-81.333 0 -155.333 21 -222 63c-77.333 48 -116 110.333 -116 187c0 74.667 35.667 112 107 112c34.667 0 68 -22.167 100 -66.5
s75.667 -66.5 131 -66.5c56 0 99.667 22.167 131 66.5s64 66.5 98 66.5c72.667 0 109 -37.333 109 -112c0 -77.333 -38.333 -140 -115 -188c-66.667 -41.333 -141 -62 -223 -62z" />
    <glyph glyph-name="Cacute" unicode="&#x106;" 
d="M770 -43c-221.333 0 -396.999 73.6631 -526.999 220.996c-124 141.333 -186 324.333 -186 549c0 218.667 64.333 400.334 193 545.001c133.333 150 308 225 524 225c124 0 227.667 -23.5 311 -70.5s125 -101.167 125 -162.5c0 -39.333 -13.667 -74.166 -41 -104.499
s-60.666 -45.5 -99.999 -45.5c-24 0 -69.5 9.5 -136.5 28.5s-119.167 28.5 -156.5 28.5c-119.333 0 -211 -47.333 -275 -142c-55.333 -81.333 -83 -184.666 -83 -309.999s29.333 -227.666 88 -306.999c65.333 -88.667 158.666 -133 279.999 -133c50 0 109.333 12.5 178 37.5
s112.667 37.5 132 37.5c36 0 67.167 -15 93.5 -45s39.5 -63.333 39.5 -100c0 -68 -43.833 -127 -131.5 -177s-196.834 -75 -327.501 -75zM695.001 1553c-74 0 -110.999 37.332 -110.999 111.999c0 28 11.667 58 35 90l149 205c32 44 71 66 117 66
c35.333 0 65.666 -11.667 90.999 -35s38 -52.666 38 -87.999c0 -38 -17.667 -76.333 -53 -115l-156 -172c-38 -42 -74.667 -63 -110 -63z" />
    <glyph glyph-name="cacute" unicode="&#x107;" horiz-adv-x="973" 
d="M47 545c0 169.333 50.501 307.166 151.501 413.499s235.5 159.5 403.5 159.5c86 0 162 -13.667 228 -41c88.667 -36.667 133 -92 133 -166c0 -39.333 -12.5 -72 -37.5 -98s-57.167 -39 -96.5 -39c-20 0 -55.667 8.16699 -107 24.5s-91.333 24.5 -120 24.5
c-72 0 -128.333 -28.333 -169 -85c-36 -49.333 -54 -111.666 -54 -186.999c0 -79.333 19 -143.333 57 -192c41.333 -53.333 100.666 -80 177.999 -80c29.333 0 69.5 8.16699 120.5 24.5s84.833 24.5 101.5 24.5c37.333 0 67.5 -13.833 90.5 -41.5s34.5 -60.5 34.5 -98.5
c0 -58.667 -36 -109.167 -108 -151.5s-162.333 -63.5 -271 -63.5c-164 0 -295 55 -393 165c-94.667 105.333 -142 241 -142 407zM514.001 1182c-74 0 -110.999 37.332 -110.999 111.999c0 28 11.667 58 35 90l149 205c32 44 71 66 117 66
c35.333 0 65.666 -11.667 90.999 -35s38 -52.666 38 -87.999c0 -38 -17.667 -76.333 -53 -115l-156 -172c-38 -42 -74.667 -63 -110 -63z" />
    <glyph glyph-name="Ccaron" unicode="&#x10c;" 
d="M770 -43c-221.333 0 -396.999 73.6631 -526.999 220.996c-124 141.333 -186 324.333 -186 549c0 218.667 64.333 400.334 193 545.001c133.333 150 308 225 524 225c124 0 227.667 -23.5 311 -70.5s125 -101.167 125 -162.5c0 -39.333 -13.667 -74.166 -41 -104.499
s-60.666 -45.5 -99.999 -45.5c-24 0 -69.5 9.5 -136.5 28.5s-119.167 28.5 -156.5 28.5c-119.333 0 -211 -47.333 -275 -142c-55.333 -81.333 -83 -184.666 -83 -309.999s29.333 -227.666 88 -306.999c65.333 -88.667 158.666 -133 279.999 -133c50 0 109.333 12.5 178 37.5
s112.667 37.5 132 37.5c36 0 67.167 -15 93.5 -45s39.5 -63.333 39.5 -100c0 -68 -43.833 -127 -131.5 -177s-196.834 -75 -327.501 -75zM750.001 1850l178 106c36.667 22 68 33 94 33c29.333 0 52.833 -10.333 70.5 -31s26.5 -46 26.5 -76c0 -41.333 -20.667 -78 -62 -110
l-223 -174c-26.667 -20.667 -54.667 -31 -84 -31s-57.333 10.333 -84 31l-223 174c-41.333 32 -62 68.667 -62 110c0 30 8.83301 55.333 26.5 76s41.167 31 70.5 31c26 0 57.333 -11 94 -33z" />
    <glyph glyph-name="ccaron" unicode="&#x10d;" horiz-adv-x="973" 
d="M47 545c0 169.333 50.501 307.166 151.501 413.499s235.5 159.5 403.5 159.5c86 0 162 -13.667 228 -41c88.667 -36.667 133 -92 133 -166c0 -39.333 -12.5 -72 -37.5 -98s-57.167 -39 -96.5 -39c-20 0 -55.667 8.16699 -107 24.5s-91.333 24.5 -120 24.5
c-72 0 -128.333 -28.333 -169 -85c-36 -49.333 -54 -111.666 -54 -186.999c0 -79.333 19 -143.333 57 -192c41.333 -53.333 100.666 -80 177.999 -80c29.333 0 69.5 8.16699 120.5 24.5s84.833 24.5 101.5 24.5c37.333 0 67.5 -13.833 90.5 -41.5s34.5 -60.5 34.5 -98.5
c0 -58.667 -36 -109.167 -108 -151.5s-162.333 -63.5 -271 -63.5c-164 0 -295 55 -393 165c-94.667 105.333 -142 241 -142 407zM569.001 1479l178 106c36.667 22 68 33 94 33c29.333 0 52.833 -10.333 70.5 -31s26.5 -46 26.5 -76c0 -41.333 -20.667 -78 -62 -110
l-223 -174c-26.667 -20.667 -54.667 -31 -84 -31s-57.333 10.333 -84 31l-223 174c-41.333 32 -62 68.667 -62 110c0 30 8.83301 55.333 26.5 76s41.167 31 70.5 31c26 0 57.333 -11 94 -33z" />
    <glyph glyph-name="Dslash" unicode="&#x110;" horiz-adv-x="1522" 
d="M555 307h151.999c264.667 0 397 146 397 438c0 268 -134 402 -402 402h-147v-301c6.66699 0 19.334 0.333008 38.001 1h44c132.667 0 199 -40 199 -120c0 -79.333 -64.333 -119 -193 -119c-11.333 0 -27 0.333008 -47 1s-33.667 1 -41 1v-303zM720.999 1456
c90 0 171.667 -8.33301 245 -25c155.333 -37.333 278.333 -122 369 -254c86 -124.667 129 -269.334 129 -434.001c0 -225.333 -62 -404.666 -186 -537.999c-127.333 -136.667 -302.666 -205 -525.999 -205h-301c-84 0 -142.333 13.667 -175 41
c-35.333 30.667 -53 86.667 -53 168v399c-130.667 0 -196 40.333 -196 121c0 50 22 83.667 66 101c27.333 10.667 70.666 16 129.999 16v377c0 86 17.167 146.333 51.5 181s94.5 52 180.5 52h266z" />
    <glyph glyph-name="dcroat" unicode="&#x111;" horiz-adv-x="1255" 
d="M379 551c0 -72 16.998 -133 50.998 -183c39.333 -58 93.333 -87 162 -87s122.334 29 161.001 87c33.333 50 50 111 50 183c0 73.333 -16.333 135.333 -49 186c-38 58.667 -92 88 -162 88c-69.333 0 -123.666 -29.333 -162.999 -88c-33.333 -50.667 -50 -112.667 -50 -186
zM806.998 90c-68 -73.333 -155.333 -110 -262 -110c-135.333 0 -252.166 55.833 -350.499 167.5s-147.5 247.5 -147.5 407.5c0 151.333 44.667 282 134 392c95.333 118 216.666 177 363.999 177c97.333 0 182 -30.667 254 -92v180h-168c-79.333 0 -119 27.333 -119 82
c0 56 40.333 84 121 84h166c9.33301 123.333 63.333 185 162 185c94 0 147 -61.333 159 -184c50.667 -0.666992 86 -4 106 -10c41.333 -12.667 62 -37.667 62 -75c0 -38.667 -20.333 -63.667 -61 -75c-18 -4.66699 -53.667 -7 -107 -7v-991c0 -156.667 -53 -235 -159 -235
c-64.667 0 -116 34.667 -154 104z" />
    <glyph glyph-name="Gbreve" unicode="&#x11e;" horiz-adv-x="1479" 
d="M1075 567c-8.66699 0 -23.999 -0.332031 -45.999 -0.999023h-51c-168.667 0 -253 51.667 -253 155c0 104 77.667 156 233 156h244c80.667 0 139.5 -17 176.5 -51s55.5 -91 55.5 -171c0 -206.667 -61.333 -374 -184 -502c-125.333 -130.667 -290.666 -196 -495.999 -196
c-214.667 0 -386.334 76.333 -515.001 229c-121.333 143.333 -182 324.333 -182 543c0 231.333 64.333 416.666 193 555.999c132 142.667 313 214 543 214c150 0 276.833 -30.833 380.5 -92.5s155.5 -131.834 155.5 -210.501c0 -40 -13.667 -76 -41 -108
s-60.666 -48 -99.999 -48c-18 0 -73.333 23.667 -166 71s-172.667 71 -240 71c-122.667 0 -216.334 -45.333 -281.001 -136c-56.667 -80 -85 -183.667 -85 -311s28 -232.666 84 -315.999c65.333 -96.667 158.666 -145 279.999 -145c88.667 0 159.5 26.5 212.5 79.5
s80.5 124.167 82.5 213.5zM739.001 1594c-81.333 0 -155.333 21 -222 63c-77.333 48 -116 110.333 -116 187c0 74.667 35.667 112 107 112c34.667 0 68 -22.167 100 -66.5s75.667 -66.5 131 -66.5c56 0 99.667 22.167 131 66.5s64 66.5 98 66.5
c72.667 0 109 -37.333 109 -112c0 -77.333 -38.333 -140 -115 -188c-66.667 -41.333 -141 -62 -223 -62z" />
    <glyph glyph-name="gbreve" unicode="&#x11f;" horiz-adv-x="1223" 
d="M807 135c-70 -100.667 -167.667 -151.002 -293 -151.002c-130.667 0 -241.167 53.667 -331.5 161s-135.5 240.666 -135.5 399.999c0 152.667 45 284 135 394c96 118 218.333 177 367 177c108.667 0 194.667 -38.333 258 -115c37.333 68.667 85 103 143 103
c108 0 162 -78 162 -234v-649c0 -120.667 -5.66699 -214 -17 -280c-24.667 -135.333 -89 -238.666 -193 -309.999c-94.667 -65.333 -213.667 -98 -357 -98c-106 0 -202.667 15 -290 45c-122 42 -183 105.667 -183 191c0 40.667 13 74.334 39 101.001s59.333 40 100 40
c18 0 64.5 -14.333 139.5 -43s143.833 -43 206.5 -43c168 0 252 90.667 252 272c0 4.66699 -0.333008 11.334 -1 20.001s-1 15 -1 19zM381 544.998c0 -72 16.666 -133.333 49.999 -184c38.667 -58 92.334 -87 161.001 -87s122.667 29 162 87c34 50.667 51 112 51 184
c0 70.667 -17.333 130.667 -52 180c-39.333 56 -93 84 -161 84s-121.333 -28 -160 -84c-34 -49.333 -51 -109.333 -51 -180zM611.999 1223c-81.333 0 -155.333 21 -222 63c-77.333 48 -116 110.333 -116 187c0 74.667 35.667 112 107 112c34.667 0 68 -22.167 100 -66.5
s75.667 -66.5 131 -66.5c56 0 99.667 22.167 131 66.5s64 66.5 98 66.5c72.667 0 109 -37.333 109 -112c0 -77.333 -38.333 -140 -115 -188c-66.667 -41.333 -141 -62 -223 -62z" />
    <glyph glyph-name="glyph273" unicode="&#x128;" horiz-adv-x="606" 
d="M469 217c0 -156.667 -55.333 -235 -166 -235s-166 78.333 -166 235v1022c0 157.333 55.333 236 166 236s166 -78.667 166 -236v-1022zM232 1639c-18 0 -41.167 -5.83301 -69.5 -17.5s-48.166 -17.5 -59.499 -17.5c-60 0 -90 36 -90 108c0 50 16.167 92.333 48.5 127
s73.5 52 123.5 52c22 0 53.667 -6.5 95 -19.5s72.666 -19.5 93.999 -19.5c18 0 41.333 6.16699 70 18.5s49 18.5 61 18.5c60 0 90 -37 90 -111c0 -49.333 -16.333 -91.333 -49 -126s-73.667 -52 -123 -52c-22 0 -53.833 6.5 -95.5 19.5s-73.5 19.5 -95.5 19.5z" />
    <glyph glyph-name="glyph274" unicode="&#x129;" horiz-adv-x="563" 
d="M442 221c0 -156.667 -53 -235 -159 -235c-108 0 -162 78.333 -162 235v649c0 156 54 234 162 234c106 0 159 -78 159 -234v-649zM212 1268c-18 0 -41.167 -5.83301 -69.5 -17.5s-48.166 -17.5 -59.499 -17.5c-60 0 -90 36 -90 108c0 50 16.167 92.333 48.5 127
s73.5 52 123.5 52c22 0 53.667 -6.5 95 -19.5s72.666 -19.5 93.999 -19.5c18 0 41.333 6.16699 70 18.5s49 18.5 61 18.5c60 0 90 -37 90 -111c0 -49.333 -16.333 -91.333 -49 -126s-73.667 -52 -123 -52c-22 0 -53.833 6.5 -95.5 19.5s-73.5 19.5 -95.5 19.5z" />
    <glyph glyph-name="Idotaccent" unicode="&#x130;" horiz-adv-x="606" 
d="M469 217c0 -156.667 -55.333 -235 -166 -235s-166 78.333 -166 235v1022c0 157.333 55.333 236 166 236s166 -78.667 166 -236v-1022zM123 1747c0 52 16.999 96.833 50.999 134.5s77 56.5 129 56.5c50.667 0 93 -19 127 -57s51 -82.667 51 -134
s-16.833 -95.833 -50.5 -133.5s-76.167 -56.5 -127.5 -56.5s-94.166 18.833 -128.499 56.5s-51.5 82.167 -51.5 133.5z" />
    <glyph glyph-name="dotlessi" unicode="&#x131;" horiz-adv-x="563" 
d="M442 221c0 -156.667 -53 -235 -159 -235c-108 0 -162 78.333 -162 235v649c0 156 54 234 162 234c106 0 159 -78 159 -234v-649z" />
    <glyph glyph-name="Lslash" unicode="&#x141;" horiz-adv-x="1038" 
d="M221 535c-54.667 -36 -97.668 -53.999 -129.001 -53.999c-27.333 0 -49.666 11.333 -66.999 34c-15.333 20.667 -23 45 -23 73c0 48 22 87 66 117l153 104v430c0 157.333 55.333 236 166 236s166 -78.667 166 -236v-266l114 73c32 20.667 63.667 31 95 31
c28 0 50.667 -10.833 68 -32.5s26 -46.834 26 -75.501c0 -47.333 -23.333 -86.333 -70 -117l-233 -154v-391h281c156.667 0 235 -51 235 -153c0 -102.667 -78.333 -154 -235 -154h-388c-83.333 0 -141 13.667 -173 41c-34.667 30 -52 86 -52 168v326z" />
    <glyph glyph-name="lslash" unicode="&#x142;" horiz-adv-x="743" 
d="M215 610c-61.333 -43.333 -105 -65 -131 -65c-45.333 0 -68 26 -68 78c0 34.667 16.667 63.334 50 86.001l149 100v518c0 157.333 54 236 162 236s162 -78.667 162 -236v-338c63.333 42.667 107 64 131 64c44.667 0 67 -25.333 67 -76
c0 -34.667 -16.333 -63.334 -49 -86.001l-149 -103v-567c0 -156.667 -54 -235 -162 -235s-162 78.333 -162 235v389z" />
    <glyph glyph-name="OE" unicode="&#x152;" horiz-adv-x="2032" 
d="M1729 1456c156.667 0 235.001 -51.999 235.001 -155.999c0 -102 -78.333 -153 -235 -153h-271v-260h236c155.333 0 233 -51.333 233 -154c0 -102 -77.667 -153 -233 -153h-236v-273h281c156.667 0 235 -51 235 -153c0 -102.667 -78.333 -154 -235 -154h-385
c-63.333 0 -107.333 5.33301 -132 16c-38 16.667 -61.667 51.667 -71 105c-94.667 -100 -228.334 -150 -401.001 -150c-214 0 -384.667 73.667 -512 221c-120.667 139.333 -181 317.666 -181 534.999c0 224 62.667 405 188 543c130 143.333 305.667 215 527 215
c162 0 289.667 -48.667 383 -146c7.33301 78 74.333 117 201 117h373zM418.001 723.001c0 -123.333 27.333 -225.666 82 -306.999c64 -94.667 154.667 -142 272 -142s208 47.333 272 142c54.667 81.333 82 183.666 82 306.999c0 126 -26.667 230.333 -80 313
c-62.667 97.333 -154 146 -274 146s-211.333 -48.667 -274 -146c-53.333 -82.667 -80 -187 -80 -313z" />
    <glyph glyph-name="oe" unicode="&#x153;" horiz-adv-x="1892" 
d="M969 147c-86.667 -120 -211.668 -180.001 -375.001 -180.001s-296 56 -398 168c-99.333 108.667 -149 245.334 -149 410.001s49.667 301.334 149 410.001c102 111.333 234.667 167 398 167c162.667 0 288.334 -56 377.001 -168c91.333 112 214 168 368 168
c148 0 272.333 -52.667 373 -158c98.667 -103.333 148 -229.333 148 -378c0 -54.667 -14.333 -91.334 -43 -110.001c-21.333 -14 -59.666 -21 -114.999 -21h-578c15.333 -130 96.666 -195 243.999 -195c54 0 120.5 17.833 199.5 53.5s125.167 53.5 138.5 53.5
c38 0 69.333 -11.5 94 -34.5s37 -53.167 37 -90.5c0 -69.333 -48.167 -132.5 -144.5 -189.5s-210.5 -85.5 -342.5 -85.5c-170.667 0 -297.667 60 -381 180zM1120 665.999l424.002 0.00195312c-4 55.333 -25.5 101.166 -64.5 137.499s-86.5 54.5 -142.5 54.5
c-56.667 0 -104.334 -17.833 -143.001 -53.5s-63.334 -81.834 -74.001 -138.501zM371.001 549.001c0 -78.667 18.002 -144.333 54.002 -197c41.333 -61.333 99.666 -92 174.999 -92c74 0 132 30.667 174 92c36.667 54 55 119.667 55 197c0 76 -18.667 140.333 -56 193
c-42.667 59.333 -100.334 89 -173.001 89c-74 0 -131.667 -29.667 -173 -89c-37.333 -52 -56 -116.333 -56 -193z" />
    <glyph glyph-name="Scedilla" unicode="&#x15e;" horiz-adv-x="1128" 
d="M1087 451c0 -155.333 -56.668 -277.668 -170.001 -367.001c-104 -82 -235.667 -123 -395 -123c-131.333 0 -242.666 23.5 -333.999 70.5s-137 101.5 -137 163.5c0 47.333 16 84.333 48 111c29.333 25.333 68 38 116 38c23.333 0 75 -12.333 155 -37s146.333 -37 199 -37
c45.333 0 84 13.833 116 41.5s48 63.834 48 108.501s-16 81.667 -48 111c-29.333 27.333 -98 57.333 -206 90c-134 40.667 -230 85 -288 133c-82 67.333 -123 160.666 -123 279.999c0 144 53 258.667 159 344c98 78 221 117 369 117c90 0 172 -14.333 246 -43
c100.667 -39.333 151 -96.666 151 -171.999c0 -94 -49.667 -141 -149 -141c-29.333 0 -72.5 8.5 -129.5 25.5s-100.5 25.5 -130.5 25.5c-44 0 -80.667 -9.66699 -110 -29c-34.667 -22 -52 -54 -52 -96c0 -58.667 64.667 -108.667 194 -150c150 -48 258.333 -98.333 325 -151
c97.333 -78 146 -182.333 146 -313zM589.999 48.998c67.333 0 124.665 -18 171.998 -54c52.667 -39.333 79 -91.666 79 -156.999c0 -82.667 -42.667 -145.334 -128 -188.001c-67.333 -34 -146.666 -51 -237.999 -51c-67.333 0 -124.666 9.66699 -171.999 29
c-65.333 26.667 -98 68.667 -98 126c0 64 39.333 96 118 96c14.667 0 36.5 -1.66699 65.5 -5s50.833 -5 65.5 -5c63.333 0 95 21.333 95 64c0 16.667 -12.667 37.667 -38 63s-38 42.333 -38 51c0 20.667 39 31 117 31z" />
    <glyph glyph-name="scedilla" unicode="&#x15f;" horiz-adv-x="891" 
d="M420 -31c-93.333 0 -177.667 17 -253 51c-98 44 -147 107 -147 189c0 38 10.667 71 32 99c24 30.667 54.333 46 91 46c34.667 0 84.5 -15.667 149.5 -47s114.833 -47 149.5 -47c60 0 90 22 90 66c0 33.333 -51.833 70 -155.5 110s-178.5 79.333 -224.5 118
c-68.667 57.333 -103 130.666 -103 219.999c0 106.667 41.667 192.667 125 258c76.667 60 169.667 90 279 90c106 0 195.5 -22.5 268.5 -67.5s109.5 -97.5 109.5 -157.5c0 -38 -12.667 -70 -38 -96s-57 -39 -95 -39c-27.333 0 -70 13 -128 39s-102 39 -132 39
c-48.667 0 -73 -18.667 -73 -56c0 -27.333 42.333 -58.666 127 -93.999c116.667 -47.333 195.667 -86.333 237 -117c84.667 -62.667 127 -141 127 -235c0 -114 -45.333 -205.333 -136 -274c-82.667 -63.333 -182.667 -95 -300 -95zM470.999 49
c67.333 0 124.665 -18 171.998 -54c52.667 -39.333 79 -91.666 79 -156.999c0 -82.667 -42.667 -145.334 -128 -188.001c-67.333 -34 -146.666 -51 -237.999 -51c-67.333 0 -124.666 9.66699 -171.999 29c-65.333 26.667 -98 68.667 -98 126c0 64 39.333 96 118 96
c14.667 0 36.5 -1.66699 65.5 -5s50.833 -5 65.5 -5c63.333 0 95 21.333 95 64c0 16.667 -12.667 37.667 -38 63s-38 42.333 -38 51c0 20.667 39 31 117 31z" />
    <glyph glyph-name="Scaron" unicode="&#x160;" horiz-adv-x="1128" 
d="M1087 451c0 -155.333 -56.668 -277.668 -170.001 -367.001c-104 -82 -235.667 -123 -395 -123c-131.333 0 -242.666 23.5 -333.999 70.5s-137 101.5 -137 163.5c0 47.333 16 84.333 48 111c29.333 25.333 68 38 116 38c23.333 0 75 -12.333 155 -37s146.333 -37 199 -37
c45.333 0 84 13.833 116 41.5s48 63.834 48 108.501s-16 81.667 -48 111c-29.333 27.333 -98 57.333 -206 90c-134 40.667 -230 85 -288 133c-82 67.333 -123 160.666 -123 279.999c0 144 53 258.667 159 344c98 78 221 117 369 117c90 0 172 -14.333 246 -43
c100.667 -39.333 151 -96.666 151 -171.999c0 -94 -49.667 -141 -149 -141c-29.333 0 -72.5 8.5 -129.5 25.5s-100.5 25.5 -130.5 25.5c-44 0 -80.667 -9.66699 -110 -29c-34.667 -22 -52 -54 -52 -96c0 -58.667 64.667 -108.667 194 -150c150 -48 258.333 -98.333 325 -151
c97.333 -78 146 -182.333 146 -313zM564.999 1850l178 106c36.667 22 68 33 94 33c29.333 0 52.833 -10.333 70.5 -31s26.5 -46 26.5 -76c0 -41.333 -20.667 -78 -62 -110l-223 -174c-26.667 -20.667 -54.667 -31 -84 -31s-57.333 10.333 -84 31l-223 174
c-41.333 32 -62 68.667 -62 110c0 30 8.83301 55.333 26.5 76s41.167 31 70.5 31c26 0 57.333 -11 94 -33z" />
    <glyph glyph-name="scaron" unicode="&#x161;" horiz-adv-x="891" 
d="M420 -31c-93.333 0 -177.667 17 -253 51c-98 44 -147 107 -147 189c0 38 10.667 71 32 99c24 30.667 54.333 46 91 46c34.667 0 84.5 -15.667 149.5 -47s114.833 -47 149.5 -47c60 0 90 22 90 66c0 33.333 -51.833 70 -155.5 110s-178.5 79.333 -224.5 118
c-68.667 57.333 -103 130.666 -103 219.999c0 106.667 41.667 192.667 125 258c76.667 60 169.667 90 279 90c106 0 195.5 -22.5 268.5 -67.5s109.5 -97.5 109.5 -157.5c0 -38 -12.667 -70 -38 -96s-57 -39 -95 -39c-27.333 0 -70 13 -128 39s-102 39 -132 39
c-48.667 0 -73 -18.667 -73 -56c0 -27.333 42.333 -58.666 127 -93.999c116.667 -47.333 195.667 -86.333 237 -117c84.667 -62.667 127 -141 127 -235c0 -114 -45.333 -205.333 -136 -274c-82.667 -63.333 -182.667 -95 -300 -95zM445.999 1479l178 106
c36.667 22 68 33 94 33c29.333 0 52.833 -10.333 70.5 -31s26.5 -46 26.5 -76c0 -41.333 -20.667 -78 -62 -110l-223 -174c-26.667 -20.667 -54.667 -31 -84 -31s-57.333 10.333 -84 31l-223 174c-41.333 32 -62 68.667 -62 110c0 30 8.83301 55.333 26.5 76
s41.167 31 70.5 31c26 0 57.333 -11 94 -33z" />
    <glyph glyph-name="glyph275" unicode="&#x168;" horiz-adv-x="1507" 
d="M129 625l-0.000976562 614.001c0 157.333 55.333 236 166 236s166 -78.667 166 -236v-577c0 -258.667 97.667 -388 293 -388s293 129.333 293 388v577c0 157.333 55 236 165 236c110.667 0 166 -78.667 166 -236v-614c0 -205.333 -52 -366.333 -156 -483
c-109.333 -123.333 -265.333 -185 -468 -185c-203.333 0 -359.666 61.333 -468.999 184c-104 117.333 -156 278.666 -156 483.999zM701.999 1639c-18 0 -41.167 -5.83301 -69.5 -17.5s-48.166 -17.5 -59.499 -17.5c-60 0 -90 36 -90 108c0 50 16.167 92.333 48.5 127
s73.5 52 123.5 52c22 0 53.667 -6.5 95 -19.5s72.666 -19.5 93.999 -19.5c18 0 41.333 6.16699 70 18.5s49 18.5 61 18.5c60 0 90 -37 90 -111c0 -49.333 -16.333 -91.333 -49 -126s-73.667 -52 -123 -52c-22 0 -53.833 6.5 -95.5 19.5s-73.5 19.5 -95.5 19.5z" />
    <glyph glyph-name="glyph276" unicode="&#x169;" horiz-adv-x="1186" 
d="M104 440l0.00195312 430c0 156 54 234 162 234c106.667 0 160 -78 160 -234v-364c0 -73.333 9 -127.333 27 -162c25.333 -49.333 71.666 -74 138.999 -74s113.666 24.667 138.999 74c18 34.667 27 88.667 27 162v364c0 156 54 234 162 234c106 0 159 -78 159 -234v-430
c0 -155.333 -42.167 -273 -126.5 -353s-204.5 -120 -360.5 -120c-156.667 0 -276.667 39.667 -360 119c-85.333 80.667 -128 198.667 -128 354zM525.002 1268c-18 0 -41.167 -5.83301 -69.5 -17.5s-48.166 -17.5 -59.499 -17.5c-60 0 -90 36 -90 108
c0 50 16.167 92.333 48.5 127s73.5 52 123.5 52c22 0 53.667 -6.5 95 -19.5s72.666 -19.5 93.999 -19.5c18 0 41.333 6.16699 70 18.5s49 18.5 61 18.5c60 0 90 -37 90 -111c0 -49.333 -16.333 -91.333 -49 -126s-73.667 -52 -123 -52c-22 0 -53.833 6.5 -95.5 19.5
s-73.5 19.5 -95.5 19.5z" />
    <glyph glyph-name="Ydieresis" unicode="&#x178;" horiz-adv-x="1057" 
d="M969 1477c36.667 0 70 -14.832 100 -44.499s45 -62.834 45 -99.501c0 -40 -25.333 -96 -76 -168l-336 -479v-469c0 -156.667 -55 -235 -165 -235c-110.667 0 -166 78.333 -166 235v469l-336 475c-49.333 70 -74 126 -74 168c0 42.667 16.333 78 49 106
c30.667 26.667 67.667 40 111 40c54 0 110.667 -42.333 170 -127l248 -355l252 359c58.667 83.333 118 125 178 125zM495 1747c0 -109.333 -47.667 -164 -143 -164c-46.667 0 -82.667 16 -108 48c-23.333 30 -35 68.667 -35 116c0 48 11.667 87 35 117
c25.333 32.667 61.333 49 108 49c95.333 0 143 -55.333 143 -166zM847 1747c0 -109.333 -47.667 -164 -143 -164c-46.667 0 -82.667 16 -108 48c-23.333 30 -35 68.667 -35 116s11.667 86 35 116c26 33.333 62 50 108 50c95.333 0 143 -55.333 143 -166z" />
    <glyph glyph-name="Zcaron" unicode="&#x17d;" horiz-adv-x="1090" 
d="M1122 154c0 -102.667 -78.333 -154 -235 -154h-666c-155.333 -0 -233 55.333 -233 166c0 52.667 30.667 119.667 92 201l594 788h-428c-157.333 0 -236 50 -236 150c0 100.667 78.667 151 236 151h563c190 0 285 -54 285 -162c0 -48 -32.333 -115.667 -97 -203l-579 -784
h469c156.667 0 235 -51 235 -153zM545 1850l178 106c36.667 22 68 33 94 33c29.333 0 52.833 -10.333 70.5 -31s26.5 -46 26.5 -76c0 -41.333 -20.667 -78 -62 -110l-223 -174c-26.667 -20.667 -54.667 -31 -84 -31s-57.333 10.333 -84 31l-223 174
c-41.333 32 -62 68.667 -62 110c0 30 8.83301 55.333 26.5 76s41.167 31 70.5 31c26 0 57.333 -11 94 -33z" />
    <glyph glyph-name="zcaron" unicode="&#x17e;" horiz-adv-x="915" 
d="M950 147c0 -98 -68.3311 -147 -204.998 -147h-587c-52.667 -0 -90.334 4.33301 -113.001 13c-38 14.667 -57 43.667 -57 87c0 39.333 16.333 80.333 49 123l442 574h-278c-135.333 0 -203 49 -203 147c0 97.333 68.333 146 205 146h518
c63.333 0 106.666 -3.33301 129.999 -10c48.667 -13.333 73 -43 73 -89c0 -37.333 -22 -84.333 -66 -141l-430 -551h320c134.667 0 202 -50.667 202 -152zM459.002 1479l178 106c36.667 22 68 33 94 33c29.333 0 52.833 -10.333 70.5 -31s26.5 -46 26.5 -76
c0 -41.333 -20.667 -78 -62 -110l-223 -174c-26.667 -20.667 -54.667 -31 -84 -31s-57.333 10.333 -84 31l-223 174c-41.333 32 -62 68.667 -62 110c0 30 8.83301 55.333 26.5 76s41.167 31 70.5 31c26 0 57.333 -11 94 -33z" />
    <glyph glyph-name="florin" unicode="&#x192;" horiz-adv-x="967" 
d="M98 -410c-129.333 0 -194.002 47.999 -194.002 143.999c0 38.667 16 65.667 48 81c13.333 6 47 13.667 101 23c44 8 73.667 20 89 36c16.667 18.667 31.334 60.667 44.001 126l123 637c-7.33301 0 -20.5 -0.333008 -39.5 -1s-33.833 -1 -44.5 -1
c-98 0 -147 32.667 -147 98c0 68.667 47 103 141 103h129l62 325c40 209.333 163.333 314 370 314c131.333 0 197 -48 197 -144c0 -39.333 -16.333 -66.666 -49 -81.999c-13.333 -6.66699 -47.666 -15 -102.999 -25c-44.667 -8 -74.667 -20.833 -90 -38.5
s-29 -58.5 -41 -122.5l-43 -227c80 0 126.333 -1.33301 139 -4c53.333 -11.333 80 -42.333 80 -93c0 -68 -47 -102 -141 -102h-115l-143 -733c-40.667 -209.333 -165 -314 -373 -314z" />
    <glyph glyph-name="glyph277" unicode="&#x1a0;" horiz-adv-x="1576" 
d="M418 723c0 -123.333 27.333 -225.666 82 -306.999c64 -94.667 154.667 -142 272 -142s208 47.333 272 142c54.667 81.333 82 183.666 82 306.999c0 126 -26.667 230.333 -80 313c-62.667 97.333 -154 146 -274 146s-211.333 -48.667 -274 -146
c-53.333 -82.667 -80 -187 -80 -313zM57 727c0 224 62.334 406.667 187.001 548c131.333 148 307.333 222 528 222c221.333 0 397.666 -74 528.999 -222c125.333 -141.333 188 -324 188 -548c0 -224.667 -62.667 -407.667 -188 -549c-130.667 -147.333 -307 -221 -529 -221
s-398 73.667 -528 221c-124.667 141.333 -187 324.333 -187 549zM1436 1357c-9.33301 -1.33301 -19 -2 -29 -2c-42 0 -77.333 11.333 -106 34c-32 24 -48 56.333 -48 97c0 44 14.833 80 44.5 108s66.167 42 109.5 42c57.333 0 102.833 -19.167 136.5 -57.5
s50.5 -86.5 50.5 -144.5c0 -80 -31.667 -153.333 -95 -220c-64.667 -68.667 -136.667 -103 -216 -103c-60.667 0 -91 19 -91 57c0 22.667 18.333 39.667 55 51c67.333 21.333 103.666 33.333 108.999 36c42.667 22 69.334 56 80.001 102z" />
    <glyph glyph-name="glyph278" unicode="&#x1a1;" horiz-adv-x="1207" 
d="M381 549c0 -74 16.667 -136.333 50 -187c38 -58.667 92.333 -88 163 -88c70 0 124.333 29.333 163 88c33.333 50.667 50 113 50 187c0 71.333 -17.333 132.333 -52 183c-39.333 58 -93 87 -161 87c-69.333 0 -123.333 -28.667 -162 -86c-34 -50.667 -51 -112 -51 -184z
M47 545c0 164.667 49.667 300.999 149 408.999c102 112 234.667 168 398 168c164 0 296.667 -55.667 398 -167c98 -108 147 -244.667 147 -410s-49 -302 -147 -410c-101.333 -112 -234 -168 -398 -168c-163.333 0 -296 56 -398 168
c-99.333 108.667 -149 245.334 -149 410.001zM1047 1052c-9.33301 -1.33301 -19 -2 -29 -2c-42 0 -77.333 11.333 -106 34c-32 24 -48 56.333 -48 97c0 44 14.833 80 44.5 108s66.167 42 109.5 42c57.333 0 102.833 -19.167 136.5 -57.5s50.5 -86.5 50.5 -144.5
c0 -80 -31.667 -153.333 -95 -220c-64.667 -68.667 -136.667 -103 -216 -103c-60.667 0 -91 19 -91 57c0 22.667 18.333 39.667 55 51c67.333 21.333 103.666 33.333 108.999 36c42.667 22 69.334 56 80.001 102z" />
    <glyph glyph-name="glyph279" unicode="&#x1af;" horiz-adv-x="1574" 
d="M129 625l-0.000976562 614.001c0 157.333 55.333 236 166 236s166 -78.667 166 -236v-577c0 -258.667 97.667 -388 293 -388s293 129.333 293 388v577c0 157.333 55 236 165 236c110.667 0 166 -78.667 166 -236v-614c0 -205.333 -52 -366.333 -156 -483
c-109.333 -123.333 -265.333 -185 -468 -185c-203.333 0 -359.666 61.333 -468.999 184c-104 117.333 -156 278.666 -156 483.999zM1456 1357c-9.33301 -1.33301 -19 -2 -29 -2c-42 0 -77.333 11.333 -106 34c-32 24 -48 56.333 -48 97c0 44 14.833 80 44.5 108
s66.167 42 109.5 42c57.333 0 102.833 -19.167 136.5 -57.5s50.5 -86.5 50.5 -144.5c0 -80 -31.667 -153.333 -95 -220c-64.667 -68.667 -136.667 -103 -216 -103c-60.667 0 -91 19 -91 57c0 22.667 18.333 39.667 55 51c67.333 21.333 103.666 33.333 108.999 36
c42.667 22 69.334 56 80.001 102z" />
    <glyph glyph-name="glyph280" unicode="&#x1b0;" horiz-adv-x="1266" 
d="M104 440l0.00195312 430c0 156 54 234 162 234c106.667 0 160 -78 160 -234v-364c0 -73.333 9 -127.333 27 -162c25.333 -49.333 71.666 -74 138.999 -74s113.666 24.667 138.999 74c18 34.667 27 88.667 27 162v364c0 156 54 234 162 234c106 0 159 -78 159 -234v-430
c0 -155.333 -42.167 -273 -126.5 -353s-204.5 -120 -360.5 -120c-156.667 0 -276.667 39.667 -360 119c-85.333 80.667 -128 198.667 -128 354zM1167 1052c-9.33301 -1.33301 -19 -2 -29 -2c-42 0 -77.333 11.333 -106 34c-32 24 -48 56.333 -48 97c0 44 14.833 80 44.5 108
s66.167 42 109.5 42c57.333 0 102.833 -19.167 136.5 -57.5s50.5 -86.5 50.5 -144.5c0 -80 -31.667 -153.333 -95 -220c-64.667 -68.667 -136.667 -103 -216 -103c-60.667 0 -91 19 -91 57c0 22.667 18.333 39.667 55 51c67.333 21.333 103.666 33.333 108.999 36
c42.667 22 69.334 56 80.001 102z" />
    <glyph glyph-name="circumflex" unicode="&#x2c6;" horiz-adv-x="1024" 
d="M512 1337l-178 -108c-34 -20.667 -65.333 -31 -94 -31c-64.667 0 -97 35 -97 105c0 41.333 20.667 78 62 110l223 174c28 22 56 33 84 33s56 -11 84 -33l223 -174c41.333 -32 62 -68.667 62 -110c0 -70 -32.333 -105 -97 -105c-28.667 0 -60 10.333 -94 31z" />
    <glyph glyph-name="caron" unicode="&#x2c7;" horiz-adv-x="1024" 
d="M512 1479l178 106c36.667 22 68 33 94 33c29.333 0 52.833 -10.333 70.5 -31s26.5 -46 26.5 -76c0 -41.333 -20.667 -78 -62 -110l-223 -174c-26.667 -20.667 -54.667 -31 -84 -31s-57.333 10.333 -84 31l-223 174c-41.333 32 -62 68.667 -62 110
c0 30 8.83301 55.333 26.5 76s41.167 31 70.5 31c26 0 57.333 -11 94 -33z" />
    <glyph glyph-name="breve" unicode="&#x2d8;" horiz-adv-x="1024" 
d="M512 1223c-81.333 0 -155.333 21 -222 63c-77.333 48 -116 110.333 -116 187c0 74.667 35.667 112 107 112c34.667 0 68 -22.167 100 -66.5s75.667 -66.5 131 -66.5c56 0 99.667 22.167 131 66.5s64 66.5 98 66.5c72.667 0 109 -37.333 109 -112
c0 -77.333 -38.333 -140 -115 -188c-66.667 -41.333 -141 -62 -223 -62z" />
    <glyph glyph-name="dotaccent" unicode="&#x2d9;" horiz-adv-x="1024" 
d="M332 1376c0 52 16.999 96.833 50.999 134.5s77 56.5 129 56.5c50.667 0 93 -19 127 -57s51 -82.667 51 -134s-16.833 -95.833 -50.5 -133.5s-76.167 -56.5 -127.5 -56.5s-94.166 18.833 -128.499 56.5s-51.5 82.167 -51.5 133.5z" />
    <glyph glyph-name="ring" unicode="&#x2da;" horiz-adv-x="1024" 
d="M430 1415c0 -22.667 8 -41.667 24 -57s35.333 -23 58 -23s41.667 7.66699 57 23s23 34.333 23 57s-7.66699 41.667 -23 57s-34.333 23 -57 23s-42 -7.66699 -58 -23s-24 -34.333 -24 -57zM295 1415c0 59.333 21.333 110.333 64 153s93.667 64 153 64
c60 0 111.167 -21.167 153.5 -63.5s63.5 -93.5 63.5 -153.5s-21.167 -111.167 -63.5 -153.5s-93.5 -63.5 -153.5 -63.5s-111.167 21.167 -153.5 63.5s-63.5 93.5 -63.5 153.5z" />
    <glyph glyph-name="ogonek" unicode="&#x2db;" horiz-adv-x="1024" 
d="M670 -430c-108 0 -198.667 23 -272 69c-88 54 -132 132 -132 234c0 82 28.667 149.333 86 202c55.333 51.333 124.333 77 207 77c53.333 0 80 -21.333 80 -64c0 -18 -23.167 -44.167 -69.5 -78.5s-69.5 -69.5 -69.5 -105.5c0 -48 30 -79.667 90 -95l166 -30
c60 -15.333 90 -47.333 90 -96c0 -75.333 -58.667 -113 -176 -113z" />
    <glyph glyph-name="tilde" unicode="&#x2dc;" horiz-adv-x="1024" 
d="M440 1268c-18 0 -41.167 -5.83301 -69.5 -17.5s-48.166 -17.5 -59.499 -17.5c-60 0 -90 36 -90 108c0 50 16.167 92.333 48.5 127s73.5 52 123.5 52c22 0 53.667 -6.5 95 -19.5s72.666 -19.5 93.999 -19.5c18 0 41.333 6.16699 70 18.5s49 18.5 61 18.5
c60 0 90 -37 90 -111c0 -49.333 -16.333 -91.333 -49 -126s-73.667 -52 -123 -52c-22 0 -53.833 6.5 -95.5 19.5s-73.5 19.5 -95.5 19.5z" />
    <glyph glyph-name="hungarumlaut" unicode="&#x2dd;" horiz-adv-x="1024" 
d="M692 1182c-28.667 0 -51.667 12.001 -69 36.001c-15.333 21.333 -23 46.666 -23 75.999c0 26.667 10.333 56.667 31 90l127 205c27.333 44 60 66 98 66c34 0 61 -12.5 81 -37.5s30 -54.833 30 -89.5c0 -35.333 -15 -72.333 -45 -111l-134 -172
c-32.667 -42 -64.667 -63 -96 -63zM336 1182c-28.667 0 -51.667 12.001 -69 36.001c-15.333 21.333 -23 46.666 -23 75.999c0 28 10 58 30 90l127 205c27.333 44 60.333 66 99 66c33.333 0 60 -12.5 80 -37.5s30 -54.833 30 -89.5c0 -35.333 -15 -72.333 -45 -111l-133 -172
c-32.667 -42 -64.667 -63 -96 -63z" />
    <glyph glyph-name="Delta" unicode="&#x394;" horiz-adv-x="1427" 
d="M713 1110l-326 -854h653zM563 1473h301l563 -1473h-1427z" />
    <glyph glyph-name="Delta" unicode="&#x2206;" horiz-adv-x="1427" 
d="M713 1110l-326 -854h653zM563 1473h301l563 -1473h-1427z" />
    <glyph glyph-name="Omega" unicode="&#x3a9;" horiz-adv-x="1575" 
d="M1227 256l290.999 0.000976562v-256h-609v291c172 117.333 258 288.666 258 513.999c0 128.667 -30.667 231.667 -92 309c-67.333 84.667 -163.666 127 -288.999 127c-124.667 0 -220.667 -42.333 -288 -127c-61.333 -78 -92 -181 -92 -309c0 -226.667 86 -398 258 -514
v-291h-609v256h291c-165.333 158.667 -248 346.334 -248 563.001c0 209.333 62.333 376.666 187 501.999s291.667 188 501 188s376.5 -62.667 501.5 -188s187.5 -292.666 187.5 -501.999c0 -216.667 -82.667 -404.334 -248 -563.001z" />
    <glyph glyph-name="Omega" unicode="&#x2126;" horiz-adv-x="1575" 
d="M1227 256l290.999 0.000976562v-256h-609v291c172 117.333 258 288.666 258 513.999c0 128.667 -30.667 231.667 -92 309c-67.333 84.667 -163.666 127 -288.999 127c-124.667 0 -220.667 -42.333 -288 -127c-61.333 -78 -92 -181 -92 -309c0 -226.667 86 -398 258 -514
v-291h-609v256h291c-165.333 158.667 -248 346.334 -248 563.001c0 209.333 62.333 376.666 187 501.999s291.667 188 501 188s376.5 -62.667 501.5 -188s187.5 -292.666 187.5 -501.999c0 -216.667 -82.667 -404.334 -248 -563.001z" />
    <glyph glyph-name="pi" unicode="&#x3c0;" horiz-adv-x="1319" 
d="M1354 1092l-39 -224h-176l-154 -868h-287l152 868h-238l-151 -868h-287l152 868h-25c-69.333 0 -110.333 -43.333 -123 -130l-213 -1c20 135.333 63.333 229 130 281c62.667 49.333 164 74 304 74h955z" />
    <glyph glyph-name="glyph281" unicode="&#x1ea0;" horiz-adv-x="1280" 
d="M367 274l-50 -147.001c-34 -100 -87 -150 -159 -150c-46 0 -83.833 15.167 -113.5 45.5s-44.5 68.5 -44.5 114.5c-0 35.333 5.33301 67.333 16 96l379 1029c52.667 143.333 137.334 215 254.001 215c117.333 0 198.666 -64.333 243.999 -193l369 -1046
c14.667 -41.333 22 -76.333 22 -105c0 -47.333 -15.5 -85.166 -46.5 -113.499s-70.167 -42.5 -117.5 -42.5c-83.333 0 -141.333 54 -174 162l-41 135h-538zM461 579.999h348l-168 540zM458 -317.001c0 52 18.167 95.998 54.5 131.998s80.5 54 132.5 54
c51.333 0 94.833 -18.167 130.5 -54.5s53.5 -80.166 53.5 -131.499c0 -52 -17.667 -96 -53 -132s-79 -54 -131 -54c-52.667 0 -97 17.833 -133 53.5s-54 79.834 -54 132.501z" />
    <glyph glyph-name="glyph282" unicode="&#x1ea1;" 
d="M807 98c-66.667 -82 -156.667 -123 -270 -123c-148 0 -268.667 59.333 -362 178c-85.333 109.333 -128 240 -128 392c0 152.667 45 284 135 394c96 118 218.333 177 367 177c108.667 0 194.667 -38.333 258 -115c37.333 68.667 88.666 103 153.999 103
c106 0 159 -78 159 -234v-649c0 -156.667 -53 -235 -159 -235c-69.333 0 -120.666 37.333 -153.999 112zM381 549c0 -71.333 16.333 -131.334 49 -180.001c38 -56 91.333 -84 160 -84c67.333 0 120 28.333 158 85c32.667 49.333 49 109 49 179
c0 68.667 -17 127.334 -51 176.001c-38 54.667 -90 82 -156 82c-67.333 0 -120 -27 -158 -81c-34 -48 -51 -107 -51 -177zM434 -317.001c0 52 18.167 95.998 54.5 131.998s80.5 54 132.5 54c51.333 0 94.833 -18.167 130.5 -54.5s53.5 -80.166 53.5 -131.499
c0 -52 -17.667 -96 -53 -132s-79 -54 -131 -54c-52.667 0 -97 17.833 -133 53.5s-54 79.834 -54 132.501z" />
    <glyph glyph-name="glyph283" unicode="&#x1ea2;" horiz-adv-x="1280" 
d="M367 274l-50 -147.001c-34 -100 -87 -150 -159 -150c-46 0 -83.833 15.167 -113.5 45.5s-44.5 68.5 -44.5 114.5c-0 35.333 5.33301 67.333 16 96l379 1029c52.667 143.333 137.334 215 254.001 215c117.333 0 198.666 -64.333 243.999 -193l369 -1046
c14.667 -41.333 22 -76.333 22 -105c0 -47.333 -15.5 -85.166 -46.5 -113.499s-70.167 -42.5 -117.5 -42.5c-83.333 0 -141.333 54 -174 162l-41 135h-538zM461 579.999h348l-168 540zM552 1619l0.000976562 48c0 14 2 24.667 6 32s25.667 17.333 65 30
c33.333 10.667 50 31.667 50 63c0 33.333 -17.667 50 -53 50c-24 0 -51.667 -13 -83 -39s-54.333 -39 -69 -39c-20 0 -36.667 9 -50 27c-11.333 14.667 -17 30.667 -17 48c0 58.667 25.333 107 76 145c47.333 36 104.666 54 171.999 54c70.667 0 131 -26 181 -78
c45.333 -47.333 68 -99 68 -155c0 -42 -13.667 -80.333 -41 -115s-61.333 -56 -102 -64c0 -18.667 -10.5 -36.167 -31.5 -52.5s-42.833 -24.5 -65.5 -24.5s-46 7.16699 -70 21.5s-36 30.5 -36 48.5z" />
    <glyph glyph-name="glyph284" unicode="&#x1ea3;" 
d="M807 98c-66.667 -82 -156.667 -123 -270 -123c-148 0 -268.667 59.333 -362 178c-85.333 109.333 -128 240 -128 392c0 152.667 45 284 135 394c96 118 218.333 177 367 177c108.667 0 194.667 -38.333 258 -115c37.333 68.667 88.666 103 153.999 103
c106 0 159 -78 159 -234v-649c0 -156.667 -53 -235 -159 -235c-69.333 0 -120.666 37.333 -153.999 112zM381 549c0 -71.333 16.333 -131.334 49 -180.001c38 -56 91.333 -84 160 -84c67.333 0 120 28.333 158 85c32.667 49.333 49 109 49 179
c0 68.667 -17 127.334 -51 176.001c-38 54.667 -90 82 -156 82c-67.333 0 -120 -27 -158 -81c-34 -48 -51 -107 -51 -177zM521 1262l0.000976562 48c0 14 2 24.667 6 32s25.667 17.333 65 30c33.333 10.667 50 31.667 50 63c0 33.333 -17.667 50 -53 50
c-24 0 -51.667 -13 -83 -39s-54.333 -39 -69 -39c-20 0 -36.667 9 -50 27c-11.333 14.667 -17 30.667 -17 48c0 58.667 25.333 107 76 145c47.333 36 104.666 54 171.999 54c70.667 0 131 -26 181 -78c45.333 -47.333 68 -99 68 -155c0 -42 -13.667 -80.333 -41 -115
s-61.333 -56 -102 -64c0 -18.667 -10.5 -36.167 -31.5 -52.5s-42.833 -24.5 -65.5 -24.5s-46 7.16699 -70 21.5s-36 30.5 -36 48.5z" />
    <glyph glyph-name="glyph285" unicode="&#x1ea4;" horiz-adv-x="1280" 
d="M367 274l-50 -147.001c-34 -100 -87 -150 -159 -150c-46 0 -83.833 15.167 -113.5 45.5s-44.5 68.5 -44.5 114.5c-0 35.333 5.33301 67.333 16 96l379 1029c52.667 143.333 137.334 215 254.001 215c117.333 0 198.666 -64.333 243.999 -193l369 -1046
c14.667 -41.333 22 -76.333 22 -105c0 -47.333 -15.5 -85.166 -46.5 -113.499s-70.167 -42.5 -117.5 -42.5c-83.333 0 -141.333 54 -174 162l-41 135h-538zM461 579.999h348l-168 540zM651 1658l-178 -108c-34 -20.667 -65.333 -31 -94 -31c-64.667 0 -97 35 -97 105
c0 41.333 20.667 78 62 110l223 174c28 22 56 33 84 33s56 -11 84 -33l223 -174c41.333 -32 62 -68.667 62 -110c0 -70 -32.333 -105 -97 -105c-28.667 0 -60 10.333 -94 31zM465 1955c-74 0 -110.999 37.332 -110.999 111.999c0 28 11.667 58 35 90l149 205
c32 44 71 66 117 66c35.333 0 65.666 -11.667 90.999 -35s38 -52.666 38 -87.999c0 -38 -17.667 -76.333 -53 -115l-156 -172c-38 -42 -74.667 -63 -110 -63z" />
    <glyph glyph-name="glyph286" unicode="&#x1ea5;" 
d="M807 98c-66.667 -82 -156.667 -123 -270 -123c-148 0 -268.667 59.333 -362 178c-85.333 109.333 -128 240 -128 392c0 152.667 45 284 135 394c96 118 218.333 177 367 177c108.667 0 194.667 -38.333 258 -115c37.333 68.667 88.666 103 153.999 103
c106 0 159 -78 159 -234v-649c0 -156.667 -53 -235 -159 -235c-69.333 0 -120.666 37.333 -153.999 112zM381 549c0 -71.333 16.333 -131.334 49 -180.001c38 -56 91.333 -84 160 -84c67.333 0 120 28.333 158 85c32.667 49.333 49 109 49 179
c0 68.667 -17 127.334 -51 176.001c-38 54.667 -90 82 -156 82c-67.333 0 -120 -27 -158 -81c-34 -48 -51 -107 -51 -177zM616 1337l-178 -108c-34 -20.667 -65.333 -31 -94 -31c-64.667 0 -97 35 -97 105c0 41.333 20.667 78 62 110l223 174c28 22 56 33 84 33
s56 -11 84 -33l223 -174c41.333 -32 62 -68.667 62 -110c0 -70 -32.333 -105 -97 -105c-28.667 0 -60 10.333 -94 31zM430 1634c-74 0 -110.999 37.332 -110.999 111.999c0 28 11.667 58 35 90l149 205c32 44 71 66 117 66c35.333 0 65.666 -11.667 90.999 -35
s38 -52.666 38 -87.999c0 -38 -17.667 -76.333 -53 -115l-156 -172c-38 -42 -74.667 -63 -110 -63z" />
    <glyph glyph-name="glyph287" unicode="&#x1ea6;" horiz-adv-x="1280" 
d="M367 274l-50 -147.001c-34 -100 -87 -150 -159 -150c-46 0 -83.833 15.167 -113.5 45.5s-44.5 68.5 -44.5 114.5c-0 35.333 5.33301 67.333 16 96l379 1029c52.667 143.333 137.334 215 254.001 215c117.333 0 198.666 -64.333 243.999 -193l369 -1046
c14.667 -41.333 22 -76.333 22 -105c0 -47.333 -15.5 -85.166 -46.5 -113.499s-70.167 -42.5 -117.5 -42.5c-83.333 0 -141.333 54 -174 162l-41 135h-538zM461 579.999h348l-168 540zM651 1658l-178 -108c-34 -20.667 -65.333 -31 -94 -31c-64.667 0 -97 35 -97 105
c0 41.333 20.667 78 62 110l223 174c28 22 56 33 84 33s56 -11 84 -33l223 -174c41.333 -32 62 -68.667 62 -110c0 -70 -32.333 -105 -97 -105c-28.667 0 -60 10.333 -94 31zM519 2301c0 37.333 12.168 67.833 36.501 91.5s55.166 35.5 92.499 35.5c45.333 0 84 -22 116 -66
l150 -205c23.333 -32 35 -62 35 -90c0 -74.667 -37 -112 -111 -112c-35.333 0 -72 21 -110 63l-156 172c-35.333 38.667 -53 75.667 -53 111z" />
    <glyph glyph-name="glyph288" unicode="&#x1ea7;" 
d="M807 98c-66.667 -82 -156.667 -123 -270 -123c-148 0 -268.667 59.333 -362 178c-85.333 109.333 -128 240 -128 392c0 152.667 45 284 135 394c96 118 218.333 177 367 177c108.667 0 194.667 -38.333 258 -115c37.333 68.667 88.666 103 153.999 103
c106 0 159 -78 159 -234v-649c0 -156.667 -53 -235 -159 -235c-69.333 0 -120.666 37.333 -153.999 112zM381 549c0 -71.333 16.333 -131.334 49 -180.001c38 -56 91.333 -84 160 -84c67.333 0 120 28.333 158 85c32.667 49.333 49 109 49 179
c0 68.667 -17 127.334 -51 176.001c-38 54.667 -90 82 -156 82c-67.333 0 -120 -27 -158 -81c-34 -48 -51 -107 -51 -177zM616 1337l-178 -108c-34 -20.667 -65.333 -31 -94 -31c-64.667 0 -97 35 -97 105c0 41.333 20.667 78 62 110l223 174c28 22 56 33 84 33
s56 -11 84 -33l223 -174c41.333 -32 62 -68.667 62 -110c0 -70 -32.333 -105 -97 -105c-28.667 0 -60 10.333 -94 31zM483 1980c0 37.333 12.168 67.833 36.501 91.5s55.166 35.5 92.499 35.5c45.333 0 84 -22 116 -66l150 -205c23.333 -32 35 -62 35 -90
c0 -74.667 -37 -112 -111 -112c-35.333 0 -72 21 -110 63l-156 172c-35.333 38.667 -53 75.667 -53 111z" />
    <glyph glyph-name="glyph289" unicode="&#x1ea8;" horiz-adv-x="1280" 
d="M367 274l-50 -147.001c-34 -100 -87 -150 -159 -150c-46 0 -83.833 15.167 -113.5 45.5s-44.5 68.5 -44.5 114.5c-0 35.333 5.33301 67.333 16 96l379 1029c52.667 143.333 137.334 215 254.001 215c117.333 0 198.666 -64.333 243.999 -193l369 -1046
c14.667 -41.333 22 -76.333 22 -105c0 -47.333 -15.5 -85.166 -46.5 -113.499s-70.167 -42.5 -117.5 -42.5c-83.333 0 -141.333 54 -174 162l-41 135h-538zM461 579.999h348l-168 540zM651 1658l-178 -108c-34 -20.667 -65.333 -31 -94 -31c-64.667 0 -97 35 -97 105
c0 41.333 20.667 78 62 110l223 174c28 22 56 33 84 33s56 -11 84 -33l223 -174c41.333 -32 62 -68.667 62 -110c0 -70 -32.333 -105 -97 -105c-28.667 0 -60 10.333 -94 31zM798 1963l0.000976562 48c0 14 2 24.667 6 32s25.667 17.333 65 30
c33.333 10.667 50 31.667 50 63c0 33.333 -17.667 50 -53 50c-24 0 -51.667 -13 -83 -39s-54.333 -39 -69 -39c-20 0 -36.667 9 -50 27c-11.333 14.667 -17 30.667 -17 48c0 58.667 25.333 107 76 145c47.333 36 104.666 54 171.999 54c70.667 0 131 -26 181 -78
c45.333 -47.333 68 -99 68 -155c0 -42 -13.667 -80.333 -41 -115s-61.333 -56 -102 -64c0 -18.667 -10.5 -36.167 -31.5 -52.5s-42.833 -24.5 -65.5 -24.5s-46 7.16699 -70 21.5s-36 30.5 -36 48.5z" />
    <glyph glyph-name="glyph290" unicode="&#x1ea9;" 
d="M807 98c-66.667 -82 -156.667 -123 -270 -123c-148 0 -268.667 59.333 -362 178c-85.333 109.333 -128 240 -128 392c0 152.667 45 284 135 394c96 118 218.333 177 367 177c108.667 0 194.667 -38.333 258 -115c37.333 68.667 88.666 103 153.999 103
c106 0 159 -78 159 -234v-649c0 -156.667 -53 -235 -159 -235c-69.333 0 -120.666 37.333 -153.999 112zM381 549c0 -71.333 16.333 -131.334 49 -180.001c38 -56 91.333 -84 160 -84c67.333 0 120 28.333 158 85c32.667 49.333 49 109 49 179
c0 68.667 -17 127.334 -51 176.001c-38 54.667 -90 82 -156 82c-67.333 0 -120 -27 -158 -81c-34 -48 -51 -107 -51 -177zM616 1337l-178 -108c-34 -20.667 -65.333 -31 -94 -31c-64.667 0 -97 35 -97 105c0 41.333 20.667 78 62 110l223 174c28 22 56 33 84 33
s56 -11 84 -33l223 -174c41.333 -32 62 -68.667 62 -110c0 -70 -32.333 -105 -97 -105c-28.667 0 -60 10.333 -94 31zM762 1642l0.000976562 48c0 14 2 24.667 6 32s25.667 17.333 65 30c33.333 10.667 50 31.667 50 63c0 33.333 -17.667 50 -53 50
c-24 0 -51.667 -13 -83 -39s-54.333 -39 -69 -39c-20 0 -36.667 9 -50 27c-11.333 14.667 -17 30.667 -17 48c0 58.667 25.333 107 76 145c47.333 36 104.666 54 171.999 54c70.667 0 131 -26 181 -78c45.333 -47.333 68 -99 68 -155c0 -42 -13.667 -80.333 -41 -115
s-61.333 -56 -102 -64c0 -18.667 -10.5 -36.167 -31.5 -52.5s-42.833 -24.5 -65.5 -24.5s-46 7.16699 -70 21.5s-36 30.5 -36 48.5z" />
    <glyph glyph-name="glyph291" unicode="&#x1eaa;" horiz-adv-x="1280" 
d="M367 274l-50 -147.001c-34 -100 -87 -150 -159 -150c-46 0 -83.833 15.167 -113.5 45.5s-44.5 68.5 -44.5 114.5c-0 35.333 5.33301 67.333 16 96l379 1029c52.667 143.333 137.334 215 254.001 215c117.333 0 198.666 -64.333 243.999 -193l369 -1046
c14.667 -41.333 22 -76.333 22 -105c0 -47.333 -15.5 -85.166 -46.5 -113.499s-70.167 -42.5 -117.5 -42.5c-83.333 0 -141.333 54 -174 162l-41 135h-538zM461 579.999h348l-168 540zM651 1658l-178 -108c-34 -20.667 -65.333 -31 -94 -31c-64.667 0 -97 35 -97 105
c0 41.333 20.667 78 62 110l223 174c28 22 56 33 84 33s56 -11 84 -33l223 -174c41.333 -32 62 -68.667 62 -110c0 -70 -32.333 -105 -97 -105c-28.667 0 -60 10.333 -94 31zM644 2058c-18 0 -41.167 -5.83301 -69.5 -17.5s-48.166 -17.5 -59.499 -17.5
c-60 0 -90 36 -90 108c0 50 16.167 92.333 48.5 127s73.5 52 123.5 52c22 0 53.667 -6.5 95 -19.5s72.666 -19.5 93.999 -19.5c18 0 41.333 6.16699 70 18.5s49 18.5 61 18.5c60 0 90 -37 90 -111c0 -49.333 -16.333 -91.333 -49 -126s-73.667 -52 -123 -52
c-22 0 -53.833 6.5 -95.5 19.5s-73.5 19.5 -95.5 19.5z" />
    <glyph glyph-name="glyph292" unicode="&#x1eab;" 
d="M807 98c-66.667 -82 -156.667 -123 -270 -123c-148 0 -268.667 59.333 -362 178c-85.333 109.333 -128 240 -128 392c0 152.667 45 284 135 394c96 118 218.333 177 367 177c108.667 0 194.667 -38.333 258 -115c37.333 68.667 88.666 103 153.999 103
c106 0 159 -78 159 -234v-649c0 -156.667 -53 -235 -159 -235c-69.333 0 -120.666 37.333 -153.999 112zM381 549c0 -71.333 16.333 -131.334 49 -180.001c38 -56 91.333 -84 160 -84c67.333 0 120 28.333 158 85c32.667 49.333 49 109 49 179
c0 68.667 -17 127.334 -51 176.001c-38 54.667 -90 82 -156 82c-67.333 0 -120 -27 -158 -81c-34 -48 -51 -107 -51 -177zM616 1337l-178 -108c-34 -20.667 -65.333 -31 -94 -31c-64.667 0 -97 35 -97 105c0 41.333 20.667 78 62 110l223 174c28 22 56 33 84 33
s56 -11 84 -33l223 -174c41.333 -32 62 -68.667 62 -110c0 -70 -32.333 -105 -97 -105c-28.667 0 -60 10.333 -94 31zM609 1737c-18 0 -41.167 -5.83301 -69.5 -17.5s-48.166 -17.5 -59.499 -17.5c-60 0 -90 36 -90 108c0 50 16.167 92.333 48.5 127s73.5 52 123.5 52
c22 0 53.667 -6.5 95 -19.5s72.666 -19.5 93.999 -19.5c18 0 41.333 6.16699 70 18.5s49 18.5 61 18.5c60 0 90 -37 90 -111c0 -49.333 -16.333 -91.333 -49 -126s-73.667 -52 -123 -52c-22 0 -53.833 6.5 -95.5 19.5s-73.5 19.5 -95.5 19.5z" />
    <glyph glyph-name="glyph293" unicode="&#x1eac;" horiz-adv-x="1280" 
d="M367 274l-50 -147.001c-34 -100 -87 -150 -159 -150c-46 0 -83.833 15.167 -113.5 45.5s-44.5 68.5 -44.5 114.5c-0 35.333 5.33301 67.333 16 96l379 1029c52.667 143.333 137.334 215 254.001 215c117.333 0 198.666 -64.333 243.999 -193l369 -1046
c14.667 -41.333 22 -76.333 22 -105c0 -47.333 -15.5 -85.166 -46.5 -113.499s-70.167 -42.5 -117.5 -42.5c-83.333 0 -141.333 54 -174 162l-41 135h-538zM461 579.999h348l-168 540zM651 1658l-178 -108c-34 -20.667 -65.333 -31 -94 -31c-64.667 0 -97 35 -97 105
c0 41.333 20.667 78 62 110l223 174c28 22 56 33 84 33s56 -11 84 -33l223 -174c41.333 -32 62 -68.667 62 -110c0 -70 -32.333 -105 -97 -105c-28.667 0 -60 10.333 -94 31zM458 -317.001c0 52 18.167 95.998 54.5 131.998s80.5 54 132.5 54
c51.333 0 94.833 -18.167 130.5 -54.5s53.5 -80.166 53.5 -131.499c0 -52 -17.667 -96 -53 -132s-79 -54 -131 -54c-52.667 0 -97 17.833 -133 53.5s-54 79.834 -54 132.501z" />
    <glyph glyph-name="glyph294" unicode="&#x1ead;" 
d="M807 98c-66.667 -82 -156.667 -123 -270 -123c-148 0 -268.667 59.333 -362 178c-85.333 109.333 -128 240 -128 392c0 152.667 45 284 135 394c96 118 218.333 177 367 177c108.667 0 194.667 -38.333 258 -115c37.333 68.667 88.666 103 153.999 103
c106 0 159 -78 159 -234v-649c0 -156.667 -53 -235 -159 -235c-69.333 0 -120.666 37.333 -153.999 112zM381 549c0 -71.333 16.333 -131.334 49 -180.001c38 -56 91.333 -84 160 -84c67.333 0 120 28.333 158 85c32.667 49.333 49 109 49 179
c0 68.667 -17 127.334 -51 176.001c-38 54.667 -90 82 -156 82c-67.333 0 -120 -27 -158 -81c-34 -48 -51 -107 -51 -177zM616 1337l-178 -108c-34 -20.667 -65.333 -31 -94 -31c-64.667 0 -97 35 -97 105c0 41.333 20.667 78 62 110l223 174c28 22 56 33 84 33
s56 -11 84 -33l223 -174c41.333 -32 62 -68.667 62 -110c0 -70 -32.333 -105 -97 -105c-28.667 0 -60 10.333 -94 31zM434 -317.001c0 52 18.167 95.998 54.5 131.998s80.5 54 132.5 54c51.333 0 94.833 -18.167 130.5 -54.5s53.5 -80.166 53.5 -131.499
c0 -52 -17.667 -96 -53 -132s-79 -54 -131 -54c-52.667 0 -97 17.833 -133 53.5s-54 79.834 -54 132.501z" />
    <glyph glyph-name="glyph295" unicode="&#x1eae;" horiz-adv-x="1280" 
d="M367 274l-50 -147.001c-34 -100 -87 -150 -159 -150c-46 0 -83.833 15.167 -113.5 45.5s-44.5 68.5 -44.5 114.5c-0 35.333 5.33301 67.333 16 96l379 1029c52.667 143.333 137.334 215 254.001 215c117.333 0 198.666 -64.333 243.999 -193l369 -1046
c14.667 -41.333 22 -76.333 22 -105c0 -47.333 -15.5 -85.166 -46.5 -113.499s-70.167 -42.5 -117.5 -42.5c-83.333 0 -141.333 54 -174 162l-41 135h-538zM461 579.999h348l-168 540zM652 1547c-81.333 0 -155.333 21 -222 63c-77.333 48 -116 110.333 -116 187
c0 74.667 35.667 112 107 112c34.667 0 68 -22.167 100 -66.5s75.667 -66.5 131 -66.5c56 0 99.667 22.167 131 66.5s64 66.5 98 66.5c72.667 0 109 -37.333 109 -112c0 -77.333 -38.333 -140 -115 -188c-66.667 -41.333 -141 -62 -223 -62zM609 1958
c-74 0 -110.999 37.332 -110.999 111.999c0 28 11.667 58 35 90l149 205c32 44 71 66 117 66c35.333 0 65.666 -11.667 90.999 -35s38 -52.666 38 -87.999c0 -38 -17.667 -76.333 -53 -115l-156 -172c-38 -42 -74.667 -63 -110 -63z" />
    <glyph glyph-name="glyph296" unicode="&#x1eaf;" 
d="M807 98c-66.667 -82 -156.667 -123 -270 -123c-148 0 -268.667 59.333 -362 178c-85.333 109.333 -128 240 -128 392c0 152.667 45 284 135 394c96 118 218.333 177 367 177c108.667 0 194.667 -38.333 258 -115c37.333 68.667 88.666 103 153.999 103
c106 0 159 -78 159 -234v-649c0 -156.667 -53 -235 -159 -235c-69.333 0 -120.666 37.333 -153.999 112zM381 549c0 -71.333 16.333 -131.334 49 -180.001c38 -56 91.333 -84 160 -84c67.333 0 120 28.333 158 85c32.667 49.333 49 109 49 179
c0 68.667 -17 127.334 -51 176.001c-38 54.667 -90 82 -156 82c-67.333 0 -120 -27 -158 -81c-34 -48 -51 -107 -51 -177zM622 1223c-81.333 0 -155.333 21 -222 63c-77.333 48 -116 110.333 -116 187c0 74.667 35.667 112 107 112c34.667 0 68 -22.167 100 -66.5
s75.667 -66.5 131 -66.5c56 0 99.667 22.167 131 66.5s64 66.5 98 66.5c72.667 0 109 -37.333 109 -112c0 -77.333 -38.333 -140 -115 -188c-66.667 -41.333 -141 -62 -223 -62zM580 1634c-74 0 -110.999 37.332 -110.999 111.999c0 28 11.667 58 35 90l149 205
c32 44 71 66 117 66c35.333 0 65.666 -11.667 90.999 -35s38 -52.666 38 -87.999c0 -38 -17.667 -76.333 -53 -115l-156 -172c-38 -42 -74.667 -63 -110 -63z" />
    <glyph glyph-name="glyph297" unicode="&#x1eb0;" horiz-adv-x="1280" 
d="M367 274l-50 -147.001c-34 -100 -87 -150 -159 -150c-46 0 -83.833 15.167 -113.5 45.5s-44.5 68.5 -44.5 114.5c-0 35.333 5.33301 67.333 16 96l379 1029c52.667 143.333 137.334 215 254.001 215c117.333 0 198.666 -64.333 243.999 -193l369 -1046
c14.667 -41.333 22 -76.333 22 -105c0 -47.333 -15.5 -85.166 -46.5 -113.499s-70.167 -42.5 -117.5 -42.5c-83.333 0 -141.333 54 -174 162l-41 135h-538zM461 579.999h348l-168 540zM652 1547c-81.333 0 -155.333 21 -222 63c-77.333 48 -116 110.333 -116 187
c0 74.667 35.667 112 107 112c34.667 0 68 -22.167 100 -66.5s75.667 -66.5 131 -66.5c56 0 99.667 22.167 131 66.5s64 66.5 98 66.5c72.667 0 109 -37.333 109 -112c0 -77.333 -38.333 -140 -115 -188c-66.667 -41.333 -141 -62 -223 -62zM393 2305
c0 37.333 12.168 67.833 36.501 91.5s55.166 35.5 92.499 35.5c45.333 0 84 -22 116 -66l150 -205c23.333 -32 35 -62 35 -90c0 -74.667 -37 -112 -111 -112c-35.333 0 -72 21 -110 63l-156 172c-35.333 38.667 -53 75.667 -53 111z" />
    <glyph glyph-name="glyph298" unicode="&#x1eb1;" 
d="M807 98c-66.667 -82 -156.667 -123 -270 -123c-148 0 -268.667 59.333 -362 178c-85.333 109.333 -128 240 -128 392c0 152.667 45 284 135 394c96 118 218.333 177 367 177c108.667 0 194.667 -38.333 258 -115c37.333 68.667 88.666 103 153.999 103
c106 0 159 -78 159 -234v-649c0 -156.667 -53 -235 -159 -235c-69.333 0 -120.666 37.333 -153.999 112zM381 549c0 -71.333 16.333 -131.334 49 -180.001c38 -56 91.333 -84 160 -84c67.333 0 120 28.333 158 85c32.667 49.333 49 109 49 179
c0 68.667 -17 127.334 -51 176.001c-38 54.667 -90 82 -156 82c-67.333 0 -120 -27 -158 -81c-34 -48 -51 -107 -51 -177zM622 1223c-81.333 0 -155.333 21 -222 63c-77.333 48 -116 110.333 -116 187c0 74.667 35.667 112 107 112c34.667 0 68 -22.167 100 -66.5
s75.667 -66.5 131 -66.5c56 0 99.667 22.167 131 66.5s64 66.5 98 66.5c72.667 0 109 -37.333 109 -112c0 -77.333 -38.333 -140 -115 -188c-66.667 -41.333 -141 -62 -223 -62zM363 1980c0 37.333 12.168 67.833 36.501 91.5s55.166 35.5 92.499 35.5
c45.333 0 84 -22 116 -66l150 -205c23.333 -32 35 -62 35 -90c0 -74.667 -37 -112 -111 -112c-35.333 0 -72 21 -110 63l-156 172c-35.333 38.667 -53 75.667 -53 111z" />
    <glyph glyph-name="glyph299" unicode="&#x1eb2;" horiz-adv-x="1280" 
d="M367 274l-50 -147.001c-34 -100 -87 -150 -159 -150c-46 0 -83.833 15.167 -113.5 45.5s-44.5 68.5 -44.5 114.5c-0 35.333 5.33301 67.333 16 96l379 1029c52.667 143.333 137.334 215 254.001 215c117.333 0 198.666 -64.333 243.999 -193l369 -1046
c14.667 -41.333 22 -76.333 22 -105c0 -47.333 -15.5 -85.166 -46.5 -113.499s-70.167 -42.5 -117.5 -42.5c-83.333 0 -141.333 54 -174 162l-41 135h-538zM461 579.999h348l-168 540zM652 1547c-81.333 0 -155.333 21 -222 63c-77.333 48 -116 110.333 -116 187
c0 74.667 35.667 112 107 112c34.667 0 68 -22.167 100 -66.5s75.667 -66.5 131 -66.5c56 0 99.667 22.167 131 66.5s64 66.5 98 66.5c72.667 0 109 -37.333 109 -112c0 -77.333 -38.333 -140 -115 -188c-66.667 -41.333 -141 -62 -223 -62zM551 1966l0.000976562 48
c0 14 2 24.667 6 32s25.667 17.333 65 30c33.333 10.667 50 31.667 50 63c0 33.333 -17.667 50 -53 50c-24 0 -51.667 -13 -83 -39s-54.333 -39 -69 -39c-20 0 -36.667 9 -50 27c-11.333 14.667 -17 30.667 -17 48c0 58.667 25.333 107 76 145
c47.333 36 104.666 54 171.999 54c70.667 0 131 -26 181 -78c45.333 -47.333 68 -99 68 -155c0 -42 -13.667 -80.333 -41 -115s-61.333 -56 -102 -64c0 -18.667 -10.5 -36.167 -31.5 -52.5s-42.833 -24.5 -65.5 -24.5s-46 7.16699 -70 21.5s-36 30.5 -36 48.5z" />
    <glyph glyph-name="glyph300" unicode="&#x1eb3;" 
d="M807 98c-66.667 -82 -156.667 -123 -270 -123c-148 0 -268.667 59.333 -362 178c-85.333 109.333 -128 240 -128 392c0 152.667 45 284 135 394c96 118 218.333 177 367 177c108.667 0 194.667 -38.333 258 -115c37.333 68.667 88.666 103 153.999 103
c106 0 159 -78 159 -234v-649c0 -156.667 -53 -235 -159 -235c-69.333 0 -120.666 37.333 -153.999 112zM381 549c0 -71.333 16.333 -131.334 49 -180.001c38 -56 91.333 -84 160 -84c67.333 0 120 28.333 158 85c32.667 49.333 49 109 49 179
c0 68.667 -17 127.334 -51 176.001c-38 54.667 -90 82 -156 82c-67.333 0 -120 -27 -158 -81c-34 -48 -51 -107 -51 -177zM622 1223c-81.333 0 -155.333 21 -222 63c-77.333 48 -116 110.333 -116 187c0 74.667 35.667 112 107 112c34.667 0 68 -22.167 100 -66.5
s75.667 -66.5 131 -66.5c56 0 99.667 22.167 131 66.5s64 66.5 98 66.5c72.667 0 109 -37.333 109 -112c0 -77.333 -38.333 -140 -115 -188c-66.667 -41.333 -141 -62 -223 -62zM521 1642l0.000976562 48c0 14 2 24.667 6 32s25.667 17.333 65 30
c33.333 10.667 50 31.667 50 63c0 33.333 -17.667 50 -53 50c-24 0 -51.667 -13 -83 -39s-54.333 -39 -69 -39c-20 0 -36.667 9 -50 27c-11.333 14.667 -17 30.667 -17 48c0 58.667 25.333 107 76 145c47.333 36 104.666 54 171.999 54c70.667 0 131 -26 181 -78
c45.333 -47.333 68 -99 68 -155c0 -42 -13.667 -80.333 -41 -115s-61.333 -56 -102 -64c0 -18.667 -10.5 -36.167 -31.5 -52.5s-42.833 -24.5 -65.5 -24.5s-46 7.16699 -70 21.5s-36 30.5 -36 48.5z" />
    <glyph glyph-name="glyph301" unicode="&#x1eb4;" horiz-adv-x="1280" 
d="M367 274l-50 -147.001c-34 -100 -87 -150 -159 -150c-46 0 -83.833 15.167 -113.5 45.5s-44.5 68.5 -44.5 114.5c-0 35.333 5.33301 67.333 16 96l379 1029c52.667 143.333 137.334 215 254.001 215c117.333 0 198.666 -64.333 243.999 -193l369 -1046
c14.667 -41.333 22 -76.333 22 -105c0 -47.333 -15.5 -85.166 -46.5 -113.499s-70.167 -42.5 -117.5 -42.5c-83.333 0 -141.333 54 -174 162l-41 135h-538zM461 579.999h348l-168 540zM652 1547c-81.333 0 -155.333 21 -222 63c-77.333 48 -116 110.333 -116 187
c0 74.667 35.667 112 107 112c34.667 0 68 -22.167 100 -66.5s75.667 -66.5 131 -66.5c56 0 99.667 22.167 131 66.5s64 66.5 98 66.5c72.667 0 109 -37.333 109 -112c0 -77.333 -38.333 -140 -115 -188c-66.667 -41.333 -141 -62 -223 -62zM639 2061
c-18 0 -41.167 -5.83301 -69.5 -17.5s-48.166 -17.5 -59.499 -17.5c-60 0 -90 36 -90 108c0 50 16.167 92.333 48.5 127s73.5 52 123.5 52c22 0 53.667 -6.5 95 -19.5s72.666 -19.5 93.999 -19.5c18 0 41.333 6.16699 70 18.5s49 18.5 61 18.5c60 0 90 -37 90 -111
c0 -49.333 -16.333 -91.333 -49 -126s-73.667 -52 -123 -52c-22 0 -53.833 6.5 -95.5 19.5s-73.5 19.5 -95.5 19.5z" />
    <glyph glyph-name="glyph302" unicode="&#x1eb5;" 
d="M807 98c-66.667 -82 -156.667 -123 -270 -123c-148 0 -268.667 59.333 -362 178c-85.333 109.333 -128 240 -128 392c0 152.667 45 284 135 394c96 118 218.333 177 367 177c108.667 0 194.667 -38.333 258 -115c37.333 68.667 88.666 103 153.999 103
c106 0 159 -78 159 -234v-649c0 -156.667 -53 -235 -159 -235c-69.333 0 -120.666 37.333 -153.999 112zM381 549c0 -71.333 16.333 -131.334 49 -180.001c38 -56 91.333 -84 160 -84c67.333 0 120 28.333 158 85c32.667 49.333 49 109 49 179
c0 68.667 -17 127.334 -51 176.001c-38 54.667 -90 82 -156 82c-67.333 0 -120 -27 -158 -81c-34 -48 -51 -107 -51 -177zM622 1223c-81.333 0 -155.333 21 -222 63c-77.333 48 -116 110.333 -116 187c0 74.667 35.667 112 107 112c34.667 0 68 -22.167 100 -66.5
s75.667 -66.5 131 -66.5c56 0 99.667 22.167 131 66.5s64 66.5 98 66.5c72.667 0 109 -37.333 109 -112c0 -77.333 -38.333 -140 -115 -188c-66.667 -41.333 -141 -62 -223 -62zM609 1737c-18 0 -41.167 -5.83301 -69.5 -17.5s-48.166 -17.5 -59.499 -17.5
c-60 0 -90 36 -90 108c0 50 16.167 92.333 48.5 127s73.5 52 123.5 52c22 0 53.667 -6.5 95 -19.5s72.666 -19.5 93.999 -19.5c18 0 41.333 6.16699 70 18.5s49 18.5 61 18.5c60 0 90 -37 90 -111c0 -49.333 -16.333 -91.333 -49 -126s-73.667 -52 -123 -52
c-22 0 -53.833 6.5 -95.5 19.5s-73.5 19.5 -95.5 19.5z" />
    <glyph glyph-name="glyph303" unicode="&#x1eb6;" horiz-adv-x="1280" 
d="M367 274l-50 -147.001c-34 -100 -87 -150 -159 -150c-46 0 -83.833 15.167 -113.5 45.5s-44.5 68.5 -44.5 114.5c-0 35.333 5.33301 67.333 16 96l379 1029c52.667 143.333 137.334 215 254.001 215c117.333 0 198.666 -64.333 243.999 -193l369 -1046
c14.667 -41.333 22 -76.333 22 -105c0 -47.333 -15.5 -85.166 -46.5 -113.499s-70.167 -42.5 -117.5 -42.5c-83.333 0 -141.333 54 -174 162l-41 135h-538zM461 579.999h348l-168 540zM652 1547c-81.333 0 -155.333 21 -222 63c-77.333 48 -116 110.333 -116 187
c0 74.667 35.667 112 107 112c34.667 0 68 -22.167 100 -66.5s75.667 -66.5 131 -66.5c56 0 99.667 22.167 131 66.5s64 66.5 98 66.5c72.667 0 109 -37.333 109 -112c0 -77.333 -38.333 -140 -115 -188c-66.667 -41.333 -141 -62 -223 -62zM458 -317.001
c0 52 18.167 95.998 54.5 131.998s80.5 54 132.5 54c51.333 0 94.833 -18.167 130.5 -54.5s53.5 -80.166 53.5 -131.499c0 -52 -17.667 -96 -53 -132s-79 -54 -131 -54c-52.667 0 -97 17.833 -133 53.5s-54 79.834 -54 132.501z" />
    <glyph glyph-name="glyph304" unicode="&#x1eb7;" 
d="M807 98c-66.667 -82 -156.667 -123 -270 -123c-148 0 -268.667 59.333 -362 178c-85.333 109.333 -128 240 -128 392c0 152.667 45 284 135 394c96 118 218.333 177 367 177c108.667 0 194.667 -38.333 258 -115c37.333 68.667 88.666 103 153.999 103
c106 0 159 -78 159 -234v-649c0 -156.667 -53 -235 -159 -235c-69.333 0 -120.666 37.333 -153.999 112zM381 549c0 -71.333 16.333 -131.334 49 -180.001c38 -56 91.333 -84 160 -84c67.333 0 120 28.333 158 85c32.667 49.333 49 109 49 179
c0 68.667 -17 127.334 -51 176.001c-38 54.667 -90 82 -156 82c-67.333 0 -120 -27 -158 -81c-34 -48 -51 -107 -51 -177zM622 1223c-81.333 0 -155.333 21 -222 63c-77.333 48 -116 110.333 -116 187c0 74.667 35.667 112 107 112c34.667 0 68 -22.167 100 -66.5
s75.667 -66.5 131 -66.5c56 0 99.667 22.167 131 66.5s64 66.5 98 66.5c72.667 0 109 -37.333 109 -112c0 -77.333 -38.333 -140 -115 -188c-66.667 -41.333 -141 -62 -223 -62zM434 -317.001c0 52 18.167 95.998 54.5 131.998s80.5 54 132.5 54
c51.333 0 94.833 -18.167 130.5 -54.5s53.5 -80.166 53.5 -131.499c0 -52 -17.667 -96 -53 -132s-79 -54 -131 -54c-52.667 0 -97 17.833 -133 53.5s-54 79.834 -54 132.501z" />
    <glyph glyph-name="glyph305" unicode="&#x1eb8;" horiz-adv-x="1034" 
d="M731 1456c157.333 0 236 -52 236 -156c0 -102 -78.667 -153 -236 -153h-270v-260h233c157.333 0 236 -51.333 236 -154c0 -102 -78.667 -153 -236 -153h-233v-273h280c157.333 0 236 -51 236 -153c0 -102.667 -78.667 -154 -236 -154h-387c-83.333 0 -141 13.667 -173 41
c-34.667 30 -52 86 -52 168v1014c0 86.667 16.667 147.167 50 181.5s93 51.5 179 51.5h373zM348 -317c0 52 18.167 95.998 54.5 131.998s80.5 54 132.5 54c51.333 0 94.833 -18.167 130.5 -54.5s53.5 -80.166 53.5 -131.499c0 -52 -17.667 -96 -53 -132s-79 -54 -131 -54
c-52.667 0 -97 17.833 -133 53.5s-54 79.834 -54 132.501z" />
    <glyph glyph-name="glyph306" unicode="&#x1eb9;" horiz-adv-x="1147" 
d="M375 666l426.002 0.00195312c-4 55.333 -26 101.166 -66 137.499s-87.667 54.5 -143 54.5c-56.667 0 -104.334 -17.833 -143.001 -53.5s-63.334 -81.834 -74.001 -138.501zM379.002 455.002c15.333 -128.667 96.6689 -192.999 244.002 -192.999
c53.333 0 119.833 17.5 199.5 52.5s126.5 52.5 140.5 52.5c37.333 0 68.166 -11.5 92.499 -34.5s36.5 -53.167 36.5 -90.5c0 -68.667 -48 -131 -144 -187s-210 -84 -342 -84c-162 0 -295.667 54.667 -401 164s-158 245.333 -158 408c0 161.333 49.667 297 149 407
c103.333 113.333 234.666 170 393.999 170c150 0 275.167 -51.333 375.5 -154s150.5 -229.334 150.5 -380.001c0 -54 -14.667 -90.667 -44 -110c-22 -14 -60.667 -21 -116 -21h-577zM414.005 -316.997c0 52 18.167 95.998 54.5 131.998s80.5 54 132.5 54
c51.333 0 94.833 -18.167 130.5 -54.5s53.5 -80.166 53.5 -131.499c0 -52 -17.667 -96 -53 -132s-79 -54 -131 -54c-52.667 0 -97 17.833 -133 53.5s-54 79.834 -54 132.501z" />
    <glyph glyph-name="glyph307" unicode="&#x1eba;" horiz-adv-x="1034" 
d="M731 1456c157.333 0 236 -52 236 -156c0 -102 -78.667 -153 -236 -153h-270v-260h233c157.333 0 236 -51.333 236 -154c0 -102 -78.667 -153 -236 -153h-233v-273h280c157.333 0 236 -51 236 -153c0 -102.667 -78.667 -154 -236 -154h-387c-83.333 0 -141 13.667 -173 41
c-34.667 30 -52 86 -52 168v1014c0 86.667 16.667 147.167 50 181.5s93 51.5 179 51.5h373zM442 1619l0.000976562 48c0 14 2 24.667 6 32s25.667 17.333 65 30c33.333 10.667 50 31.667 50 63c0 33.333 -17.667 50 -53 50c-24 0 -51.667 -13 -83 -39s-54.333 -39 -69 -39
c-20 0 -36.667 9 -50 27c-11.333 14.667 -17 30.667 -17 48c0 58.667 25.333 107 76 145c47.333 36 104.666 54 171.999 54c70.667 0 131 -26 181 -78c45.333 -47.333 68 -99 68 -155c0 -42 -13.667 -80.333 -41 -115s-61.333 -56 -102 -64
c0 -18.667 -10.5 -36.167 -31.5 -52.5s-42.833 -24.5 -65.5 -24.5s-46 7.16699 -70 21.5s-36 30.5 -36 48.5z" />
    <glyph glyph-name="glyph308" unicode="&#x1ebb;" horiz-adv-x="1147" 
d="M375 666l426.002 0.00195312c-4 55.333 -26 101.166 -66 137.499s-87.667 54.5 -143 54.5c-56.667 0 -104.334 -17.833 -143.001 -53.5s-63.334 -81.834 -74.001 -138.501zM379.002 455.002c15.333 -128.667 96.6689 -192.999 244.002 -192.999
c53.333 0 119.833 17.5 199.5 52.5s126.5 52.5 140.5 52.5c37.333 0 68.166 -11.5 92.499 -34.5s36.5 -53.167 36.5 -90.5c0 -68.667 -48 -131 -144 -187s-210 -84 -342 -84c-162 0 -295.667 54.667 -401 164s-158 245.333 -158 408c0 161.333 49.667 297 149 407
c103.333 113.333 234.666 170 393.999 170c150 0 275.167 -51.333 375.5 -154s150.5 -229.334 150.5 -380.001c0 -54 -14.667 -90.667 -44 -110c-22 -14 -60.667 -21 -116 -21h-577zM501.005 1262l0.000976562 48c0 14 2 24.667 6 32s25.667 17.333 65 30
c33.333 10.667 50 31.667 50 63c0 33.333 -17.667 50 -53 50c-24 0 -51.667 -13 -83 -39s-54.333 -39 -69 -39c-20 0 -36.667 9 -50 27c-11.333 14.667 -17 30.667 -17 48c0 58.667 25.333 107 76 145c47.333 36 104.666 54 171.999 54c70.667 0 131 -26 181 -78
c45.333 -47.333 68 -99 68 -155c0 -42 -13.667 -80.333 -41 -115s-61.333 -56 -102 -64c0 -18.667 -10.5 -36.167 -31.5 -52.5s-42.833 -24.5 -65.5 -24.5s-46 7.16699 -70 21.5s-36 30.5 -36 48.5z" />
    <glyph glyph-name="glyph309" unicode="&#x1ebc;" horiz-adv-x="1034" 
d="M731 1456c157.333 0 236 -52 236 -156c0 -102 -78.667 -153 -236 -153h-270v-260h233c157.333 0 236 -51.333 236 -154c0 -102 -78.667 -153 -236 -153h-233v-273h280c157.333 0 236 -51 236 -153c0 -102.667 -78.667 -154 -236 -154h-387c-83.333 0 -141 13.667 -173 41
c-34.667 30 -52 86 -52 168v1014c0 86.667 16.667 147.167 50 181.5s93 51.5 179 51.5h373zM472 1639c-18 0 -41.167 -5.83301 -69.5 -17.5s-48.166 -17.5 -59.499 -17.5c-60 0 -90 36 -90 108c0 50 16.167 92.333 48.5 127s73.5 52 123.5 52c22 0 53.667 -6.5 95 -19.5
s72.666 -19.5 93.999 -19.5c18 0 41.333 6.16699 70 18.5s49 18.5 61 18.5c60 0 90 -37 90 -111c0 -49.333 -16.333 -91.333 -49 -126s-73.667 -52 -123 -52c-22 0 -53.833 6.5 -95.5 19.5s-73.5 19.5 -95.5 19.5z" />
    <glyph glyph-name="glyph310" unicode="&#x1ebd;" horiz-adv-x="1147" 
d="M375 666l426.002 0.00195312c-4 55.333 -26 101.166 -66 137.499s-87.667 54.5 -143 54.5c-56.667 0 -104.334 -17.833 -143.001 -53.5s-63.334 -81.834 -74.001 -138.501zM379.002 455.002c15.333 -128.667 96.6689 -192.999 244.002 -192.999
c53.333 0 119.833 17.5 199.5 52.5s126.5 52.5 140.5 52.5c37.333 0 68.166 -11.5 92.499 -34.5s36.5 -53.167 36.5 -90.5c0 -68.667 -48 -131 -144 -187s-210 -84 -342 -84c-162 0 -295.667 54.667 -401 164s-158 245.333 -158 408c0 161.333 49.667 297 149 407
c103.333 113.333 234.666 170 393.999 170c150 0 275.167 -51.333 375.5 -154s150.5 -229.334 150.5 -380.001c0 -54 -14.667 -90.667 -44 -110c-22 -14 -60.667 -21 -116 -21h-577zM525.005 1268c-18 0 -41.167 -5.83301 -69.5 -17.5s-48.166 -17.5 -59.499 -17.5
c-60 0 -90 36 -90 108c0 50 16.167 92.333 48.5 127s73.5 52 123.5 52c22 0 53.667 -6.5 95 -19.5s72.666 -19.5 93.999 -19.5c18 0 41.333 6.16699 70 18.5s49 18.5 61 18.5c60 0 90 -37 90 -111c0 -49.333 -16.333 -91.333 -49 -126s-73.667 -52 -123 -52
c-22 0 -53.833 6.5 -95.5 19.5s-73.5 19.5 -95.5 19.5z" />
    <glyph glyph-name="glyph311" unicode="&#x1ebe;" horiz-adv-x="1034" 
d="M731 1456c157.333 0 236 -52 236 -156c0 -102 -78.667 -153 -236 -153h-270v-260h233c157.333 0 236 -51.333 236 -154c0 -102 -78.667 -153 -236 -153h-233v-273h280c157.333 0 236 -51 236 -153c0 -102.667 -78.667 -154 -236 -154h-387c-83.333 0 -141 13.667 -173 41
c-34.667 30 -52 86 -52 168v1014c0 86.667 16.667 147.167 50 181.5s93 51.5 179 51.5h373zM531 1658l-178 -108c-34 -20.667 -65.333 -31 -94 -31c-64.667 0 -97 35 -97 105c0 41.333 20.667 78 62 110l223 174c28 22 56 33 84 33s56 -11 84 -33l223 -174
c41.333 -32 62 -68.667 62 -110c0 -70 -32.333 -105 -97 -105c-28.667 0 -60 10.333 -94 31zM345 1955c-74 0 -110.999 37.333 -110.999 112c0 28 11.667 58 35 90l149 205c32 44 71 66 117 66c35.333 0 65.666 -11.667 90.999 -35s38 -52.666 38 -88
c0 -38 -17.667 -76.333 -53 -115l-156 -172c-38 -42 -74.667 -63 -110 -63z" />
    <glyph glyph-name="glyph312" unicode="&#x1ebf;" horiz-adv-x="1147" 
d="M375 666l426.002 0.00195312c-4 55.333 -26 101.166 -66 137.499s-87.667 54.5 -143 54.5c-56.667 0 -104.334 -17.833 -143.001 -53.5s-63.334 -81.834 -74.001 -138.501zM379.002 455.002c15.333 -128.667 96.6689 -192.999 244.002 -192.999
c53.333 0 119.833 17.5 199.5 52.5s126.5 52.5 140.5 52.5c37.333 0 68.166 -11.5 92.499 -34.5s36.5 -53.167 36.5 -90.5c0 -68.667 -48 -131 -144 -187s-210 -84 -342 -84c-162 0 -295.667 54.667 -401 164s-158 245.333 -158 408c0 161.333 49.667 297 149 407
c103.333 113.333 234.666 170 393.999 170c150 0 275.167 -51.333 375.5 -154s150.5 -229.334 150.5 -380.001c0 -54 -14.667 -90.667 -44 -110c-22 -14 -60.667 -21 -116 -21h-577zM606.005 1337l-178 -108c-34 -20.667 -65.333 -31 -94 -31c-64.667 0 -97 35 -97 105
c0 41.333 20.667 78 62 110l223 174c28 22 56 33 84 33s56 -11 84 -33l223 -174c41.333 -32 62 -68.667 62 -110c0 -70 -32.333 -105 -97 -105c-28.667 0 -60 10.333 -94 31zM420.005 1634c-74 0 -110.999 37.332 -110.999 111.999c0 28 11.667 58 35 90l149 205
c32 44 71 66 117 66c35.333 0 65.666 -11.667 90.999 -35s38 -52.666 38 -87.999c0 -38 -17.667 -76.333 -53 -115l-156 -172c-38 -42 -74.667 -63 -110 -63z" />
    <glyph glyph-name="glyph313" unicode="&#x1ec0;" horiz-adv-x="1034" 
d="M731 1456c157.333 0 236 -52 236 -156c0 -102 -78.667 -153 -236 -153h-270v-260h233c157.333 0 236 -51.333 236 -154c0 -102 -78.667 -153 -236 -153h-233v-273h280c157.333 0 236 -51 236 -153c0 -102.667 -78.667 -154 -236 -154h-387c-83.333 0 -141 13.667 -173 41
c-34.667 30 -52 86 -52 168v1014c0 86.667 16.667 147.167 50 181.5s93 51.5 179 51.5h373zM531 1658l-178 -108c-34 -20.667 -65.333 -31 -94 -31c-64.667 0 -97 35 -97 105c0 41.333 20.667 78 62 110l223 174c28 22 56 33 84 33s56 -11 84 -33l223 -174
c41.333 -32 62 -68.667 62 -110c0 -70 -32.333 -105 -97 -105c-28.667 0 -60 10.333 -94 31zM399 2301c0 37.333 12.168 67.833 36.501 91.5s55.166 35.5 92.499 35.5c45.333 0 84 -22 116 -66l150 -205c23.333 -32 35 -62 35 -90c0 -74.667 -37 -112 -111 -112
c-35.333 0 -72 21 -110 63l-156 172c-35.333 38.667 -53 75.667 -53 111z" />
    <glyph glyph-name="glyph314" unicode="&#x1ec1;" horiz-adv-x="1147" 
d="M375 666l426.002 0.00195312c-4 55.333 -26 101.166 -66 137.499s-87.667 54.5 -143 54.5c-56.667 0 -104.334 -17.833 -143.001 -53.5s-63.334 -81.834 -74.001 -138.501zM379.002 455.002c15.333 -128.667 96.6689 -192.999 244.002 -192.999
c53.333 0 119.833 17.5 199.5 52.5s126.5 52.5 140.5 52.5c37.333 0 68.166 -11.5 92.499 -34.5s36.5 -53.167 36.5 -90.5c0 -68.667 -48 -131 -144 -187s-210 -84 -342 -84c-162 0 -295.667 54.667 -401 164s-158 245.333 -158 408c0 161.333 49.667 297 149 407
c103.333 113.333 234.666 170 393.999 170c150 0 275.167 -51.333 375.5 -154s150.5 -229.334 150.5 -380.001c0 -54 -14.667 -90.667 -44 -110c-22 -14 -60.667 -21 -116 -21h-577zM606.005 1337l-178 -108c-34 -20.667 -65.333 -31 -94 -31c-64.667 0 -97 35 -97 105
c0 41.333 20.667 78 62 110l223 174c28 22 56 33 84 33s56 -11 84 -33l223 -174c41.333 -32 62 -68.667 62 -110c0 -70 -32.333 -105 -97 -105c-28.667 0 -60 10.333 -94 31zM473.005 1980c0 37.333 12.168 67.833 36.501 91.5s55.166 35.5 92.499 35.5
c45.333 0 84 -22 116 -66l150 -205c23.333 -32 35 -62 35 -90c0 -74.667 -37 -112 -111 -112c-35.333 0 -72 21 -110 63l-156 172c-35.333 38.667 -53 75.667 -53 111z" />
    <glyph glyph-name="glyph315" unicode="&#x1ec2;" horiz-adv-x="1034" 
d="M731 1456c157.333 0 236 -52 236 -156c0 -102 -78.667 -153 -236 -153h-270v-260h233c157.333 0 236 -51.333 236 -154c0 -102 -78.667 -153 -236 -153h-233v-273h280c157.333 0 236 -51 236 -153c0 -102.667 -78.667 -154 -236 -154h-387c-83.333 0 -141 13.667 -173 41
c-34.667 30 -52 86 -52 168v1014c0 86.667 16.667 147.167 50 181.5s93 51.5 179 51.5h373zM531 1658l-178 -108c-34 -20.667 -65.333 -31 -94 -31c-64.667 0 -97 35 -97 105c0 41.333 20.667 78 62 110l223 174c28 22 56 33 84 33s56 -11 84 -33l223 -174
c41.333 -32 62 -68.667 62 -110c0 -70 -32.333 -105 -97 -105c-28.667 0 -60 10.333 -94 31zM678 1963l0.000976562 48c0 14 2 24.667 6 32s25.667 17.333 65 30c33.333 10.667 50 31.667 50 63c0 33.333 -17.667 50 -53 50c-24 0 -51.667 -13 -83 -39s-54.333 -39 -69 -39
c-20 0 -36.667 9 -50 27c-11.333 14.667 -17 30.667 -17 48c0 58.667 25.333 107 76 145c47.333 36 104.666 54 171.999 54c70.667 0 131 -26 181 -78c45.333 -47.333 68 -99 68 -155c0 -42 -13.667 -80.333 -41 -115s-61.333 -56 -102 -64
c0 -18.667 -10.5 -36.167 -31.5 -52.5s-42.833 -24.5 -65.5 -24.5s-46 7.16699 -70 21.5s-36 30.5 -36 48.5z" />
    <glyph glyph-name="glyph316" unicode="&#x1ec3;" horiz-adv-x="1147" 
d="M375 666l426.002 0.00195312c-4 55.333 -26 101.166 -66 137.499s-87.667 54.5 -143 54.5c-56.667 0 -104.334 -17.833 -143.001 -53.5s-63.334 -81.834 -74.001 -138.501zM379.002 455.002c15.333 -128.667 96.6689 -192.999 244.002 -192.999
c53.333 0 119.833 17.5 199.5 52.5s126.5 52.5 140.5 52.5c37.333 0 68.166 -11.5 92.499 -34.5s36.5 -53.167 36.5 -90.5c0 -68.667 -48 -131 -144 -187s-210 -84 -342 -84c-162 0 -295.667 54.667 -401 164s-158 245.333 -158 408c0 161.333 49.667 297 149 407
c103.333 113.333 234.666 170 393.999 170c150 0 275.167 -51.333 375.5 -154s150.5 -229.334 150.5 -380.001c0 -54 -14.667 -90.667 -44 -110c-22 -14 -60.667 -21 -116 -21h-577zM606.005 1337l-178 -108c-34 -20.667 -65.333 -31 -94 -31c-64.667 0 -97 35 -97 105
c0 41.333 20.667 78 62 110l223 174c28 22 56 33 84 33s56 -11 84 -33l223 -174c41.333 -32 62 -68.667 62 -110c0 -70 -32.333 -105 -97 -105c-28.667 0 -60 10.333 -94 31zM752.005 1642l0.000976562 48c0 14 2 24.667 6 32s25.667 17.333 65 30
c33.333 10.667 50 31.667 50 63c0 33.333 -17.667 50 -53 50c-24 0 -51.667 -13 -83 -39s-54.333 -39 -69 -39c-20 0 -36.667 9 -50 27c-11.333 14.667 -17 30.667 -17 48c0 58.667 25.333 107 76 145c47.333 36 104.666 54 171.999 54c70.667 0 131 -26 181 -78
c45.333 -47.333 68 -99 68 -155c0 -42 -13.667 -80.333 -41 -115s-61.333 -56 -102 -64c0 -18.667 -10.5 -36.167 -31.5 -52.5s-42.833 -24.5 -65.5 -24.5s-46 7.16699 -70 21.5s-36 30.5 -36 48.5z" />
    <glyph glyph-name="glyph317" unicode="&#x1ec4;" horiz-adv-x="1034" 
d="M731 1456c157.333 0 236 -52 236 -156c0 -102 -78.667 -153 -236 -153h-270v-260h233c157.333 0 236 -51.333 236 -154c0 -102 -78.667 -153 -236 -153h-233v-273h280c157.333 0 236 -51 236 -153c0 -102.667 -78.667 -154 -236 -154h-387c-83.333 0 -141 13.667 -173 41
c-34.667 30 -52 86 -52 168v1014c0 86.667 16.667 147.167 50 181.5s93 51.5 179 51.5h373zM531 1658l-178 -108c-34 -20.667 -65.333 -31 -94 -31c-64.667 0 -97 35 -97 105c0 41.333 20.667 78 62 110l223 174c28 22 56 33 84 33s56 -11 84 -33l223 -174
c41.333 -32 62 -68.667 62 -110c0 -70 -32.333 -105 -97 -105c-28.667 0 -60 10.333 -94 31zM524 2058c-18 0 -41.167 -5.83301 -69.5 -17.5s-48.166 -17.5 -59.499 -17.5c-60 0 -90 36 -90 108c0 50 16.167 92.333 48.5 127s73.5 52 123.5 52c22 0 53.667 -6.5 95 -19.5
s72.666 -19.5 93.999 -19.5c18 0 41.333 6.16699 70 18.5s49 18.5 61 18.5c60 0 90 -37 90 -111c0 -49.333 -16.333 -91.333 -49 -126s-73.667 -52 -123 -52c-22 0 -53.833 6.5 -95.5 19.5s-73.5 19.5 -95.5 19.5z" />
    <glyph glyph-name="glyph318" unicode="&#x1ec5;" horiz-adv-x="1147" 
d="M375 666l426.002 0.00195312c-4 55.333 -26 101.166 -66 137.499s-87.667 54.5 -143 54.5c-56.667 0 -104.334 -17.833 -143.001 -53.5s-63.334 -81.834 -74.001 -138.501zM379.002 455.002c15.333 -128.667 96.6689 -192.999 244.002 -192.999
c53.333 0 119.833 17.5 199.5 52.5s126.5 52.5 140.5 52.5c37.333 0 68.166 -11.5 92.499 -34.5s36.5 -53.167 36.5 -90.5c0 -68.667 -48 -131 -144 -187s-210 -84 -342 -84c-162 0 -295.667 54.667 -401 164s-158 245.333 -158 408c0 161.333 49.667 297 149 407
c103.333 113.333 234.666 170 393.999 170c150 0 275.167 -51.333 375.5 -154s150.5 -229.334 150.5 -380.001c0 -54 -14.667 -90.667 -44 -110c-22 -14 -60.667 -21 -116 -21h-577zM606.005 1337l-178 -108c-34 -20.667 -65.333 -31 -94 -31c-64.667 0 -97 35 -97 105
c0 41.333 20.667 78 62 110l223 174c28 22 56 33 84 33s56 -11 84 -33l223 -174c41.333 -32 62 -68.667 62 -110c0 -70 -32.333 -105 -97 -105c-28.667 0 -60 10.333 -94 31zM599.005 1737c-18 0 -41.167 -5.83301 -69.5 -17.5s-48.166 -17.5 -59.499 -17.5
c-60 0 -90 36 -90 108c0 50 16.167 92.333 48.5 127s73.5 52 123.5 52c22 0 53.667 -6.5 95 -19.5s72.666 -19.5 93.999 -19.5c18 0 41.333 6.16699 70 18.5s49 18.5 61 18.5c60 0 90 -37 90 -111c0 -49.333 -16.333 -91.333 -49 -126s-73.667 -52 -123 -52
c-22 0 -53.833 6.5 -95.5 19.5s-73.5 19.5 -95.5 19.5z" />
    <glyph glyph-name="glyph319" unicode="&#x1ec6;" horiz-adv-x="1034" 
d="M731 1456c157.333 0 236 -52 236 -156c0 -102 -78.667 -153 -236 -153h-270v-260h233c157.333 0 236 -51.333 236 -154c0 -102 -78.667 -153 -236 -153h-233v-273h280c157.333 0 236 -51 236 -153c0 -102.667 -78.667 -154 -236 -154h-387c-83.333 0 -141 13.667 -173 41
c-34.667 30 -52 86 -52 168v1014c0 86.667 16.667 147.167 50 181.5s93 51.5 179 51.5h373zM531 1658l-178 -108c-34 -20.667 -65.333 -31 -94 -31c-64.667 0 -97 35 -97 105c0 41.333 20.667 78 62 110l223 174c28 22 56 33 84 33s56 -11 84 -33l223 -174
c41.333 -32 62 -68.667 62 -110c0 -70 -32.333 -105 -97 -105c-28.667 0 -60 10.333 -94 31zM348 -317c0 52 18.167 95.998 54.5 131.998s80.5 54 132.5 54c51.333 0 94.833 -18.167 130.5 -54.5s53.5 -80.166 53.5 -131.499c0 -52 -17.667 -96 -53 -132s-79 -54 -131 -54
c-52.667 0 -97 17.833 -133 53.5s-54 79.834 -54 132.501z" />
    <glyph glyph-name="glyph320" unicode="&#x1ec7;" horiz-adv-x="1147" 
d="M375 666l426.002 0.00195312c-4 55.333 -26 101.166 -66 137.499s-87.667 54.5 -143 54.5c-56.667 0 -104.334 -17.833 -143.001 -53.5s-63.334 -81.834 -74.001 -138.501zM379.002 455.002c15.333 -128.667 96.6689 -192.999 244.002 -192.999
c53.333 0 119.833 17.5 199.5 52.5s126.5 52.5 140.5 52.5c37.333 0 68.166 -11.5 92.499 -34.5s36.5 -53.167 36.5 -90.5c0 -68.667 -48 -131 -144 -187s-210 -84 -342 -84c-162 0 -295.667 54.667 -401 164s-158 245.333 -158 408c0 161.333 49.667 297 149 407
c103.333 113.333 234.666 170 393.999 170c150 0 275.167 -51.333 375.5 -154s150.5 -229.334 150.5 -380.001c0 -54 -14.667 -90.667 -44 -110c-22 -14 -60.667 -21 -116 -21h-577zM606.005 1337l-178 -108c-34 -20.667 -65.333 -31 -94 -31c-64.667 0 -97 35 -97 105
c0 41.333 20.667 78 62 110l223 174c28 22 56 33 84 33s56 -11 84 -33l223 -174c41.333 -32 62 -68.667 62 -110c0 -70 -32.333 -105 -97 -105c-28.667 0 -60 10.333 -94 31zM414.005 -316.997c0 52 18.167 95.998 54.5 131.998s80.5 54 132.5 54
c51.333 0 94.833 -18.167 130.5 -54.5s53.5 -80.166 53.5 -131.499c0 -52 -17.667 -96 -53 -132s-79 -54 -131 -54c-52.667 0 -97 17.833 -133 53.5s-54 79.834 -54 132.501z" />
    <glyph glyph-name="glyph321" unicode="&#x1ec8;" horiz-adv-x="606" 
d="M469 217c0 -156.667 -55.333 -235 -166 -235s-166 78.333 -166 235v1022c0 157.333 55.333 236 166 236s166 -78.667 166 -236v-1022zM212 1619l0.000976562 48c0 14 2 24.667 6 32s25.667 17.333 65 30c33.333 10.667 50 31.667 50 63c0 33.333 -17.667 50 -53 50
c-24 0 -51.667 -13 -83 -39s-54.333 -39 -69 -39c-20 0 -36.667 9 -50 27c-11.333 14.667 -17 30.667 -17 48c0 58.667 25.333 107 76 145c47.333 36 104.666 54 171.999 54c70.667 0 131 -26 181 -78c45.333 -47.333 68 -99 68 -155c0 -42 -13.667 -80.333 -41 -115
s-61.333 -56 -102 -64c0 -18.667 -10.5 -36.167 -31.5 -52.5s-42.833 -24.5 -65.5 -24.5s-46 7.16699 -70 21.5s-36 30.5 -36 48.5z" />
    <glyph glyph-name="glyph322" unicode="&#x1ec9;" horiz-adv-x="563" 
d="M442 221c0 -156.667 -53 -235 -159 -235c-108 0 -162 78.333 -162 235v649c0 156 54 234 162 234c106 0 159 -78 159 -234v-649zM191 1262l0.000976562 48c0 14 2 24.667 6 32s25.667 17.333 65 30c33.333 10.667 50 31.667 50 63c0 33.333 -17.667 50 -53 50
c-24 0 -51.667 -13 -83 -39s-54.333 -39 -69 -39c-20 0 -36.667 9 -50 27c-11.333 14.667 -17 30.667 -17 48c0 58.667 25.333 107 76 145c47.333 36 104.666 54 171.999 54c70.667 0 131 -26 181 -78c45.333 -47.333 68 -99 68 -155c0 -42 -13.667 -80.333 -41 -115
s-61.333 -56 -102 -64c0 -18.667 -10.5 -36.167 -31.5 -52.5s-42.833 -24.5 -65.5 -24.5s-46 7.16699 -70 21.5s-36 30.5 -36 48.5z" />
    <glyph glyph-name="glyph323" unicode="&#x1eca;" horiz-adv-x="606" 
d="M469 217c0 -156.667 -55.333 -235 -166 -235s-166 78.333 -166 235v1022c0 157.333 55.333 236 166 236s166 -78.667 166 -236v-1022zM118 -317c0 52 18.167 95.998 54.5 131.998s80.5 54 132.5 54c51.333 0 94.833 -18.167 130.5 -54.5s53.5 -80.166 53.5 -131.499
c0 -52 -17.667 -96 -53 -132s-79 -54 -131 -54c-52.667 0 -97 17.833 -133 53.5s-54 79.834 -54 132.501z" />
    <glyph glyph-name="glyph324" unicode="&#x1ecb;" horiz-adv-x="563" 
d="M96 1376c0 52 18.167 96.166 54.5 132.499s80.5 54.5 132.5 54.5c51.333 0 94.833 -18.333 130.5 -55s53.5 -80.667 53.5 -132c0 -52 -17.667 -96 -53 -132s-79 -54 -131 -54c-52.667 0 -97 17.833 -133 53.5s-54 79.834 -54 132.501zM442 220.999
c0 -156.667 -53 -235 -159 -235c-108 0 -162 78.333 -162 235v649c0 156 54 234 162 234c106 0 159 -78 159 -234v-649zM94 -317.001c0 52 18.167 95.998 54.5 131.998s80.5 54 132.5 54c51.333 0 94.833 -18.167 130.5 -54.5s53.5 -80.166 53.5 -131.499
c0 -52 -17.667 -96 -53 -132s-79 -54 -131 -54c-52.667 0 -97 17.833 -133 53.5s-54 79.834 -54 132.501z" />
    <glyph glyph-name="glyph325" unicode="&#x1ecc;" horiz-adv-x="1546" 
d="M418 723c0 -123.333 27.333 -225.666 82 -306.999c64 -94.667 154.667 -142 272 -142s208 47.333 272 142c54.667 81.333 82 183.666 82 306.999c0 126 -26.667 230.333 -80 313c-62.667 97.333 -154 146 -274 146s-211.333 -48.667 -274 -146
c-53.333 -82.667 -80 -187 -80 -313zM57 727c0 224 62.334 406.667 187.001 548c131.333 148 307.333 222 528 222c221.333 0 397.666 -74 528.999 -222c125.333 -141.333 188 -324 188 -548c0 -224.667 -62.667 -407.667 -188 -549c-130.667 -147.333 -307 -221 -529 -221
s-398 73.667 -528 221c-124.667 141.333 -187 324.333 -187 549zM582.001 -317c0 52 18.167 95.998 54.5 131.998s80.5 54 132.5 54c51.333 0 94.833 -18.167 130.5 -54.5s53.5 -80.166 53.5 -131.499c0 -52 -17.667 -96 -53 -132s-79 -54 -131 -54
c-52.667 0 -97 17.833 -133 53.5s-54 79.834 -54 132.501z" />
    <glyph glyph-name="glyph326" unicode="&#x1ecd;" horiz-adv-x="1188" 
d="M381 549c0 -74 16.667 -136.333 50 -187c38 -58.667 92.333 -88 163 -88c70 0 124.333 29.333 163 88c33.333 50.667 50 113 50 187c0 71.333 -17.333 132.333 -52 183c-39.333 58 -93 87 -161 87c-69.333 0 -123.333 -28.667 -162 -86c-34 -50.667 -51 -112 -51 -184z
M47 545c0 164.667 49.667 300.999 149 408.999c102 112 234.667 168 398 168c164 0 296.667 -55.667 398 -167c98 -108 147 -244.667 147 -410s-49 -302 -147 -410c-101.333 -112 -234 -168 -398 -168c-163.333 0 -296 56 -398 168
c-99.333 108.667 -149 245.334 -149 410.001zM411 -317.001c0 52 18.167 95.998 54.5 131.998s80.5 54 132.5 54c51.333 0 94.833 -18.167 130.5 -54.5s53.5 -80.166 53.5 -131.499c0 -52 -17.667 -96 -53 -132s-79 -54 -131 -54c-52.667 0 -97 17.833 -133 53.5
s-54 79.834 -54 132.501z" />
    </font>
</defs>
</svg>
